<?xml version="1.0" encoding="utf-8"?>
<!-- Generator: Adobe Illustrator 24.0.1, SVG Export Plug-In . SVG Version: 6.00 Build 0)  -->
<svg version="1.1" id="Layer_1" xmlns="http://www.w3.org/2000/svg" xmlns:xlink="http://www.w3.org/1999/xlink" x="0px" y="0px"
	 viewBox="0 0 1000 800" style="enable-background:new 0 0 1000 800;" xml:space="preserve">
<path d="M404.4,377.9c2.5,2,2.7,5,2,8.3c-0.2,0.8-0.5,1.9-0.2,2.5c3,4.6,2.4,8.9-0.8,13.2c5-1.2,7-7.3,4-12c-1-1.5-1.2-2.5-0.5-4.2
	c1.3-3.3,0.2-5.9-3.4-9.4c1.7-3.1,3.7-6,4.7-9.3c0.7-2.3,0-5.1-0.1-7.7c-0.1-0.9-0.7-1.7-0.8-2.5c-0.4-2.6,0.3-3.3,2.9-2.7
	c12.4,2.5,24,7.5,35.4,12.6c24.7,11,47.4,25.6,69.5,41.2c9.2,6.5,19,12,30.2,14.1c4.1,0.8,8.6,0.9,12.6,0c9.6-2,15.7-10.5,16.2-21.6
	c0.7-15.8-5.4-29.1-16.3-40.1c-12.5-12.7-27.2-22.8-41.9-32.8c-30.6-20.8-63.3-37.7-97.2-52.4c-0.9-0.4-1.8-0.8-2.8-1.2
	c1.8-3.4,3.8-6.4,5.3-9.8c8.6-19.3-0.4-40.4-20-48.2c-4.4-1.7-8.7-4.3-12.6-7.1c-8.8-6.5-18.7-8.8-29.3-9.1c-1.2,0-2.5,0.5-4.1,0.8
	c2.6,5.1,8.6,5.6,11.6,9.5c-0.1,0.3-0.2,0.5-0.3,0.8c-2.6-0.6-5.4-0.9-7.9-1.7c-5.8-1.9-11.7-2.9-17.8-2.8c-1.3,0-3.1-0.9-3.9-2
	c-12.3-15.9-21.2-33.3-23.7-53.4c-1.8-14.4,0.3-28.4,7.8-41c11.2-18.8,26.5-33,47-41.2c11.7-4.7,23.8-5.6,36.2-4.8
	c20.2,1.4,38.8,8.2,56.3,17.6c13.1,7.1,25.5,15.7,38.1,23.6c0.7,0.5,1.6,1.5,1.6,2.2c-1.1,11.2,3.6,20.2,10.5,28.4
	c0.2,0.2,0.3,0.5,0.8,1.5c-1.9-0.9-3.2-1.6-4.4-2.2c-18.6-9.4-37.6-17.7-58.1-22.4c-18.8-4.3-37.6-5.6-56.5-0.4
	c-6.4,1.8-12.4,4.3-17.5,8.5c-11.3,9.2-14.9,22.2-10.1,37.7c4.9,16,14.9,28.5,27.2,39.4c17.2,15.1,37.1,24.9,58.5,32.7
	c49.5,18.2,94.2,44.9,134.1,79.5c18.3,15.8,35,33.4,46.6,54.9c12.5,23.1,16.6,47.8,8.5,73.3c-8,24.8-25.8,38.7-51.5,41.9
	c-21.4,2.7-41.8-2.1-61.4-10.5c-18.7-8-35.5-19.4-52.1-30.8c-12.6-8.7-24.9-17.7-39-23.9c-16.2-7.2-32.7-9.4-50.1-4.6
	c-11.2,3.1-18.4,9.6-21.9,20.5c-6.3,19.5-5,38.2,7.3,55.2c7.9,10.8,19.4,16,32.2,18.7c13.6,2.9,27.4,2.7,41.2,1
	c29.5-3.8,57.9-12.1,85.8-21.9c5.1-1.8,9.3-2.4,14.9-0.7c19.9,6.2,40.1,5.3,60.1,0.1c1.1-0.3,2.7-0.3,3.5,0.3
	c13.7,9.9,25.5,21.4,33.2,36.7c13.4,26.6,8.2,59.1-12.5,79.8c-10.3,10.4-23.1,15-37.2,16.7c-4.6,0.6-9.3,0.6-14.2,1
	c0.7-4.1,1.3-8-1.4-10.8c-2.7-2.8-2.6-5.2-1.7-8.6c1.5-5.7-5.1-11.9-11.9-11c4.3,1.9,7.4,4.5,8.3,8.9c0.3,1.2,0.6,2.8,0.1,3.8
	c-1.4,2.8-0.4,4.8,1.4,6.8c0.8,0.8,1.2,2,1.6,3.2c1.8,5.5,0.2,7.5-5.4,6.5c-7.2-1.3-14.3-2.9-21.7-4.8c2.9-3.4,3.3-6.8,1.9-10.5
	c-0.2-0.5,0.6-1.5,1.1-2.2c3.2-4.3,2.1-9.8-2.7-12.6c0.6,1.6,1.4,2.9,1.6,4.4c0.2,1.9,0.7,4.5-0.3,5.7c-2.2,2.6-1.5,5.3-1.6,8.2
	c-0.1,5.1-2,6.3-6.7,4.6c-2.5-0.9-5-1.9-7.5-2.9c-0.3-0.1-0.5-0.3-0.2-0.1c-1-3.5-1.8-6.4-2.7-9.8c5.6-7.5,3.4-16.2-5.1-18.2
	c1.2,1.7,2.7,3.3,3.5,5.2c1.6,4,1.9,8.1-1.2,11.8c-0.4,0.5-0.4,1.7-0.2,2.5c0.5,2.1,1.2,4.2,2.1,7.1c-3.9-1.1-6.7-1.8-9.5-2.6
	c-2.9-0.8-5.8-1.5-8.6-2.2c-2.7-0.7-3-1.7-1.2-3.7c5.4-6.2,4.6-13.2-1.9-16.8c-0.2-0.1-0.4-0.1,0,0c0.6,3.1,1.6,6.2,1.6,9.4
	c0,2-1.5,4.1-2.5,6.1c-0.6,1.1-1.4,2.1-2.3,3.6c-2.8-0.4-6.2-0.9-9.8-1.4c0.5-3.6-0.1-6.7-2.7-9.2c-0.4-0.3,0-1.6,0.2-2.4
	c1.5-5.2-2.3-10.2-8.1-10.4c3.6,2,6.2,4.6,5.7,8.6c-0.4,2.9-0.2,5.1,1.6,7.5c1,1.3,0.7,3.5,1.1,5.5c-3.8,0-7.1,0-9.7,0
	c-2.3-3.5-4.4-6.6-6.9-10.5c1.7-8-3.4-14.6-12.1-13.5c0.9,0.5,1.4,0.8,1.9,1.1c5.1,2.2,7.7,6.3,7,11.8c-0.3,2,0.4,3,1.6,4.4
	c1.6,1.8,2.8,4.1,4.4,6.3c-4.8,1.2-8.8,2.3-12.9,3.2c-0.6,0.1-1.4-0.4-1.9-0.9c-1.4-1.1-2.6-2.3-4-3.6c1.9-9.4-3.4-16-12.4-14.4
	c1.3,0.6,2.2,1,3.2,1.4c4.6,2.2,7.2,6.4,6.3,11.3c-0.4,2.1,0,3.3,1.6,4.5c1.1,0.8,1.8,2,2.8,3.2c-2.3,1.9-4.5,3.6-6.7,5.3
	c-1.5-0.7-3.1-1.7-4.8-2c-1.7-0.4-3.5-0.1-5.5-0.1c-4.8-5.3-11.4-5.2-14.4,0.9c1.5-0.9,2.5-1.8,3.6-2.1c3.1-0.8,5.8,0,8.3,2.1
	c0.9,0.8,2.3,1,3.6,1.3c0.8,0.2,1.8,0,2.7,0.1c3.7,0.4,4.4,1.6,3.2,5c-1.1,3.2-2,6.4-3.1,9.6c-9.4-0.1-14.3,3.9-13,11.4
	c2-5,5.3-7.8,10.5-8.1c1.9-0.1,2.7,0.7,3.3,2.5c1.3,3.4,3,6.6,4.7,10.1c-4.3,6.5-4.6,10.9-0.5,14.8c-0.8-4.9-0.3-9.2,3.6-12.4
	c4.3,2.3,8.5,4.6,12.8,6.9c-0.5,3.5-0.7,7.3,2.8,10.6c0-3.3,0-6.2,0-9.6c3.3,1,6,2,8.7,2.6c13.6,3.1,27.3,5.8,40.9,9.1
	c7.9,1.9,15.6,4.5,23.3,7.1c3.4,1.1,6.5,3.1,9.3,6.6c-4.3-1-7.8-2.3-11.4-2.5c-11.4-0.8-22.8-1.5-34.1-1.8
	c-13-0.3-25.9-1.5-38.5-4.9c-13.4-3.7-25.6-9.4-35.1-20c-13.8-15.5-15.7-41-4-56.8c7.6-10.2,18.3-15.3,30.4-17.8
	c18.3-3.8,36.3-1.8,54.1,3.3c11.1,3.2,22.2,6.1,33.8,5.9c11.1-0.2,21.7-2.2,31-8.6c17.9-12.4,16.8-35.3-2.1-46.1
	c-9-5.1-18.9-7.1-29.1-7.7c-5.7-0.4-11.4-0.1-17-0.1c-0.2-1-0.4-1.3-0.4-1.5c0.8-2.4,2.2-4.8,2.2-7.2c0-2.4-2-4.7-2.2-7.2
	c-0.4-4.4,1.6-7.2,6.5-10.4c-2.9-0.7-5.8,0.7-7.9,3.9c-3,4.4-2.8,8.6,0.4,13.2c-1.1,3-2.1,5.8-3.4,9.3c-4.6,0.5-9.7,1.1-14.1,1.7
	c-1.1-2-1.9-3.6-2.8-5c-2.9-4.4-2.6-8.7,0.4-13.1c-2.7,0.6-4.3,2.2-5,5.1c-1,4.1,0.2,7.2,4,10.4c0,2.8-1.6,3.5-4.1,3.9
	c-5.7,0.9-11.3,2-16.9,3.3c-2.4,0.5-3.2-0.4-3.1-2.5c0.1-1.9,1.1-4.3,0.3-5.6c-2.7-4.5-2.1-8.4,1.1-12.3c-5.5,1.2-7,8-3.2,12.4
	c-0.3,3.2-0.5,6.1-0.8,9.3c-5.7,1.3-11.8,2.8-17.7,4.2c-0.4-0.6-0.7-0.8-0.6-0.9c0.8-3.4,0.2-6.4-1-9.7c-1.3-3.6-0.1-7.3,3.6-9.7
	c-5.7,0.4-8.6,7.1-5.5,12.5c0.5,0.8,1.3,1.7,1.2,2.5c-0.3,2.1-1,4.2-1.7,6.3c-0.1,0.2-0.5,0.4-0.7,0.4c-5.6,1.3-11.3,2.6-17.5,4.1
	c0.4-1.5,0.7-2.4,0.7-3.3c0.1-0.8,0-1.7-0.4-2.3c-4.2-5.4-4.1-10.4,0.4-15.5c0.3-0.3,0.6-0.7,1.2-1.4c-4,0.6-6.2,2.7-7.4,6
	c-1.6,4.6-0.6,8.1,3.3,12c-0.2,4.2-2.5,6.1-6.6,6.7c-5,0.8-9.8,2.3-14.7,3.4c-2.9,0.7-4.8-0.3-4.4-3.3c0.6-4.6,0.4-9.1,0.6-13.6
	c0.1-2,1.9-3.9,2.9-5.6c-4.3,0.2-7.2,5.5-5,10.2c0.7,1.4,0.7,2.3-0.1,3.7c-1.9,3.3-1,6.5,1,9.9c-3.8,1-7.3,1.8-10.3,2.6
	c-1.8-7.6-3.3-15.1-5.2-22.5c-1.5-5.7-2.4-6.3-8.4-6.3c-5-0.1-9.6-1.2-14-3.6c-3.6-1.9-4.6-1.3-6.1,2.5c-2.8,7.2-5.6,14.3-8.8,21.3
	c-1.2,2.5-3.3,4.6-5.6,7.7c-1.9-3-3.8-5.1-4.8-7.7c-3.9-10.1-7.5-20.4-11.3-30.6c-0.9-2.5-1.8-5.1-3.1-7.4c-2.3-3.9-6-4.5-9.6-1.9
	c-1.3,0.9-2.5,1.8-4.5,3.3c-2.5-6.8-5.3-13-7.1-19.5c-11.1-39.8-1.1-74.2,27.3-103.6c1-1,2-1.9,2.9-3c2.7-3,5.4-4.6,10-3.8
	c6.9,1.3,11.2-3.2,12.1-11.3c0.3-3.1,0.6-6.1,1.3-9.1c0.3-1.7,1.2-3.2,2.2-5.5c4.1,3.8,7.8,7.2,9.3,12c1.3,4.5,1.7,9.3,2.3,14
	c0.4,2.7-1,4.8-3.1,6.4c-3.4,2.6-6.9,4.6-11.2,5c-1.3,0.1-2.5,0.8-4.1,1.3c2.9,3.5,6.4,4.1,9.9,4.5c2,0.2,4,0.2,5.9,0
	c2.3-0.2,3.1,0.8,3.2,2.8c0,0.5,0.2,1,0.1,1.5c-0.7,2.6-0.4,4.9,0.9,7.4c1.5,3,0.1,6.1-2.1,8.9c5.6-1.9,6.5-7.2,3-11.9
	c0.1-3.4,0.3-6.1,0.4-8.7C394,382.7,398.9,380.4,404.4,377.9z M586.1,400.9c2.1,4.6,6.6,7,11.9,6.8c5.7-0.2,10.6-3.2,12-7.7
	c0.7-2.4,1.8-3.2,4.3-3.2c6.4,0,11.3-3.9,12.7-10c0.8-3.5,0.8-7.1-2-10.6c0.6,11.9-5.6,17.5-16.1,16.9c-1.6,4.7-4.3,8.4-9.1,10.2
	C594.9,405.3,590.6,403.6,586.1,400.9z M574,375.1c1.8,4.5,4.5,7,8.4,8.3c6.1,2.1,11.7-0.1,15.9-6.1c0.8-1.2,1.3-2.4,3.4-1.9
	c7.3,1.6,13.9-2.8,15.7-10.1c0.8-3.2,0.4-5.6-1.4-8c-0.2,6.3-2.8,11.1-8.7,13.3c-2.3,0.9-5.1,0.5-7.6,0.9c-0.9,0.1-2.1,0.5-2.5,1.2
	C591.8,381,582.3,382.3,574,375.1z M593.1,418.7c2.5,8.8,14.5,12.2,20,5.7c3.1-3.7,5.8-4,10-4c7.8-0.1,13.3-9.3,10-16.1
	c-0.2,0.5-0.4,0.8-0.5,1.1c-1.5,8.3-7.2,12.2-15.6,11c-0.9-0.1-2.2,0.6-2.8,1.4c-2.1,3-4.7,5.1-8.3,5.8
	C601,424.7,597.1,422.6,593.1,418.7z M447.9,239.1c0.1,0.8,0.1,1.1,0.2,1.4c2.6,7.4,0.5,13.1-6.3,17.1c-0.6,0.3-1.1,1.1-1.2,1.7
	c-1.2,9.6-5.4,13.4-15.3,13c3.5,2.8,7.2,2.8,10.8,1.3c6-2.5,8.4-7.2,7.6-13.6c5.6-1.7,8.3-5.5,8.8-10.9
	C452.9,245.2,451.6,241.8,447.9,239.1z M550.3,447.7c4.8-3.3,6.3-7.7,4.8-13c-1.1-3.7-3.3-6.7-7.7-7.6c6.4,7.4,6.4,11.5,0.4,19
	c-0.5,0.7-0.6,2-0.4,2.9c1.9,6.7-1.1,12.6-7.6,15c-0.5,0.2-1,0.5-1.9,1C548.2,466.1,553.6,458.4,550.3,447.7z M565.7,427.4
	c6.3,5.9,7.1,11.5,3.1,18.5c-0.4,0.6-0.1,1.7,0.1,2.6c0.3,2.1,1.2,4.2,1.1,6.3c-0.1,5.2-3.3,8.4-7.6,10.9c4.2,0.1,7.5-1.6,9.7-5.1
	c2.8-4.6,2.5-9.2-0.7-13.6c3.8-3.6,4.4-7.9,2.7-12.6C572.9,430.7,570.4,428.1,565.7,427.4z M468.5,243.3c4.1,8.6,1.2,15.5-5.3,18.3
	c0.5,9.4-2.4,12.6-13.1,14.3c3.1,2.2,6.2,2.1,9.2,0.7c5.9-2.7,8.2-7.4,7-13.7c5-1.6,7-5.1,7.3-9.7
	C473.7,249.2,472.5,245.7,468.5,243.3z M507.4,273.5c0.2,0.4,0.3,0.9,0.5,1.3c2.2,6,0,11.8-5.7,14.9c-0.7,0.4-1.3,1.8-1.3,2.7
	c0,4.7-2.2,8-6.3,9.9c-2.1,1-4.4,1.3-6.5,1.8c2.5,1.8,5.9,2,9.5,0.2c5-2.5,7-6.6,6-12.3c5.3-1.3,7.6-5,8.1-9.9
	C512,278.6,511.1,275.4,507.4,273.5z M564.6,307.9c0.3,1.2,0.4,1.6,0.5,2.1c1.6,7.3-0.8,11.6-7.6,14.6c-0.6,0.3-1.1,1.4-1.2,2.2
	c-0.7,5.2-3.5,8.5-8.6,9.7c-1.6,0.4-3.4,0.4-5.5,0.7c3.4,2.4,6.6,2.5,9.9,1c4.9-2.1,7.5-5.9,7.2-11.4c5.4-0.7,8.1-4,9-8.8
	C568.9,314.4,568.1,311,564.6,307.9z M577.3,334.4c5.9-1,8.4-4.9,9.3-10c0.6-3.4-0.8-6.6-3.4-8c1.7,8.3-0.5,13.4-8.4,16
	c-1.1,8.7-3.5,10.6-14.7,12c3.5,2.5,7,2.5,10.5,1.1C575.5,343.5,577.7,339.8,577.3,334.4z M526.5,275.2c0.7,1.9,1.1,3.1,1.4,4.3
	c1.2,5-0.9,10.9-5,12.9c-1.6,0.8-1.8,1.6-1.7,3.2c0.2,6.1-2.9,10.1-8.9,11.6c-0.9,0.2-1.9,0.5-2.9,0.7c7.7,4.2,14.5-1.9,14.9-13.3
	c4.3-1.6,6.8-4.6,7.1-9.3C531.7,281.4,530.4,278.1,526.5,275.2z M606.9,458.2c3,2.6,5.9,2.6,9,1.2c4.9-2.2,7.5-5.9,6.7-11.6
	c5-1,7.4-4.2,7.9-8.9c0.3-3.2-0.2-6.2-3.2-8.7c0,0.8-0.1,1.1,0,1.3c2,5.4-0.5,12.3-6.2,14.3c-0.6,0.2-1.1,1.5-1.1,2.3
	c-0.6,5.1-3.2,8.7-7.5,9.6C610.8,458.2,609,458.1,606.9,458.2z M388.4,109.1c0.2-0.2,0.3-0.4,0.5-0.6c-4.9-6.1-5-11.2-0.2-16.9
	c-3.4-6.7-2.3-10.2,5.4-16.6c-7.6-0.3-12.5,7.4-9.6,14.6c0.3,0.8,0.3,2.3-0.2,3c-2.9,3.9-3.3,9-0.3,12.9
	C385.1,106.9,386.9,107.9,388.4,109.1z M347.6,87.9c-5.3,7.1-1.4,14.3,8.8,16.8c0.6,4.6,3.4,7.5,7.8,8.5c3.3,0.8,6.4,0.4,9.1-2.6
	c-8.9,1.1-12.3-0.9-15-8.5C349.8,100.7,348,98.4,347.6,87.9z M355,141.9c-3.7,6.7-8.6,8.4-15.4,5.7c-0.6-0.2-1.7,0-2.3,0.3
	c-6.6,4.1-10.7,3.5-15.7-2.6c-0.2-0.3-0.6-0.5-0.9-0.8c-0.9,6.7,9.4,11.7,16,7.2c1.6-1.1,2.7-1.1,4.4-0.3
	C347.7,154.4,355.2,149.5,355,141.9z M349.9,119.4c-3.6,0-7-1-8.6-4.1c-1.4-2.8-1.8-6.2-2.6-9.3c-2,2.3-2.3,5.2-1.4,8.3
	c1.6,5.2,5.3,7.7,10.6,7.8c0.3,4.7,2.9,7.1,7,8.3c3.4,0.9,6.6,0.9,9.6-1.8C354.3,128,351.9,126.5,349.9,119.4z M431.7,369.7
	c4.6,5.8,4.5,10.9,0.3,16.5c-0.4,0.6-0.2,1.7-0.3,2.6c-0.2,2.6,0.4,5.6-0.7,7.7c-1.3,2.6-4.1,4.4-6.2,6.5c2.7,0.3,5.3-0.5,7.5-2.8
	c2.7-2.7,3.9-6,2.8-9.8c-0.6-2-0.6-3.2,1-4.8C440.6,380.6,438.4,372.2,431.7,369.7z M612.4,496.3c-2.9-1.6-5.4-0.8-7.7,0.5
	c-5,2.9-5.7,7.5-4.6,12.5c-4.4,2.2-5.9,5.8-5.6,10.2c0.2,3.1,1.3,5.9,4.5,7.4c0-0.4,0.1-0.6,0-0.7c-2.9-6.6-2.1-10.2,3.2-15.3
	c0.4-0.3,0.6-1,0.6-1.5C602.5,501.6,604.8,498.3,612.4,496.3z M402.7,87.1c-3.6,3.6-4.1,7.8-2.4,12.2c1,2.8,3,4.7,6.5,5.2
	c-5.1-5.6-5.5-9.9-2.1-15.9c0.4-0.7,0.4-1.8,0.1-2.6c-2-5.6,0-10.8,5.1-13.6c0.5-0.2,0.9-0.6,1.5-1.1
	C402.8,71.4,398.7,79,402.7,87.1z M333.2,167.5c1.2,4.3,3.9,5.8,7.3,6.3c4.6,0.8,8.3-0.6,10.9-4.8c4.4,1.9,8.2,1,11.4-2.3
	c2.4-2.5,2.9-4.8,1.8-7.9c-3.4,7.5-6,8.8-14.4,7.6C345.6,172.3,339.7,172.8,333.2,167.5z M480.6,430.5c5.8,3.3,11.7-1.7,12.2-11.1
	c4.2-2,6.7-5.3,6.6-10c0-2.6-0.8-5-3.6-6.2c-0.1,0.4-0.1,0.6-0.1,0.7c2,6.7,1.1,9.3-4.5,13.4c-0.7,0.5-0.8,1.8-1.1,2.7
	c-0.8,2.2-0.9,4.9-2.4,6.4C485.7,428.4,482.8,429.3,480.6,430.5z M514,414.2c2.1,4,2.6,7.5,0.7,10.6c-1.3,2.1-4,3.3-5.2,5.4
	c-1.2,2.1-0.7,5.1-1.8,7.3c-1.8,3.3-5.1,4.7-9.1,4.6c0.5,0.5,1,0.8,1.5,1c6.1,1.6,11.8-2.9,11.6-9.1c0-1.8,0.4-2.7,2-3.6
	C519.6,427.1,520,418.7,514,414.2z M584.1,581.2c4.7,1,8.1,3.1,8.6,7.6c0.4,3.4,0.6,6.6,3.6,8.9c0.7,0.5,0.8,1.8,1.1,2.7
	c1.2,3.5,0.2,6.7-1.7,10.1c6.9-3.2,6.6-12-0.2-17.4c0.8-5.2,0-8.2-3.2-10.7C590,580.7,587.5,579.8,584.1,581.2z M637.2,553.3
	c1-6.9-4.7-12.3-11.1-10.8c-2,0.5-3.1,0.2-4.5-1.3c-4.3-4.3-12.3-2.7-14.3,2.9c3.2-2.5,7.2-3.5,10.2-1.8c4,2.2,8,2.9,12.3,3.3
	C633.7,546,635.6,549.5,637.2,553.3z M453.6,381c3.9,7.1,3.7,10.8-1,16c2.8,7,0,11.6-6.9,14.8c8.5,0.5,12.6-6.1,9.7-14.5
	C461.1,392,460.4,383.7,453.6,381z M634.2,577.7c1.3-2.9,1.3-5.4,0-7.7c-2.5-4.6-6.7-5.8-11.6-5.2c-1.8-4.3-5.2-6.1-9.5-6.1
	c-3,0-5,1.3-6.1,3.6c5.9-2.1,10.7-1.2,14.2,4.3c0.2,0.4,1,0.5,1.5,0.6C630.5,567.8,632.3,569.4,634.2,577.7z M362,479.1
	c-3.1-6.6-11.3-8.3-15.1-3.4c-1.3,1.6-2.1,1.9-4.1,1.4c-3.6-0.9-6.7,0.5-9,3.3c-1.7,2-2.7,4.3-1.4,7.2c2.7-7.1,6.1-8.9,13.7-7.4
	C351.3,474.7,354.4,474.4,362,479.1z M353,457.9c0,0.1-0.1-0.4-0.3-0.8c-3.2-4.5-10.5-5-14.3-0.8c-1.1,1.3-1.9,1.6-3.7,1.2
	c-4-1.1-8.4,1.1-10.2,4.8c-0.7,1.5-0.8,3.3-1.1,4.8c2.4-2.3,4.3-5,6.9-6.3c2-1,5.1,0.2,7.4-0.5c2.3-0.7,4.2-3.3,6.5-3.6
	C347,456.3,350,457.4,353,457.9z M360.6,414.3c1.7-3.3,0.9-5.9-1.1-8.3c-2.7-3.3-6.3-4.2-10.6-2.9c-1.8-4.3-5.2-5.9-9.6-5.3
	c-2.5,0.3-4.8,1.4-6.2,4.3c7.3-3.1,10.4-2.3,14.9,3.4C354.7,404.2,358.8,407,360.6,414.3z M355.9,435.1c1.6-3.6,1-6.3-0.8-8.7
	c-2.6-3.4-6.1-4.4-10.3-3.1c-1.8-4.4-5.3-5.6-9.6-5.4c-3.3,0.2-5.1,1.4-6.1,3.9c6.2-2.7,8.8-2.1,14,3.1c0.3,0.3,1,0.4,1.5,0.4
	C351.7,425.3,354.6,427.7,355.9,435.1z M584.1,467.6c5.9,0.8,10.5-4.3,9.3-9.9c-0.5-2-0.3-3.2,1.3-4.8c3.9-3.9,2.4-11.1-2.4-12.5
	c2.3,4.7,2.9,9.2-1.4,13.2c-0.3,0.3-0.5,0.9-0.4,1.3C591.9,460.8,590,465.1,584.1,467.6z M530.7,428.6c2.2,5.1,1.6,9.5-2.9,13
	c-0.4,0.3-0.6,1-0.7,1.5c-0.4,6.2-1.7,7.9-7.3,9.9c5.5,2.4,9.9-2.2,9.7-10.1C535.4,439,536.1,431.6,530.7,428.6z M474.2,393.6
	c0,2.7,0.8,5.5-0.2,7.4c-2.1,3.9-4.6,7.5-5.3,12.1c-0.1,0.9-1.5,1.8-2.4,2.5c-1.2,0.8-2.6,1.2-4,1.8c5.7,2.2,10.4-2.7,9.9-10.1
	C477.7,403.8,478.7,397.7,474.2,393.6z M535.5,312.2c0.4,6.4-3.6,8.6-9.3,9.5c5.3,1.9,10.4-0.5,11.2-5.2c0.3-1.9,0.8-2.9,2.8-3.8
	c4.5-2.1,5.4-9.3,1.9-11.6C542.4,308,541.2,310.2,535.5,312.2z M471.7,290c3.8,1.9,9.4-0.8,10.3-5.9c0.3-1.8,0.9-2.8,2.7-3.7
	c4.6-2.1,5.6-8.6,1.9-11.4c0.6,4.9-0.3,9-5.6,10.9c-0.5,0.2-0.7,1.3-0.9,2c-0.4,1.2-0.4,2.9-1.2,3.5
	C476.6,287.1,474,288.5,471.7,290z M575.3,358.4c3.1,3.3,8.8,3.7,11.7-0.1c1.7-2.3,3.6-2.9,6.2-3.4c4.6-1,6.8-6,4.5-9.9
	c-0.4,3.7-1.6,7-5.5,7.7c-2.8,0.5-5.1,1-6.4,3.9c-0.4,0.9-2,1.7-3.2,1.9C580.1,358.6,577.6,358.4,575.3,358.4z M426.8,73.9
	c-6.3,0.6-8.7,5.6-6,11.8c-2.9,2.6-3.5,5.9-2.1,9.4c0.7,1.7,1.6,3.3,4.1,3.2c-3.1-3.9-3.2-7.7-0.5-11.7c0.3-0.4,0.6-1.2,0.4-1.6
	C420.9,80.3,422.6,76.7,426.8,73.9z M441.6,80.1c-6.5,1-9,4.8-7.5,10.2c0.3,1-0.1,2.4-0.6,3.3c-2.6,4.2-1,10.2,3.1,11.1
	c-2.1-3.7-3.2-7.5,0-11.3c0.3-0.3,0.4-1.1,0.2-1.6C434.9,86.9,436.7,83.2,441.6,80.1z M374.8,72.3c-5.5,1.2-8,5.5-6.1,10.1
	c0.7,1.7,0.7,2.8-0.2,4.5c-2.3,4.3,0.2,9.9,4.7,10.3c-3.4-3.3-4-6.9-1.8-11c0.3-0.5,0.4-1.4,0.2-1.9
	C369.4,79.7,370.8,75.9,374.8,72.3z M619.7,598.9c2.5-3.1,1.9-7.9-2.2-10.5c-1.8-1.2-2.9-2.3-3.4-4.6c-0.8-3.9-5.7-5.9-8.8-4.4
	c1.7,1.1,4.3,1.9,5.4,3.6c1.9,2.8,3.5,5.6,6.2,8C618.8,592.6,618.9,596.3,619.7,598.9z M333.6,131.9c2.8,5.7,9,7.2,12.8,3.1
	c-4.7,1.1-8.5,0.1-11.1-4.2c-0.3-0.5-1.3-0.7-1.9-0.8c-3.9-0.3-6.3-2.5-7.6-6.1c-0.3-0.6-0.5-1.3-1-2.4
	C323.6,128.3,326.9,132,333.6,131.9z M612.8,529.3c0.5-3.8,1.7-6.7,5-7.4c3.2-0.7,5.6-2.1,8.3-3.8c2.3-1.4,5.7-0.9,8.3-1.3
	c-2.2-3.1-8.3-3.3-11.2,0.5c-1.2,1.6-2.4,1.9-4.1,1.9C614.2,519.4,611.1,523.9,612.8,529.3z M564.6,490.1c-5.4-0.7-9.4,2.7-9.1,7.2
	c0.1,1.8-0.2,2.9-1.6,4.2c-3.4,3-3,8.6,0.8,11.5c-1.7-4.7-1.1-8.8,2.6-12c0.2-0.2,0.4-0.7,0.4-1
	C557.1,495.1,559.5,492.1,564.6,490.1z M575.5,514.4c-1.5-3.8-1.6-7.1,0.7-9.7c1.6-1.9,2.4-3.7,2.5-6.4c0.1-3.6,3.1-5.5,6.8-6.8
	c-5.1-0.9-9.4,2.6-9.1,7.2c0.1,1.8-0.1,2.9-1.7,4.1C571.3,505.5,571.5,511.1,575.5,514.4z M333.3,184.8c2.1,5.7,8.4,7.6,12.6,4.2
	c1.2-1,1.9-1,3.3-0.5c5,1.7,9.8-1.7,9.7-6.9c-2.7,4.6-6.4,5.9-11.2,4.4c-0.4-0.1-1.1,0.1-1.6,0.3
	C340.9,189.4,338.5,189.1,333.3,184.8z M349.6,507.6c1.1-1.6,1.9-4.2,3.7-5.3c3.4-2,7.1-3.3,10.1-6.2c1.1-1.1,3.7-0.7,5.6-0.9
	c0.6-0.1,1.2,0.1,2.1,0.2c-4.3-4.3-9.9-2.8-13.3,3.1C351.4,498.5,347.8,502.8,349.6,507.6z M349.5,441.3c-1.7-4.9-7.2-6.7-11.2-3.9
	c-1.4,1-2.2,1.1-3.9,0.5c-4.4-1.7-9.5,2.1-9,6.3c2.8-3.9,5.4-4.8,10.2-3.9c0.7,0.1,1.6,0.1,2.1-0.2
	C342.4,437.7,345,437.9,349.5,441.3z M450.2,106.6c-0.1-2.2-1-4.9-0.2-6.9c1.2-3.2,2.2-6.3,2.8-9.8c0.3-2.2,2.8-4.1,4.2-5.9
	c-4.9-0.4-7.9,4.3-6.3,10.7C446.1,98.4,446.1,104.5,450.2,106.6z M361.8,389.2c-2.6-6.2-8.2-8.2-12-4.2c4.6-0.9,8.2,0.1,9.9,4.8
	c0.1,0.4,0.7,0.9,1,0.9c5.1,0.5,7.4,3.6,7.9,8.7C371.4,394.3,368.3,389.7,361.8,389.2z M470.6,113.1c-2.7-2.3-3.7-5-2.5-8.5
	c0.2-0.5,0-1.2-0.2-1.6c-2.4-3.3-2.1-6.3,1.1-9.3c-4.4,1.4-5.6,5.4-3.3,9.1c0.4,0.7,0.7,1.8,0.5,2.5
	C464.9,109.2,466.4,112,470.6,113.1z M487.6,102.2c-3.8,0.8-5.5,3.4-5.1,6.6c0.2,1.3-0.1,2.8-0.6,4c-1.2,2.9-0.5,5.4,2.5,7.2
	c-1.3-3-1.9-5.8,0.2-8.3c0.2-0.2,0.3-0.8,0.1-1.1C483.5,107.2,484.7,104.5,487.6,102.2z M485.1,135.1c3.2,2.8,6.7,5.4,9.6,8.4
	c4.4,4.7,8.5,9.7,12.7,14.6c5.9,6.8,12.1,13.2,20.4,17c3.5,1.6,7.2,2.6,11.9,1.9c-13.4-7.8-22.8-18.5-28.6-32.6c2.1,2,3.9,4,5.9,5.6
	c2,1.6,4.2,2.8,6.5,4.3c1.9-3.9-1.1-5.6-2.4-8.4c2.3,1.6,4.1,2.9,6.6,4.6c-0.2-1.7-0.4-2.7-0.6-4.3c3,3.2,5.5,6.1,8.3,8.6
	c2.6,2.3,5.4,4.3,8.3,6.2c0.9,0.6,2.2,0.8,3.4,0.8c3,0,4.3-2.2,2.3-4.5c-2.2-2.5-4.6-5-7.4-6.8c-5.6-3.7-11.6-6.9-17.4-10.3
	c-0.8-0.5-1.6-1-3-1.9c2.3-0.2,4-0.4,6.6-0.7c-10.5-5.3-17.4-12.5-19.3-23.5c-0.8-4.2-0.5-8.6,1.1-12.2c2,5.2,3.5,10.9,6.3,15.9
	c5.6,10.1,14.4,15.6,26.1,15.9c2.1,0,5.1,0.2,5.4-2.4c0.1-1.5-1.9-4.1-3.6-4.7c-4.8-1.8-9.8-3.1-14.8-4.2c-2.6-0.6-4.6-0.9-5.2-4.3
	c-2.5-13.1-9.6-24-18.3-33.9c-3.6-4.1-7.4-8-11.5-12.4c21.3,7.6,32.5,25.6,45.9,42.2c-0.5-7.1-3.7-12.2-5.5-18.1
	c2.5,2.8,4.9,5.7,7.5,8.4c3.5,3.6,7.2,7.1,10.9,10.5c1,0.9,2.5,1.3,4.2,2.2c0.4-4.4-1.1-7.6-3.1-10.5c-4.3-6.5-8.7-13-13.4-19.3
	c-5.9-8-12.1-15.7-18.7-24.2c20.2,12.8,37.2,28.6,54.6,44c2.2-4.5,0.1-9.7-8.4-22c0.9,0.4,1.5,0.6,1.9,0.9c5.1,4.4,10.5,8.6,15,13.5
	c3.1,3.3,5.3,7.6,7.1,11.8c1.7,3.8,4,6.2,8.1,7c2.1,0.4,4.3,0.8,6.4,1.3c4.8,1,8.7,3,12.1,6.8c2.4,2.7,6.1,4.2,9.3,6.1
	c1.7,1.1,3.7,1.8,5.3,3c3.2,2.4,6.1,1.7,7.2-2.3c0.5-1.6,0.5-3.3,0.4-5c0-1.7-0.4-3.3-0.8-5.5c4.5,5.8,8.6,11.2,8.5,18.6
	c0,2.8-0.9,4.9-3.1,6.7c-1.2,1-1.9,2.6-2.8,3.9c1.4,0.9,2.8,1.9,4.2,2.8c2.3,1.3,4.7,2.4,6.9,3.9c3.1,2.1,4.4,2.4,7-0.3
	c2.6-2.7,5.4-3,8.6-1.8c1.3,0.5,2.6,0.9,4,1.1c2.8,0.5,5-0.4,6-3.1c3.5-9.6,18.2-8.8,23.6-3c0.3,0.4,0.6,0.8,1,1.1
	c1.3,0.9,2.7,1.7,4,2.6c0.5-1.7,1-3.3,1.5-5c0.1-0.5,0-1.1,0-1.7c0.3-0.1,0.6-0.2,1-0.3c0.8,2.6,1.6,5.2,2.5,8.2
	c3.1,0,5.5-1.6,7.2-4.4c5.3-8.8-0.4-19.7-10.6-19.6c-4.7,0.1-9.5,1.4-14.2,2.7c-5.6,1.6-10.9,4.2-16.6,5.5
	c-13.6,3.1-22.6-1.9-27.8-14.9c-0.8-2-1.6-4.1-2.3-6.1c-2.2-7-7.4-10-14.3-10.4c-5.7-0.3-11.2,0.8-16.5,3c-4.9,2-9.1,0.8-12.4-3.6
	c0.6,0.1,1.1,0.1,1.6,0.3c4.3,2,8.2,0.8,12.2-1c4.3-1.9,8.7-3.9,13.3-4.7c12.1-2.3,20.5,3.7,24.9,14.8c0.4,1,0.7,2.1,1,3.1
	c2.9,10.9,9.6,13.3,19.7,11.5c5.1-0.9,9.9-3.3,14.7-5.3c5.7-2.4,11.4-4.7,17.8-3.6c18,3.2,22.6,22.9,13.8,36.1
	c-1.7,2.6-4.1,4.8-6.2,7.3c4.5,3.6,10.3,5.9,12.5,12.4c-5-2.1-8.4-7.7-15-6.2c2.2,3.7,4.1,6.8,6,10c-0.2,0.1-0.4,0.2-0.7,0.3
	c-1.9-1.2-3.8-2.4-6.2-3.8c0.5,5.8,1,10.8,1.4,15.7c-0.4,0.1-0.7,0.2-1.1,0.3c-1-1.8-2-3.7-3.1-5.5c-1.1-1.7-2.3-3.5-3.8-4.9
	c-2-1.9-4.1-1.4-5.1,1.3c-0.6,1.6-0.9,3.4-1.1,5.2c-0.7,6.5-2.7,12.5-7.4,18.3c-0.3-4.8-0.3-8.8-0.7-12.7c-0.5-5-2.6-6.3-6.9-4.1
	c-5.2,2.7-9.9,1.8-14.7-0.8c-1.2-0.7-2.4-1.4-3.6-2c-2.9-1.3-4.9-0.2-4.7,3c0.2,2.8,1.4,5.6,2.4,9c-2.3-1.8-4.5-3.3-6.4-5.2
	c-3.5-3.6-6.8-7.3-12.1-8.1c-2-0.3-4.2-0.6-6.2-0.2c-9,1.4-17.8,0.8-26.6-3.3c0.2,1,0.3,1.6,0.5,2.2c2.7,6.5,7.6,10.6,14.1,12.8
	c1.8,0.6,3.9,0.1,5.9,0c7.5-0.5,14.5,0.5,20.1,6c1.6,1.6,2.6,3.8,3.3,6.2c-2.8-1.1-5.5-2.4-8.4-3.2c-2.7-0.8-5.8-1.5-7.9,1.4
	c-1.5,2.1-0.9,5.5,2,8c5.9,5,8,11.6,9,18.8c0.3,2,1,4,1.7,6.2c5.4-2.2,7.6-6,7.7-11.3c2.2,3.8,2.5,8.1,1.6,12.2
	c-1.2,5.3-1.8,10.2-0.1,15.5c0.7,2-0.3,4.6-0.6,7c-0.2-0.1-0.5-0.1-0.7-0.2c-0.8-1.9-1.7-3.9-2.5-5.8c-0.4,0-0.7,0-1.1,0
	c-0.9,1.7-2,3.2-2.8,5c-2.3,5.3-6.4,8.4-12,10.1c1.9-3,3.6-5.7,5.3-8.4c-0.3-0.3-0.5-0.5-0.8-0.8c-5.4,3.5-11.3,5.4-18.2,5.6
	c1.8-1.9,3.3-3.5,5.5-5.9c-5.9-0.8-12.1,0.9-15.9-4.9c2.8,0.2,5.2,0.6,7.6,0.5c4.6-0.2,7-2.6,7.2-7.1c0.2-4.1-1.2-7.7-4.5-11.5
	c-1.3,3.2-2.4,6-3.5,8.7c-0.2-0.1-0.3-0.1-0.5-0.2c-0.2-3.8-0.2-7.6-0.7-11.3c-2.2-14.8-14.3-27.8-28.8-31.1
	c-2.3-0.5-4.7-0.5-7.1-0.4c-3.8,0.2-5,2.8-2.8,5.9c0.6,0.9,1.3,1.7,2,2.6c-0.2,0.2-0.3,0.5-0.5,0.7c-2.2-1.4-4.4-2.6-6.4-4.2
	c-3-2.4-5.8-5.1-8.8-7.6c-1.1-1-2.4-1.8-3.7-2.5c-2.5-1.4-5.2-2.3-7.8-0.2c-2.5,2.1-3.2,4.9-2.8,8c0.1,1,0.4,2.1,0.7,3.7
	c-7.6-5.7-7.2-12.5-4.3-19.7c-6.3-1.5-11.4,3.2-14.1,12.6c-2-2.2-3.4-7.7-1.8-11.3c1.6-3.6,4.2-6.8,6.7-10.7
	c-1.7-0.1-2.9-0.4-4.1-0.2c-12.7,1.9-22.9-2.9-30.6-12.7c-4.1-5.2-7.4-11-10.8-16.7c-4.9-8.2-10.1-16.1-18-21.8
	C484.7,135.6,484.9,135.4,485.1,135.1z M585.9,170.9c-5.4,3.7-7.2,6.7-6.2,11.4c0.6,2.7,1.4,5.4,2.8,7.7
	c5.9,9.5,14.6,15.5,25.4,18.2c6.3,1.6,12.4,3.4,17.6,7.5c7.7,6.1,12.2,14.2,15.4,23.2c0.7,1.9,1.3,3.9,2,5.9c0.3-2,0.1-3.8-0.1-5.7
	c-2.4-16.2-10.4-27.8-26.3-33.6c-6.4-2.3-12.5-5.5-18.3-9c-3.5-2.1-6.7-5.3-9.2-8.7c-4.4-6.1-2.2-11.3,5.2-13
	c6.4-1.5,12.4,0.2,18.3,2.2c3.5,1.2,6.9,2.5,11,4c-0.7-0.8-0.8-1.1-1-1.2c-12.2-8.8-25.2-15.3-41-13.5c-4.5,0.5-9.2,0.1-14.3,0.1
	C571,169.1,575,170.1,585.9,170.9z M612.5,145.3c-5.5,2.6-7.7,6.2-6.3,10.7c1.2,4.1,4.9,6.1,9.1,5.2c4.5-1,6.3-5,5.2-12.3
	c3,2.4,5.7,4.5,8.4,6.7c-0.3-2-1-3.8-2-5.3c-4.8-6.9-12.1-9.1-19.9-9.4c-7.2-0.3-14.5-0.1-21.7-0.1c2.1,1.5,4.5,2.7,7,3
	c4,0.5,8.1,0.2,12.2,0.5C607.1,144.4,609.8,144.9,612.5,145.3z M678.5,177.7c1.8,1.5,3.8,3.1,5.7,4.8c1,0.9,1.8,2.2,2.9,2.9
	c2,1.3,4.3,1.3,5.9-0.7c1.6-2,0.6-4-1-5.5C688.7,176,681.9,175.6,678.5,177.7z M265.7,123.6c0.3,1,0.7,2.1,1.1,3.1
	c3.9,10.2,4.5,20.4,0.7,30.8c-3.3,8.9-3.9,18.2-2.4,27.6c1.6,10.4,5,20,12.5,27.7c7.3,7.5,15.6,12.8,26.7,12.3
	c6.8-0.3,13.7-0.4,20.5-0.2c3.2,0.1,6.3,1,9.4,1.6c0,0.3-0.1,0.7-0.1,1c-12.7,5.4-25.7,4.9-38.9,1.5c0.1,0.4,0.1,0.7,0.2,0.8
	c0.2,0.3,0.5,0.6,0.8,0.9c7.7,7.2,16.7,10.3,27.3,8.7c3.2-0.5,6.5-0.8,9.8-0.7c1.3,0,2.5,1.5,3.8,2.3c-1,1-1.8,2.4-3,2.9
	c-2.3,1-4.8,1.4-7.3,2.1c0,0.3,0,0.6,0,0.9c3.1,0.1,6.3,0.9,9.2,0.1c5.1-1.4,10.1-3.3,14.9-5.6c5.8-2.8,11.2-6.4,16.9-9.3
	c6.5-3.2,13-2.3,18.3,2.4c8.4,7.6,12.3,17.3,11.9,28.7c-0.1,1.4-0.9,2.8-1.4,4.2c-0.4,0-0.8,0-1.1,0c-0.8-2.1-1.6-4.1-2.3-6.2
	c-2.1-6.2-5.4-11.7-11.1-14.9c-7.4-4.1-15.3-4.6-23.2-1.1c-3.1,1.4-6.2,2.6-9.1,4.3c-20.5,11.7-39.6,6.2-53.2-9.4
	c-1.3-1.5-2.5-3-3.7-4.4c-0.3,0.1-0.6,0.2-0.9,0.3c0.9,5.3,1.8,10.5,2.7,15.9c-8.7-3.8-13.5-10.7-16.8-19.1
	c-0.4,10.2,4.5,18.1,11,25.7c-6.3,1.2-10.7-1.4-15.1-5.9c2.1,9.7,9.4,13.4,16.7,17.6c-5.1,1.6-9.4-0.4-13.9-1c0.2,0.5,0.3,0.8,0.5,1
	c0.2,0.3,0.4,0.7,0.7,1c7.4,7.2,15.5,13.3,26,14.4c8.5,0.9,15.4,4,19.8,11.7c1.3,2.2,3,4.2,4.7,6.2c3.8,4.7,8.1,8.7,14.3,10.1
	c1.6,0.4,3,1.6,4.5,2.4c-10.1,4.4-18.7,0.1-27.5-3.6c1.7,2.8,3.4,5.4,5.5,7.6c6.1,6.4,13.1,9.8,22.1,6.5c3-1.1,5.4,0.1,6.9,2.6
	c3,4.8,4.7,10,4.2,15.8c-0.1,1-0.5,2-0.9,3.1c-0.9-0.3-1.6-0.4-2-0.7c-3.6-2.7-6.9-2.2-10.2,0.6c-2,1.7-3.8,1.1-5.5-0.7
	c-4.7-5.1-9.6-10.1-10.4-17.8c-1,1.3-1.9,2.7-2,4.1c-0.5,7.5,1.3,14.4,5.6,20.5c2.1,3,5.1,4.4,8.9,4.5c2.6,0.1,5.2,0.8,7.8,1.6
	c2.1,0.6,4,1.8,6,2.5c6.3,2.2,10.3,0.2,12-6.2c0.9-3.3,1.2-6.8,1.9-10.2c1.1-5.1,3-9.8,7.9-13.1c0.7,1.7,1,3.3,1.8,4.6
	c1.5,2.6,2.9,5.6,5.1,7.5c2.1,1.8,3.5,3.6,4,6.2c0.4,2.2,0.8,4.5,1.1,6.7c0.3,2.9,0.5,5.8,0.8,8.9c2.8-1.9,5.1-3.5,7.5-5.1
	c0.2,0.3,0.5,0.6,0.7,0.9c-2.6,10.7-12.2,13.9-21.4,18.3c9.9,1.8,17.8-0.7,24.1-7.7c3.1-3.4,5.6-7.5,5-12.3c-0.7-5.7,0-11,1.5-16.4
	c1.3-4.9,0.3-6.6-4.7-8.1c-0.5-0.1-1-0.3-1.4-0.4c-9.3-2.4-12.7-10.1-16.6-17.5c4.7-0.8,9.1-1,13.2-2.3c4.2-1.3,8.1-3.5,12.1-5.2
	c1.3,7.5,3.2,9.5,8.2,8.7c-0.5-2.9,0.6-5.1,2.2-6.5c2,3.7,3.6,7.5,5.8,10.7c3,4.4,6.3,8.7,5.6,15c4.5-3.4,4.2-7.7,3.5-11.7
	c-0.8-4.8-2.4-9.4-3.7-14c-0.5-1.7-1.6-3.6-1.2-5.1c1-4.5-1.3-7.6-3.8-10.7c-1.4-1.9-2.8-2.2-4.6-0.6c-3.1,2.6-6.8,3.1-10.7,2.5
	c-5.2-0.8-9.9-2.4-13.2-7.1c-2-3-4.3-2.9-6.6-0.2c-1.5,1.7-2.6,3.7-4,5.6c-9.6,13.8-24.5,16-37.1,5c-5.5-4.8-10.4-10.3-15.2-15.9
	c-3.6-4.3-6.5-9.3-7.1-15.2c-0.2-2.3-0.8-5.4,1.7-6.3c1.4-0.5,4,1.3,5.4,2.6c3.7,3.6,6.9,7.6,10.4,11.4c3.9,4.2,8.4,7.2,14.2,8.1
	c12.7,2,24.9,0.4,36.8-4.3c7.4-2.9,14.2-6.7,19.2-13.1c8-10.3,8.4-28.1,1.2-40.2c-2.7-4.5-6.7-7.3-11.8-10.3c3,6.9,8.2,12.2,7.3,20
	c-3.9-1.3-6.1-4-8.1-7c-3.5-5.1-6.7-10.6-10.7-15.3c-6.2-7.4-14.1-12.2-24.2-12.7c2,1.4,4.2,2.5,6.1,3.9c1.9,1.4,3.7,3,5.1,4.9
	c1.6,2.1,1.1,3.3-1.6,3.5c-2.3,0.2-4.8-0.1-7-0.7c-12.2-3.2-24.5-5.7-37.2-5.2c-5.4,0.2-11-0.4-16.2-1.7
	c-12.4-3.1-24.1-7.7-29.9-20.6c0-0.1-0.3-0.1-0.6-0.1c-0.2,4.7,0.7,9.2,4.1,12.6c1.9,1.9,4.6,3,6.8,4.8c1.7,1.4,3.3,3.1,4.4,4.9
	c1,1.6,0.1,3.2-1.9,2.7c-3.4-0.8-7.2-1.4-10-3.3c-13.9-9.4-25.5-25.2-19.2-47.7c2.3-8.3,4.5-16.7,2.8-25.5
	c-1.1-5.9-3.1-11.2-9.1-14.3C265.7,123.5,265.7,123.6,265.7,123.6z M467.6,207.8c-6.4-4.1-13.5-4.9-20.9-4.5
	c-5.3,0.4-10.7,1.1-16,1.4c-2,0.1-4-0.6-6.7-1.1c4.8-5.1,10.7-3.8,15.7-5.4c-5.2-4.5-19.5-10.1-26.9-10.9c-2.6-0.3-5.3-0.6-7.9-1.4
	c-1-0.3-2.3-2-2.3-3c0-1,1.4-2.4,2.5-2.9c1.2-0.5,2.8-0.1,4.2-0.1c-1.2-7.4-7.8-13.9-15.6-15.2c-2.9-0.5-5.8-1.1-8.7-2
	c-0.8-0.2-1.7-1.3-1.7-2.1c0-0.7,0.9-1.9,1.7-2.1c2.2-0.6,4.6-1.3,6.9-1.2c2.9,0.1,5.7,0.9,8.9,1.4c-0.2-1.2-0.3-2-0.5-2.7
	c-1.8-6.1-6-9.8-11.7-12.2c-1.9-0.8-3.8-1.7-5.4-3c-1.7-1.3-1.1-2.9,0.7-3.7c1-0.4,2.4-0.6,3.5-0.3c3.1,0.9,6,2.2,9,3.3
	c1.8-4,0.8-7.1-3.1-9.6c-1.8-1.1-3.5-2.4-5.2-3.6c2-3.1,4.6-2.3,7-2.5c2-0.1,4.5,0.1,5.9-1c4.2-3.3,8-7.1,12-10.8
	c-8.1,0.6-16.1,2-23.6,5.2c-16,7-22.7,20.7-18.1,37.6c3.2,11.7,9.6,21.5,17.7,30.2c15.4,16.7,34.1,28.3,55.3,36
	c38.1,13.8,74,31.9,107.4,54.9c23.6,16.3,46.3,33.5,65.4,55.1c13.6,15.3,24.5,32.1,30.7,51.8c4.3,13.9,6.1,28.1,3.7,42.6
	c-2.6,16-9.9,29.6-21.3,41c-3.8,3.8-7.8,7.3-11.9,11.1c8.8,4,15.8-0.9,23.6-3.9c-4.9-1.1-4.9-1.1-5.7-3.2
	c20.3-1.6,32.9-13.3,41.5-31.1c-7.6,1-14.9,5.3-22-0.8c1.8-0.9,3.6-1.4,5.4-1.7c2.7-0.5,5.6-0.5,8.1-1.4
	c12.8-4.6,21.2-19.9,19.1-34.7c-2.5,0.6-5,1.3-7.5,1.9c-2.5,0.6-4.9,1.6-7.5,1.9c-3.2,0.3-6.5,0.3-9.7,0c-1-0.1-1.8-1.8-2.6-2.7
	c0.9-0.8,1.6-1.8,2.7-2.4c1-0.5,2.3-0.5,3.5-0.7c4.3-0.6,8.7-0.9,12.9-1.9c5.4-1.3,7.8-5.5,6.9-11.1c-2.2-13.2-9-24.2-16.6-34.8
	c-0.7-1-2.9-1.4-4.4-1.4c-3.9,0.1-7.8,1-11.7,0.9c-5.7-0.1-10.6-3.2-12.5-7.1c7.6,2.6,15.1,3.9,22.8,0.3
	c-4.4-9.3-10.8-16.5-18.3-22.9c-3.1-2.6-6.6-2.8-10.3-2.4c-4.2,0.4-8.5,0.8-12.8,0.5c-3-0.3-6.1-1.5-8.9-2.8
	c-1.2-0.5-1.8-2.3-2.7-3.6c1.3-0.8,2.5-2.2,3.9-2.3c3-0.3,6.1-0.3,9.2,0.1c4.1,0.5,8.1,1.5,12.4,2.3c-7.2-13.1-27.3-22.3-41.8-19.5
	c-2.3,0.5-4.7,0.7-7.1,0.7c-0.8,0-1.9-1-2.2-1.9c-0.2-0.5,0.7-1.9,1.4-2.2c1.9-0.8,3.9-1.7,5.9-1.8c5-0.3,10-0.1,15.8-0.1
	c-2-2.3-3.4-4.2-5.1-5.6c-9.9-8.4-21.5-10.9-34.1-10c-3.2,0.2-6.3,0.8-9.5,0.8c-1.9,0-3.8-1.1-6.3-1.9c5.1-5.4,10.9-3.4,16.6-3.9
	c-2.3-3.8-5.2-6.4-8.6-8.5c-8.6-5-17.6-5.1-27-2.9c-2.6,0.6-5.5,0.6-8.1,0.2c-2.3-0.4-2.6-2.4-0.5-3.4c2.8-1.4,5.9-2.1,8.9-2.8
	c1.7-0.4,3.5-0.4,5.3-0.5c0.1-0.4,0.2-0.8,0.3-1.1c-4.4-2.4-8.6-5.2-13.2-7.2c-10-4.4-20.5-3.7-31-2.1c-2.6,0.4-4.9,0.3-7-1.8
	c4.9-4.2,11.2-2.8,17.4-4.8c-3.9-2.1-7-4.1-10.3-5.5c-9.9-4.4-20-7.4-31.1-6.2c-3,0.3-6.1,0.6-8.6-1.8c2.9-3.9,6.3-4.5,16.7-3.1
	C472.9,212.4,470.6,209.8,467.6,207.8z M518.9,684c20.3,3.9,36.6,14,49.1,31c0-1.2,0.1-2.7,0-4.1c-0.9-10.3-8.6-16-15.9-22.9
	c7.4,1.1,13.8,2.8,19.4,6.5c5.9,3.9,9.6,9.1,8.7,16.4c-1,7.8-5.1,13.4-12.8,15.9c-5.5,1.8-11.1,1.9-16.7,0.9
	c-6.3-1.1-11.6-4.4-16.9-7.8c-6.8-4.5-14.1-8.1-22.1-10c-4.8-1.2-9.6-1.6-14.4-0.3c2.5,1.1,5.1,1.7,7.6,2.6
	c10.7,3.6,19.8,9.9,28.5,16.9c2.4,1.9,4.8,3.8,7.3,5.6c11,8,22.6,7.8,33.5-0.3c1.7-1.3,3.4-2.6,5.1-4c0.2,0.3,0.4,0.6,0.6,0.8
	c-2.4,8.8-10.6,10.2-17.7,13.3c4.1,0.1,8.1,0.1,12-0.5c12.5-2.1,21.4-8.4,24.6-21.4c0.7-2.8,1.1-5.6,1.8-8.4c0.5-2.2,1.3-4.4,2-6.6
	c0.3,0,0.7,0,1-0.1c1.4,2,2.9,3.9,4.3,5.9c-0.6-8.5-3-16.3-7.3-23.4c-6.9-11.6-17-19.7-28.5-26.4c-1.6-0.9-3.2-2-4.8-3.1
	c0.1-0.2,0.2-0.5,0.4-0.7c1.6,0.2,3.3,0.5,4.9,0.6c7.3,0.3,14.6,0.9,21.9,0.8c4.4-0.1,8.6-1.8,11.2-5.9c-3.7,0.7-7.1,1.6-10.6,1.8
	c-6.7,0.5-13-1.6-18.9-4.5c-11.8-5.6-24.1-9-37.2-9.3c-2.4-0.1-4.7-0.5-7.8-0.9c6-4.2,12.3-5.1,18.5-6.7c-11.6-5.9-52,2-60.4,11.8
	c4,1,7.8,2,11.6,2.9c14,3.4,28.2,6.4,42.1,10.2c8.6,2.3,16.5,6.4,22.5,13.2c1.8,2,3.1,4.3,4.6,6.5c-14.6-6.2-28.4-7.7-44.2-8.4
	c-10.4-0.4-20.8-0.9-31.2-1.7c-5.2-0.4-10.3-1.5-15.5-2.3c7.3,11.1,36.6,25.7,46.2,23.2c-2.5-1.9-5-3.9-7.6-5.9
	C518.2,684.9,518.5,684.4,518.9,684z M431,293.6c0.3-1,0.7-2.1,1-3.1c1.1,0.5,2.3,0.9,3.2,1.7c0.7,0.7,1.1,1.9,1.5,2.9
	c3.3,7.9,8.7,13.6,17,16.4c6.1,2.1,11,5.9,15,10.9c0.7,0.9,1.4,1.8,2.3,3c1.4-7.5-5.4-11-7.1-17.1c2.6,1,5.4,2,7.1,3.9
	c2.9,3.1,4.9,6.9,7.5,10.3c2.4,3.1,5,6.1,7.9,8.7c3.4,3.1,7.2,5.8,10.7,8.8c2,1.8,3.5,4,5.2,6c0.3-0.1,0.6-0.3,0.8-0.4
	c-1.6-3.5-3.1-7-4.7-10.4c-0.7-1.6-1.9-3.1-2.3-4.8c-0.3-1.1,0.5-2.4,0.8-3.7c1.1,0.5,2.6,0.6,3.2,1.4c1.9,2.7,3.2,5.7,5.1,8.3
	c2.1,3,4,6.5,6.9,8.4c6.2,4,10.3,9.4,13.7,15.7c0.9,1.7,1.7,3.4,2.8,5.6c1.4-7.7-4.4-12.9-4.7-19.6c9.9,9.1,14.3,21.3,19.5,33.5
	c2.3-8.1-1.6-15.4-1-23c2.5,4.6,4.9,9.3,6.6,14.2c1.9,5.3,2.4,10.9,0.3,16.3c-0.8,2.2-2.5,4.1-4,6.3c6.5,2.7,9.9-3.9,14.9-5.1
	c2.2,3.3,2,5.5-0.9,7.5c-1.4,0.9-3,1.7-4.6,2c-2.7,0.5-5.5,0.7-8.3,1c0.3,2.6,0.7,5.3,1.1,8c-0.4,0.1-0.8,0.3-1.1,0.4
	c-1.7-2.5-3.3-5.1-5.2-7.5c-1.9-2.5-3.8-5.3-6.3-7c-7.7-5.1-14.2-11.5-20.5-18.1c-0.4-0.4-0.9-0.7-1.7-1.4
	c1.8,6.4,5.8,11.7,5.1,18.9c-4-3-5.7-6.8-7.5-10.5c-2.9-5.7-5.6-11.6-9.2-16.9c-3.8-5.5-9-9.8-14.6-12.5c2.2,4.5,4.9,9.1,6.8,14.1
	c1,2.4,1,5.5,0.6,8.1c-0.5,3.5-3.3,4.3-5.4,1.6c-2.1-2.7-3.3-6.2-4.9-9.3c-2.5-4.8-4.5-9.9-7.5-14.4c-2.9-4.3-7.7-5.9-13.2-5.7
	c1.4,4.6,5.8,8.3,3.3,13.6c-5.5-1.2-8.4-5.6-12.5-8.3c-4.2-2.8-8.4-5-13.7-5.4c0.5,1.8,0.9,3.4,1.5,5.2c-4.1,0.4-7.3-1.1-10-3.1
	c-4.2-3.1-8.2-6.6-12.2-10c-2.8-2.4-5.6-4.9-10.5-5.9c3.7,3.8,3.1,7.2,1.6,11c-1.1,2.6,0.4,4.3,3.3,5.1
	c22.3,5.7,43.5,14.1,63.1,26.3c14,8.7,27.4,18.3,41.4,26.9c9.6,5.8,19.8,10.8,30,15.5c5.6,2.6,11.4,1.5,16.1-2.7
	c4.9-4.3,6.6-10.1,6.7-16.3c0.1-10.1-3.4-19-8.9-27.3c-6.7-10.1-15.6-18.2-25.2-25.6c-37.1-28.7-78.2-50.4-120.9-69.5
	c-0.6-0.3-1.6-0.5-2.2-0.1c-4.1,2.5-8.1,5.2-12.3,7.9c9.2,5,20.6,3.7,29.5,10.6C431,294.3,430.9,293.9,431,293.6z M403,548.4
	c-0.6-9.4-1.5-18.7-2.4-28.1c-0.3-2.8-2.3-4.4-4.7-3.7c-2.9,0.8-5.2-0.2-7.7-1.1c-2.8-0.9-5.7-1.5-8.6-1.9c-2-0.2-2.9,1.1-2.8,3.2
	c0,1.5-0.2,3.2-0.9,4.5c-3.7,6.6-7.5,13-11.5,19.4c-1.4,2.2-3.3,5.2-6.1,4.3c-1.9-0.6-3.1-3.4-4.7-5.3c-0.2-0.3-0.3-0.7-0.5-1.1
	c-5-12.6-11.4-24.6-14.1-38.1c-0.8-3.8-4.6-5.3-7.5-3c-7.7,6.1-13.9,13.3-16,23.3c-0.8,4-0.9,8,1.2,12.5c0.3-2.1,0.5-3.5,0.6-5
	c0.2-3.2,1.4-5.8,4-7.6c3.6-2.6,7.1-5.1,6.4-10.5c-0.1-0.9,2.3-2.2,3.5-3.3c0.4,1.1,1.3,2.3,1.3,3.4c0,3.1,0.9,5.5,3.3,7.6
	c1.4,1.2,2.8,3.1,3.1,4.8c0.7,5.1,0.9,10.2,1.2,15.4c0.1,1-0.4,2.1-0.7,3.2c-0.5-0.5-0.6-0.8-0.6-1.2c-1.7-6.7-3.3-13.4-5.3-20
	c-0.5-1.5-2.7-2.5-4.1-3.7c-0.8,1.7-2.3,3.3-2.3,5c-0.1,3.4,0.1,7,1.1,10.3c2.2,6.6,5.1,12.9,7.5,19.3c1.5,4,2.9,8,3.9,12.1
	c0.2,0.9-0.8,2.9-1.6,3.2c-0.8,0.3-2.6-0.6-3.3-1.5c-1.1-1.3-1.8-3.1-2.6-4.7c-1.7-3.4-4.3-3.6-6.1-0.3c-1.5,2.9-3.6,3.5-6.8,2.3
	c-1.7-0.6-3.3-1.7-5-2.6c-1.8-1-3.6-2.2-5.5-2.9c-3.2-1.2-5.2-0.5-6.3,2.5c-1.2,3.5-3.6,4.8-7.1,5.3c-5.8,0.8-7.5,3.2-5.5,8.8
	c3.6,10.3,8,20.3,14.9,28.9c3.2,4.1,7.4,7,12.5,8c1.7,0.3,3.5,0.1,5.2,0.1c-8.1-6.1-12.8-13.7-14.4-23.2c-0.2-1.3-0.4-2.7-1.2-3.6
	c-0.8-0.9-2.4-1.9-3.5-1.7c-4.2,0.6-5,0.3-6.1-4c2.7-1.3,4.4-1.3,7,0.2c1.7,1,3.3,2.2,5,3.3c3.7,2.4,7,2.3,10.4-0.4
	c1.1-0.8,2.1-1.8,3.1-2.8c4.7-4.6,9-4.9,13.8-0.3c3.3,3.2,6.8,3.8,11.1,3.3c2.9-0.4,6.7-0.6,8.9,0.9c5.6,3.8,11.1,3.8,16.9,1.6
	c2.9-1.1,5.7-0.9,8.3,0.5c3.1,1.7,5.3,4,6.2,7.6c0.6,2,1,4.5,4.1,4.6c0.1-4.7,2.6-7.8,6.2-10.2c-0.2,1.9-0.7,3.6-1.6,5.2
	c-2.2,4.3-1.8,5.6,2.5,8c5.1,2.8,8.6,6.9,9.9,12.7c0.1,0.6,0.3,1.2,0.5,1.7c0.3,0,0.5,0,0.8,0c0.3-2.6,1.1-5.3,0.8-7.8
	c-1.1-9.2-4.8-17.5-9.7-25.3c-2-3.2-5.1-4.3-9-3.8c-1.7,0.2-3.8-0.6-5.4-1.5c-2.7-1.5-5-3.6-7.6-5c-3-1.6-5.1-3.8-5.7-7.1
	c-0.4-2.4-0.8-5-0.5-7.4c0.9-6.6,2.5-12.9,10.2-15.3c2.7-0.8,3.6-2.9,3.5-5.9c-0.3-4.4,2.8-8.9,6.6-10.2c0,0.5,0.2,1,0.1,1.5
	c-1.4,6,0.6,11.5,2.7,17c2,5.3,3.7,10.6,2.7,17C402.4,556.3,403.2,552.3,403,548.4z M437.6,577.3c11.5-11.2,26-15,41.6-15.4
	c14.4-0.4,28.4,2.6,42.1,6.5c11.5,3.3,23.1,6.7,35.3,5.7c11.7-0.9,22-5,30-13.9c6.6-7.4,7-16.6,1.5-24.6c-3-4.3-7-7.5-11.8-9.7
	c-9.8-4.5-20.3-6-31-6.1c-18.1-0.1-36,2.6-53.6,6.6c-27.9,6.2-55.6,13.2-83.4,19.9c-0.9,0.2-2.1,0.9-2.5,1.8
	c-1.9,3.8-1.9,7.7,0.8,11.2c3.5,4.5,8.4,6,14.4,6.2c-3.7-5-9.4-7.8-11.5-14.1c16.7,5.6,32.8,2.4,49.6,0.5c-4.5-3-10.2-3-12.7-8.1
	c2.7-1.7,4.9-0.8,7,0.3c7.3,3.9,15,5.3,23.3,3.9c4.1-0.7,8.3-1.1,13.1-1.8c-4.9-2.2-10-2.6-12.8-8c2,0,3.7-0.3,5.1,0.1
	c3.9,1.1,7.7,2.3,11.5,3.9c5.1,2.1,10.2,2.6,15.6,1.1c4.2-1.1,8.7-1.4,13.1-2c1-0.1,2-0.3,2.9-0.4c0.1-0.4,0.1-0.7,0.2-1.1
	c-4.6-1.8-9.2-3.6-13.9-5.5c0.8,0,1.5-0.2,2.1-0.1c5.3,0.9,10.5,1.9,15.8,2.7c4.7,0.7,9.4,0.9,13.1-3.3c-2.8-1.7-6.6-1.1-8.6-4.3
	c6.6-2.5,11.2,2.5,16.8,3.5c-0.4-2.8-3.9-4.9-1.3-8.1c4.3,1.7,6.5,5.4,9.1,8.8c2.6,3.4,5.7,5.9,9.8,7.2c-0.6-2.6-1.2-5-1.9-8
	c4.5,1.1,7.2,3.3,9.3,6.2c3.3,4.6,2.8,9.1-0.5,13.3c4.8,2.3,5.6-3.7,9.2-3.8c0.3,3.4-1.3,6.2-5,8.5c-6,3.7-12.3,4.6-19.1,2.2
	c-2.7-0.9-5.5-1.3-8.3-1.9c-0.1,0.4-0.2,0.8-0.3,1.1c1.8,1,3.7,1.8,5.3,3c1.4,1.2,2.4,2.9,3.6,4.3c-0.3,0.3-0.6,0.7-0.9,1
	c-1.4-0.6-2.8-1.2-4.1-2c-3.5-2.2-6.9-4.7-10.4-6.9c-3.7-2.3-7.7-3.7-12.9-3.4c1.5,1.2,2.6,2,3.6,2.9c2,1.9,4.1,3.7,5.9,5.8
	c0.5,0.6,0.1,2,0.2,3c-0.9,0-1.9,0.1-2.8-0.2c-0.7-0.2-1.4-0.8-2-1.3c-3.2-2.6-6.4-5.4-9.7-7.9c-5.1-3.9-10.8-6-17.8-4.6
	c1.3,1.7,3.1,2.9,4.6,4.5c2.1,2.1,2.4,3.5,1.8,6c-8.3-7.6-17.6-12.5-29.3-10.8c0.3,0.6,0.9,0.8,1.2,1.3c0.4,0.5,0.7,1.1,1.2,2
	c-8.5-1.3-16.5-5.2-25.3-1.1c1.4,1.2,2.5,2.1,4.1,3.4c-9.5-0.1-18.6-2.4-26.7,3.7c1.7,0.3,3.1,0.6,5.2,1
	c-6.4,5.5-15.5,5.9-19.8,13.9c2.5-0.9,4.5-1.7,6.6-2.4c-4.2,5.5-7,11.2-6.9,17.7C430.2,586.7,433.4,581.4,437.6,577.3z M287.6,168.9
	c0.6-0.8,1.1-1.6,1.7-2.3c4.8-5.9,8.8-12.2,11.4-19.4c0.7-2,2-3.7,3.1-5.5c0.4,0.2,0.9,0.3,1.3,0.5c0,2.1,0.5,4.4-0.1,6.4
	c-1.1,3.9-2.2,7.9-4.2,11.3c-4.3,7.3-4,14.4-0.7,21.9c1.8,4,2.9,8.4,4.2,12.6c0.2,0.8,0.4,1.5,0.6,2.3c0.2,0.8,0.5,1.5,0.9,2.8
	c2.9-5.8,3-11.5,3-17.1c0-2,0.5-4,0.8-6c0.5,0,1.1,0.1,1.6,0.1c4.4,8.4,2.9,16.8-0.4,25.5c6.9,4.3,14.5,5,23,4.9
	c-1.1-1.6-1.8-2.8-2.5-3.9c-7.2-11.1-13.3-22.8-17.3-35.4c-4.7-14.8-6.6-29.8-2.2-45c5.5-19,17.5-33.5,32.9-45.2
	c24-18.3,51.1-22.1,80.1-14.9c4.9,1.2,9.7,2.6,14.8,4c-3.7-9.2-9-16-19.2-17.5c-6.5-1-12.3-3.6-17.5-7.6c-0.3-0.2-0.6-0.3-1.4-0.7
	c3.2,5.4,8,9.3,8.3,15.7c-3.6,1.4-5.7-0.8-8-2.6c-2.6-2.1-5.2-4.2-8.2-5.6c-3.6-1.7-7.6-3-11.5-4c-8.1-2.1-16.4-3-25.5-2.4
	c5,1.7,9.4,2.7,13.3,4.6c4,2,7.7,4.7,11.3,7.4c0.8,0.6,1.5,2.8,1,3.5c-0.5,0.8-2.5,1.4-3.6,1.2c-2.6-0.7-5.3-1.6-7.6-3
	c-4.7-2.8-9.8-4.4-15.3-4.2c-10.6,0.3-19.8,5.6-29.6,9c4.3,1,8.5,1.6,12.8,2c4,0.4,8.1,0.3,12.1,1c1.5,0.3,2.7,2.1,4.1,3.2
	c-1.3,1.2-2.6,2.4-4,3.5c-0.3,0.3-1,0.3-1.4,0.3c-3.4-0.1-6.7,0-10.1-0.4c-7.5-1-14.2,0.2-19.9,5.6c-4.8,4.6-10.5,7.7-16.6,10.2
	c-0.8,0.3-1.6,0.8-2.4,1.2c0.1,0.4,0.2,0.8,0.3,1.1c5.2-0.9,10.5-1.8,15.7-2.6c2.5-0.4,5.1-0.6,7.6-0.5c0.9,0,2.3,1,2.4,1.8
	c0.2,0.7-0.7,2.2-1.5,2.6c-3.1,1.4-6.4,2.6-9.6,3.5c-4,1.1-8,1.9-11,5.3c-4.2,4.5-8.7,8.7-13.1,12.9c-1.7,1.6-3.5,3-5.8,4.9
	c1.8,0,2.9,0.2,3.9,0c4.7-1.2,9.3-2.5,14-3.8c2-0.5,3.9-1,6.5-1.6c-1.5,4.6-4.3,6.9-7.3,8.9c-7.5,4.9-11.4,12-12.8,20.6
	c-0.9,5.7-1.2,11.4-1.7,17.2c-0.4,3.9-0.8,7.8-1.2,11.7C287.2,168.6,287.4,168.8,287.6,168.9z M507.7,212.7
	c-6.8-2.3-11.8-6.7-15.6-12.7c-3.2-5-6.3-10.1-9.7-15c-3.3-4.6-7.8-7.9-13.5-8.4c-5.1-0.4-10.3-0.5-15.3,0.4
	c-12.6,2.3-23.4-0.3-32.3-9.8c-0.1-0.1-0.4-0.2-0.9-0.5c3.4,8,8.8,13.3,16.9,15.1c3.7,0.8,7.6,1.1,11.5,1.1c4.7,0.1,9.3-0.5,14-0.4
	c6.6,0.1,11.9,2.8,15.3,8.7c1.5,2.5,2.7,5.1,3.9,7.7c3.8,8.7,10,15.1,18.4,19.6c10.1,5.5,21.1,7.1,32.4,7.5
	c19.5,0.8,29.8,12.3,29.2,27.9c0,0.8,0.9,1.8,1.6,2.5c4.2,3.7,8.5,7.4,12.8,10.9c0.9,0.8,2.3,1.6,3.4,1.6c8.8-0.2,16.2,3.1,22.9,8.6
	c0.7,0.6,1.4,1.2,2.1,1.8c-0.7-4.4-1.8-8.5-3.1-12.5c-3.5-10.2-6.9-20.5-14.1-28.9c-1.3-1.6-3.1-2.8-5-4.4c-1.2,5,1.2,9.8-2.3,13.7
	c-0.4-0.5-0.7-0.7-0.9-1c-0.8-1.4-1.6-2.7-2.4-4.1c-7.1-13.3-18.2-21.6-32.6-25.2c-5.7-1.4-11.8-1.7-17.5-3.1
	c-13.6-3.1-23.6-10.5-27.6-24.5c0-0.1-0.3-0.1-0.5-0.2c-1.2,10.1,3.5,17.6,11.5,24.1C508.8,212.9,508.2,212.9,507.7,212.7z
	 M694.4,402.8c1.9-3.2,3.8-6.4,5.5-9.7c1.9-3.5,3-7.2,2.3-11.2c-0.3-1.5-1.2-3.5-2.3-4c-2.9-1.3-2.5-2.5-0.8-4.4
	c0.7-0.8,1.5-1.6,2.1-2.5c1.7-2,2-4.2,0-6.1c-2.8-2.7-3.9-6.2-4.2-9.9c-0.5-5.1-3-8.4-8.1-9.7c-7.5-1.9-12.1-7.3-15.4-13.9
	c-4-8.2-0.5-14.8,8.5-15.9c5.9-0.7,12.4,0,12.8,8.9c0,0.5,0.3,1,0.4,1.4c1.3,4.5,4.1,6,8.6,4.7c1.3-0.4,2.5-0.7,3.2-0.9
	c1,3.8,1.6,7.2,2.8,10.5c3.3,8.9,5.1,17.9,4.1,27.4c-0.3,2.5-0.8,4.9-1.2,7.6c3.1-2.2,5.1-4.6,5.7-8.4c2.4-14.9,3.2-29.6-4.9-43.3
	c-0.8-1.4-1.6-2.8-2-4.3c-0.6-2-1.2-4.1-1.1-6.1c0.3-5.2-0.7-6.5-6-5.9c-5.6,0.7-10.6-0.7-15.1-3.9c-2.3-1.7-4.5-3.6-6.8-5.3
	c-3.6-2.7-6.3-1.8-7.2,2.5c-0.7,3.3-2.5,5.9-5.1,7.3c-5,2.7-10.3,4.9-15.5,7.2c-1.4,0.6-3,1.1-4.7,1.7c16.4,16.4,16.7,16.8,28,37.6
	c0.4,0.7,1.1,1.4,1.8,1.8c3,1.3,4.3,3.8,4.8,6.7c0.5,3.2,0.8,6.5,1.3,9.7c0.5,3.4,1.1,6.9,4.8,8.3c2,0.7,2.5,1.8,3,3.5
	c1.6,6.1,1.3,12.1-0.2,18.2C693.7,402.6,694.1,402.7,694.4,402.8z M380.5,436.6c4.5-0.6,9.1-0.4,13.6-0.7c1-0.1,2.3-0.2,3-0.8
	c2.9-2.7,4.4-6.4,5.7-10.5c-1.3,0.1-2,0.3-2.8,0.3c-3,0.2-5.9,0.5-8.9,0.4c-1,0-1.9-1.1-2.9-1.6c0.7-0.9,1.2-2.2,2.1-2.6
	c1.9-0.9,4.1-1.7,6.2-1.9c5.7-0.6,11.1-1.8,16-4.9c1-0.6,1.8-1.5,3.3-2.7c-6.1,0-11.4-0.4-16.6,0.1c-15,1.4-26.4,8.9-30.7,25.4
	c-1.9,7.5-2.1,15.1-1.1,22.7c1.7,12.8,6.9,23.7,17.4,31.6c11.6,8.8,25.1,11.3,39.2,11.7c1.1,0,2.2,0,3.7,0
	c-3.6-7-7.9-12.2-14.8-14.9c-2.5-1-4.8-1.2-7.4,0c-2.4,1.2-5.1,2.2-8.1,0.8c1.1-4.4,5.7-5.5,7.8-8.8c-2.2-4.9-5.4-9-9.8-12.1
	c-1.6-1.1-3-1.4-4.9-0.6c-2.6,1-5.3,1.7-8,1.9c-1.5,0.1-3.6-0.8-4.4-1.9c-1.2-1.8,0.1-3.9,1.8-4.7c3.4-1.5,7-2.4,10.5-3.7
	c1.1-0.4,2.5-1.1,3.1-2c2.3-4.3,2.6-9.1,2.1-13.9c-0.1-0.7-1.2-1.9-2-2c-3-0.2-6.1-0.2-9.2-0.1c-3.5,0.1-7.1,0.9-11.3-1.5
	C376.1,438.4,378.2,436.9,380.5,436.6z M298.2,490.6c1.2-2,2-4.1,3.2-6c1.2-1.8,2.5-3.6,4.2-4.9c2.6-2,4.6-0.9,4.5,2.4
	c0,1.7-0.5,3.6-1.1,5.2c-2.6,6.8-3.4,13.9-2.3,21c0.8,4.8,2.3,9.5,3.5,14.2c0.3,0,0.7-0.1,1-0.1c0.5-8.7,4.5-15.7,10.6-21.5
	c1.2-1.2,1-2.1,0.5-3.6c-2.5-6.1-5.2-12.2-7.1-18.6c-8.5-28.5-7.2-56.2,8.5-82.3c7-11.6,15-22.3,26.5-30.3
	c-3.3-3.1-6.8-5.9-11.7-5.2c-4.2,0.6-7.5,3.1-9.8,6.6c-3.9,6-8.9,10.6-15.3,13.8c-1.2,0.6-2.2,1.5-3.7,2.5
	c6.2,2.1,11.8-0.4,17.8-0.4c-1.5,3.3-4.2,4.6-6.9,5.7c-7.8,3.1-12.4,8.8-14.7,16.8c-1.8,5.9-5,11-10,14.8c-0.4,0.3-0.6,0.8-0.9,1.3
	c0.1,0.3,0.3,0.5,0.4,0.8c5-1.8,10-3.7,15-5.5c0.3,0.3,0.5,0.5,0.8,0.8c-1.3,1.7-2.3,3.7-3.8,5.2c-1.6,1.5-3.6,2.4-5.5,3.5
	c-3.6,2-6,4.8-6.2,9.1c-0.2,2.7-0.3,5.4-0.9,8c-0.9,4.2-2.2,8.3-3.3,12.4c0.2,0.2,0.5,0.5,0.7,0.7c2.8-2.4,5.6-4.8,8.3-7.3
	c0.9-0.8,1.6-1.8,2.5-2.5c1.5-1.1,2.9-0.7,2.9,1.2c-0.1,2-0.3,4.4-1.5,5.8c-5,5.7-6.6,12.4-6.9,19.8c-0.3,7.3-0.6,14.8-6.9,20.9
	C294.5,494.6,296.7,493.1,298.2,490.6z M649.9,518.2c2.3,8.7,5.3,17.3,6.7,26.1c2.4,14.3,0,28.1-7.4,40.7
	c-7.3,12.6-18.4,21.2-31,27.9c-4.2,2.2-8.6,4.2-12.8,6.3c15.3-0.6,28.9-5.4,40.6-15.8c-1.3-0.4-2.2-0.7-3.2-1
	c-0.1-0.2-0.2-0.5-0.3-0.7c10.2-3.3,18.2-9.1,22.2-19.6c-1.7,0-3.2,0.2-4.5-0.1c-0.9-0.2-1.8-0.9-2.6-1.4c0.6-0.9,1-2.2,1.9-2.6
	c1.3-0.7,2.9-0.7,4.2-1.3c1.1-0.5,2.5-1.2,3-2.2c3.1-5.8,4.6-12,5.1-18.5c0.2-1.9-0.3-3.2-2.4-3.8c-1.4-0.4-2.6-1.4-4.6-2.6
	c2-1.1,3.1-1.9,4.4-2.3c1.8-0.6,2.4-1.7,2.6-3.5c1.4-13-9.2-26.2-22.7-27.9C649.5,516.9,649.8,517.6,649.9,518.2z M482.2,82.7
	c-1.7-0.6-3.5-1-5.1-1.8c-5.3-2.7-9.1-6.9-12.2-11.9c-2.3-3.8-5.4-6.8-9.4-8.8c-6.7-3.4-14.4-5.2-19.9-11.1c1,4.1,2,8,3.6,11.7
	c2.1,5,5.5,8.8,11.2,10.1c2.5,0.5,4.8,1.7,7.2,2.8c15.6,7.1,29.7,16.7,43.8,26.3c1.1,0.7,2.2,1.4,3.5,2.2c0.8-5.5-0.6-10-3.7-13.6
	c-4-4.5-8.4-8.7-13.1-12.4c-7.5-5.8-14.3-12-18.4-20.7c-0.1-0.3-0.5-0.4-1-0.9c0.6,8.8,2.9,16.2,9.5,21.8c1.8,1.5,3.2,3.6,4.7,5.4
	C482.6,82.1,482.4,82.4,482.2,82.7z M613.9,149c-3.2-0.1-5.2,1.9-5.2,5.1c0,2.8,1.8,4.6,4.6,4.6c2.9,0,4.6-1.8,4.6-4.9
	C617.9,150.8,616.5,149.1,613.9,149z"/>
</svg>
