<svg xmlns="http://www.w3.org/2000/svg" width="91.342" height="205.421" viewBox="0 0 91.342 205.421">
  <g id="组_1" data-name="组 1" transform="translate(658.261 397.813)">
    <path id="路径_1" data-name="路径 1" d="M-622.726-397.813c1.094.231,2.2.41,3.28.7a48.07,48.07,0,0,1,14.271,7.055c1.686,1.143,3.316,2.363,4.9,3.646a12.04,12.04,0,0,0,3.9,1.621q11.562,4.042,23.153,8c.493.169.6.38.577.9-.1,3.016-.274,6.038-.167,9.049.082,2.317.532,4.622.831,6.93.656,5.064,1.344,10.125,1.968,15.193a23.209,23.209,0,0,0,1.028,3.889,40.864,40.864,0,0,1,2.067,11.434c.031,3.124-.428,6.144-2.711,8.542a9.794,9.794,0,0,1-7.024,2.836,83.172,83.172,0,0,1-12.283-.141c-.788-.084-1.58-.156-2.36-.29-.573-.1-.772.008-.764.655.037,3.1,0,6.2.032,9.3.006.567-.149.7-.7.687-1.556-.039-3.114-.014-4.724-.014,1.075,3.927,2.131,7.8,3.194,11.665q3.725,13.562,7.439,27.126c.2.728.477,1.644.844,2.976q8.776,31.886,17.565,63.769c.175.635.1.872-.592,1.049q-4.291,1.107-8.543,2.36c-.675.2-.847.009-1.008-.582-1.474-5.429-2.984-10.848-4.441-16.281-.177-.661-.362-.741-.973-.491q-12.475,5.12-24.97,10.189a.86.86,0,0,0-.649.906c-.121,4.073-.286,8.145-.43,12.217-.011.325-.01.539-.458.521-3.2-.127-6.392-.232-9.589-.331-.659-.02-.5-.54-.5-.865-.012-.978.048-1.958.09-2.935.117-2.7.223-5.4.375-8.089.027-.477-.253-.589-.549-.744q-7.185-3.768-14.372-7.532c-2.244-1.175-4.5-2.329-6.724-3.539-.585-.318-.787-.255-1.006.386-1.8,5.242-3.647,10.467-5.435,15.713-.251.737-.5.8-1.2.539-2.745-1.016-5.516-1.963-8.288-2.9-.552-.187-.714-.352-.5-.976q7.641-21.819,15.233-43.656,10.4-29.826,20.8-59.65c.293-.842.29-.843-.639-.843-1.4,0-2.806-.024-4.208.013-.522.014-.659-.136-.656-.657q.036-5.087,0-10.175c0-.547.174-.645.671-.641,2.726.023,5.452,0,8.178.024a.849.849,0,0,0,.937-.6q1.332-3.134,2.737-6.236a.705.705,0,0,0-.3-1.073,50.268,50.268,0,0,1-21.149-30.555,53.273,53.273,0,0,1,.4-25.769,52.917,52.917,0,0,1,2.77-8.328c1.381-3.183,3.605-5.356,7.185-5.85.055-.007.1-.1.148-.146Zm27.711,15.635c-.127-.048-.257-.127-.363.036l.255.1c1.989,2.047,4.1,3.975,5.973,6.134.244.281.531.179.806.16q3.282-.23,6.563-.48c.886-.067,1.77-.156,2.654-.235,0-.054,0-.107,0-.161Zm-3.082,71.153c.793.006,1.587,0,2.379.026.373.014.5-.089.495-.48q-.034-2.064,0-4.13c.006-.391-.121-.495-.494-.48-.792.031-1.586.02-2.38.026q-6.931.018-13.862.029c-.418,0-.467.213-.465.546.008,1.3.022,2.592-.006,3.887-.011.5.23.547.629.548,2.219,0,4.437.035,6.656.04C-602.8-311.006-600.446-311.019-598.1-311.024Zm-16.356-62.81,21.42-1.567a89.139,89.139,0,0,0-8.761-8.11,11.641,11.641,0,0,0-3.464-2.311c-1.912-.646-3.845-1.232-5.739-1.942-2.311-.865-4.68-1.573-7.015-2.376-3.119-1.074-6.237-2.152-9.337-3.28a1.082,1.082,0,0,0-1.427.356,4.51,4.51,0,0,0-1.33,1.823,15.044,15.044,0,0,0-1.349,5.827,44.524,44.524,0,0,0,1.171,12.031c.119.56.36.7.905.646,1.286-.127,2.578-.191,3.869-.285Q-619.981-373.426-614.453-373.834Zm38.262,52.538c.663-.159.4-.719.411-1.091.089-2.3.136-4.6.185-6.9q.2-9.2.386-18.407a3.508,3.508,0,0,0-.3-1.529c-.864-1.983-1.758-3.952-2.771-5.863a76.268,76.268,0,0,0-4.221-7.1c-.185.236-.336.414-.471.6q-2.831,3.97-5.658,7.944-2.767,3.9-5.52,7.81c-.2.241-.414.469-.594.724-2.542,3.61-5.054,7.241-7.636,10.822a1.3,1.3,0,0,0,0,1.929c1.061,1.254,1.906,2.654,3.445,3.489,1.972,1.07,3.86,2.3,5.882,3.283a40.735,40.735,0,0,0,13.4,4.336A10.241,10.241,0,0,0-576.191-321.3Zm-19-26.789c.375.076.406-.283.529-.466,1.174-1.744,2.417-3.443,3.651-5.14,2.36-3.245,4.655-6.538,7.03-9.772a.675.675,0,0,0,0-.95,103.185,103.185,0,0,0-7.021-8.8.949.949,0,0,0-.883-.364c-4.57.362-9.142.7-13.713,1.039l-7.1.533c-1.838.131-3.676.258-5.513.4-3.779.283-7.557.571-11.385.861a7.633,7.633,0,0,0,.869,2.629c1.2,1.472,2.3,3.013,3.424,4.538q4.928,6.676,9.88,13.336,5.291,7.146,10.577,14.295c.456.615.67.608,1.125-.018q4.159-5.72,8.3-11.45C-595.291-347.6-594.957-347.761-595.192-348.086Zm-20.03,96.478h-.009c-.125,3.835-.239,7.67-.377,11.5q-.356,9.837-.736,19.673-.216,5.829-.418,11.659c-.145,4.1-.281,8.2-.437,12.3-.017.455.071.678.583.677.978,0,1.958.019,2.933.094.533.041.609-.188.625-.634q.382-11.026.787-22.052.4-11.066.794-22.131.476-13.287.952-26.575.351-9.917.69-19.834.351-9.837.732-19.673c.018-.471-.11-.589-.559-.59-.977,0-1.955-.039-2.928-.114-.469-.036-.627.049-.645.568-.171,5.077-.383,10.151-.566,15.227-.235,6.506-.449,13.013-.68,19.52q-.362,10.192-.74,20.384Zm12.366-56.153v-.057a12.634,12.634,0,0,1-1.428-.01c-.663-.076-.712.137-.546.733,1.45,5.188,2.865,10.386,4.293,15.579q9.39,34.145,18.781,68.29,2.73,9.931,5.433,19.87c.176.65.421.767,1.03.544a12.055,12.055,0,0,1,2.214-.6c.847-.135,1.03-.522.688-1.256a.966.966,0,0,1-.04-.154q-13.887-50.491-27.776-100.982c-.181-.658-.212-1.561-.654-1.887s-1.314-.072-2-.072Zm-13.7,3.9c.061-1.114.1-1.907.149-2.7.08-1.256.08-1.206-1.179-1.275-.716-.039-1,.2-1.2.878-.4,1.338-.916,2.641-1.376,3.961q-13.95,40.028-27.9,80.058-3.022,8.671-6.066,17.335c-.191.541-.13.772.436.935a19.579,19.579,0,0,1,2.463.856c.626.274.825.1,1.038-.511q15.682-45.045,31.381-90.083C-617.706-297.575-616.079-300.646-616.555-303.864Zm23.424-18.127c-22.952-11.3-36.334-29.7-41.13-54.656a47.947,47.947,0,0,0,41.13,54.656Zm8.846,101.621c-1.37-4.988-2.726-9.871-4.039-14.766-.177-.659-.471-.434-.83-.286-6.271,2.563-12.537,5.14-18.824,7.665a1.172,1.172,0,0,0-.858,1.259c-.041,1.771-.1,3.543-.211,5.311-.042.652.108.839.79.835,5.345-.032,10.689-.018,16.034-.018Zm-56.944,0c7.164,0,14.223,0,21.282.007.365,0,.423-.138.431-.462.036-1.507.068-3.015.169-4.517a.81.81,0,0,0-.541-.9c-1.945-1-3.878-2.024-5.816-3.04l-10.5-5.5-5.028,14.416Zm51.7-19.08c-.881-3.211-1.753-6.361-2.6-9.517-.134-.5-.388-.271-.632-.172l-14.932,6.074a.75.75,0,0,0-.573.808,9.3,9.3,0,0,1-.048,1.979c-.139.77.163.843.818.84,5.182-.025,10.364-.014,15.546-.014Zm-11.03-13.992c2.167,0,4.334-.016,6.5.011.529.007.683-.1.529-.644q-1.249-4.415-2.442-8.845c-.116-.43-.235-.548-.672-.368q-5.293,2.185-10.6,4.335a.542.542,0,0,0-.425.557c-.028,1.453-.077,2.906-.159,4.357-.028.5.12.616.609.61,2.219-.028,4.439-.012,6.659-.012Zm-34.01,13.992h.971c4.152,0,8.3.008,12.456-.008.754,0,1.747.34,2.2-.145s.117-1.471.2-2.229c.062-.532-.207-.738-.607-.944q-3.548-1.832-7.083-3.689c-1.6-.836-3.192-1.679-4.817-2.533Zm4.874-13.992c3.7,0,7.317,0,10.936.005.326,0,.458-.077.465-.438q.048-2.377.161-4.752a.6.6,0,0,0-.374-.671q-3.65-1.89-7.28-3.817c-.405-.216-.515-.116-.64.29-.286.932-.635,1.845-.957,2.766-.764,2.186-1.526,4.371-2.311,6.617Zm39.36,36.386-.012-.132h-17.376c-1.426,0-1.459,0-1.48,1.448-.03,2.111-.008,4.222-.008,6.379Zm-12.031-51.014c1.455,0,2.91-.01,4.365.007.423,0,.62-.017.468-.552-.85-3-1.667-6-2.479-9.01-.105-.39-.206-.514-.634-.333-1.967.829-3.947,1.626-5.93,2.415a.712.712,0,0,0-.509.762q-.081,3.052-.236,6.1c-.023.471.078.637.593.623,1.453-.04,2.909-.014,4.364-.014Zm-33.68,50.882-.026.14,16.049,8.412a2.389,2.389,0,0,0,.095-.387c.1-2.616.184-5.232.29-7.848.018-.428-.266-.311-.472-.313-1.005-.009-2.01,0-3.015,0Zm62.2-104.656a4.969,4.969,0,0,0,3.191-3.452,15.533,15.533,0,0,0,.4-5.9,43.285,43.285,0,0,0-1.029-6,36.23,36.23,0,0,0-2.095-6.256c-.157,7.161-.313,14.323-.473,21.609Zm-50.741,53.775c2.21,0,4.318-.007,6.426.007.355,0,.36-.17.37-.438q.133-3.725.291-7.449a.671.671,0,0,0-.427-.737c-.876-.426-1.744-.875-2.585-1.367-.422-.246-.563-.156-.709.279-.7,2.073-1.426,4.137-2.144,6.2C-623.77-270.434-624.168-269.294-624.594-268.07Zm49.011-103.877c-1.566,2.194-3.056,4.308-4.58,6.4a.8.8,0,0,0-.009,1.094,81.154,81.154,0,0,1,4.711,7.878c.1.185.14.435.478.565C-575.018-361.333-574.3-366.612-575.583-371.947Zm-56.26,135.678-.042.136,12.629,6.621c.025-.187.044-.281.048-.376.089-1.98.164-3.96.272-5.939.029-.536-.3-.442-.606-.442ZM-581.69-366.7l5.735-8.055-11.406.85C-585.306-371.527-583.48-369.165-581.69-366.7Zm-21.889,76.169c-.913.374-1.782.744-2.663,1.082-.289.111-.31.305-.319.553q-.137,3.527-.286,7.053c-.012.289.05.425.383.422,1.77-.014,3.539-.007,5.386-.007C-601.918-284.483-602.741-287.479-603.579-290.529Zm7.729,54.393-.048-.132h-12.053c-.259,0-.52-.064-.515.369.019,1.623.008,3.247.008,4.9Zm-7.887-83.186c-.5-.8-.948-1.5-1.378-2.217a.812.812,0,0,0-.523-.423q-2.481-.649-4.953-1.333c-.434-.121-.575.014-.569.444q.021,1.505,0,3.011c0,.357.1.526.49.524,2.263-.012,4.528-.006,6.932-.006Zm4.918,69.2-.029-.142c-2.914,0-5.829.005-8.743-.007-.342,0-.39.161-.389.433,0,1.129,0,2.257,0,3.449Zm-27.637-.142-.026.154,8.019,4.2c0-1.425-.007-2.668.006-3.91,0-.26.041-.451-.334-.449-2.555.013-5.11.007-7.665.007Zm9.419-39.163-.1-.025q-1.338,3.818-2.679,7.635c-.124.352.033.4.328.391q.87-.019,1.74,0c.275.006.422-.029.433-.373.079-2.543.183-5.085.279-7.628Zm5.638-100.531.067-.215c-4.129-2.31-8.378-4.264-13.263-4.344Zm9.932,125.2v-.135c-1.868,0-3.737,0-5.6,0-.255,0-.394.07-.39.353.008.721,0,1.443,0,2.229Zm-2.776-28.193-1.853-6.732-.269.021c0,1.66.011,3.319,0,4.979-.016,2.012-.026,2.012,2.124,1.733Zm-2.725,15.485,5.011-2c-.3-.052-.351-.069-.4-.069q-1.342,0-2.685.009c-1.926.011-1.926.012-1.925,2.065Zm-15.066,12.573-.052.119,4.138,2.171c0-.692-.04-1.245.012-1.789.045-.464-.154-.513-.534-.508-1.189.019-2.377.008-3.565.008Zm25.251-54.379-.019-.078-4.66-1.206c.544,1.208.579,1.273,1.047,1.279C-599.2-319.259-597.994-319.268-596.783-319.268Zm23.67-33.777c.046.527-.269,1.132.231,1.67A4.267,4.267,0,0,0-573.113-353.045Zm.326,1.933c.009.006.024.012.025.018a.328.328,0,0,1-.006.059c-.01-.006-.029-.012-.029-.018A.287.287,0,0,1-572.787-351.112Z" fill="#00ceff"/>
    <path id="路径_2" data-name="路径 2" d="M-443.75-211.742c.236.325-.1.484-.228.664q-4.138,5.734-8.3,11.45c-.455.626-.668.634-1.125.018q-5.294-7.144-10.577-14.295-4.938-6.669-9.88-13.336c-1.125-1.525-2.225-3.065-3.424-4.538a7.636,7.636,0,0,1-.869-2.629c3.828-.29,7.607-.578,11.385-.861,1.837-.137,3.675-.264,5.513-.4-.076.332.153.551.314.778.627.879,1.268,1.748,1.911,2.616q5.386,7.267,10.777,14.529C-446.763-215.733-445.253-213.741-443.75-211.742Z" transform="translate(-151.442 -136.344)" fill="#65beff"/>
    <path id="路径_3" data-name="路径 3" d="M-398.288,226.545q.37-10.192.74-20.384c.231-6.506.446-13.013.68-19.52.183-5.076.4-10.151.566-15.227.017-.518.176-.6.645-.568.974.075,1.952.11,2.928.114.449,0,.578.119.559.59q-.387,9.835-.732,19.673-.354,9.917-.69,19.834-.471,13.288-.952,26.575-.4,11.066-.794,22.131-.4,11.026-.787,22.052c-.016.446-.092.675-.625.634-.974-.075-1.955-.1-2.933-.094-.512,0-.6-.222-.583-.677.156-4.1.293-8.2.437-12.3q.206-5.83.418-11.659.365-9.836.736-19.673c.139-3.834.252-7.669.377-11.5Z" transform="translate(-216.935 -478.153)" fill="#89ccf8"/>
    <path id="路径_4" data-name="路径 4" d="M-320.987,167.526c.683,0,1.553-.255,2,.072s.473,1.229.654,1.887q13.891,50.49,27.776,100.982a.966.966,0,0,0,.04.154c.342.734.159,1.121-.688,1.256a12.054,12.054,0,0,0-2.214.6c-.61.223-.855.106-1.03-.544q-2.69-9.942-5.433-19.87-9.388-34.146-18.781-68.29c-1.428-5.194-2.843-10.392-4.293-15.579-.166-.6-.117-.809.546-.733a12.638,12.638,0,0,0,1.428.01Z" transform="translate(-281.871 -475.288)" fill="#89ccf8"/>
    <path id="路径_5" data-name="路径 5" d="M-595.218,171.5c.476,3.218-1.15,6.289-2.251,9.455q-15.664,45.05-31.382,90.083c-.214.613-.412.785-1.038.511a19.588,19.588,0,0,0-2.463-.856c-.566-.162-.627-.393-.436-.935q3.058-8.659,6.066-17.335,13.95-40.029,27.9-80.057c.46-1.321.978-2.623,1.376-3.961.2-.674.485-.917,1.2-.878,1.257.069,1.257.019,1.179,1.275C-595.119,169.595-595.157,170.387-595.218,171.5Z" transform="translate(-21.337 -475.366)" fill="#89ccf8"/>
    <path id="路径_6" data-name="路径 6" d="M-255.41-157.607l5.52-7.81q2.821-3.977,5.658-7.944c.135-.189.286-.367.471-.6a76.279,76.279,0,0,1,4.221,7.1c1.013,1.911,1.908,3.88,2.771,5.863a3.507,3.507,0,0,1,.3,1.529q-.2,9.2-.387,18.407c-.049,2.3-.1,4.6-.185,6.9-.014.372.252.932-.411,1.091.029-.3-.187-.495-.337-.7q-4.146-5.635-8.31-11.256Q-250.753-151.318-255.41-157.607Z" transform="translate(-338.739 -188.224)" fill="#e3f2fd"/>
    <path id="路径_7" data-name="路径 7" d="M-354.548-220.1c-1.5-2-3.013-3.991-4.505-6q-5.4-7.259-10.777-14.529c-.643-.868-1.284-1.736-1.911-2.616-.162-.227-.391-.447-.314-.778l7.1-.533c4.571-.342,9.143-.676,13.713-1.039a.949.949,0,0,1,.883.364,103.166,103.166,0,0,1,7.021,8.8.675.675,0,0,1,0,.95c-2.376,3.234-4.67,6.526-7.03,9.772-1.234,1.7-2.477,3.4-3.651,5.14C-354.143-220.378-354.174-220.019-354.548-220.1Z" transform="translate(-240.644 -127.991)" fill="#e0f2fe"/>
    <path id="路径_8" data-name="路径 8" d="M-472.983-370.5a1.082,1.082,0,0,1,1.427-.356c3.1,1.128,6.218,2.207,9.337,3.28,2.335.8,4.7,1.511,7.015,2.376,1.894.709,3.826,1.295,5.739,1.942A11.644,11.644,0,0,1-446-360.942a89.14,89.14,0,0,1,8.76,8.11l-21.42,1.567a2.969,2.969,0,0,0-.259-.573c-1.089-1.483-2.192-2.956-3.286-4.435-3.126-4.226-6.239-8.462-9.39-12.67C-472.007-369.491-472.266-370.208-472.983-370.5Z" transform="translate(-155.792 -22.569)" fill="#e0f2fe"/>
    <path id="路径_9" data-name="路径 9" d="M-301.14-71.182l9.31,12.58q4.161,5.623,8.311,11.256c.15.2.366.4.337.7a10.227,10.227,0,0,1-3.453.048,40.735,40.735,0,0,1-13.4-4.336c-2.021-.984-3.91-2.212-5.882-3.283-1.539-.835-2.384-2.235-3.445-3.489a1.3,1.3,0,0,1,0-1.929c2.581-3.581,5.094-7.212,7.636-10.822C-301.555-70.713-301.339-70.941-301.14-71.182Z" transform="translate(-293.008 -274.649)" fill="#65beff"/>
    <path id="路径_10" data-name="路径 10" d="M-468.926-210.158a47.948,47.948,0,0,1-41.13-54.656C-505.26-239.855-491.878-221.457-468.926-210.158Z" transform="translate(-124.205 -111.833)" fill="#008aee"/>
    <path id="路径_13" data-name="路径 13" d="M-487.448-367.976c.717.286.976,1,1.387,1.553,3.15,4.208,6.263,8.444,9.39,12.67,1.094,1.479,2.2,2.952,3.286,4.435a2.969,2.969,0,0,1,.259.573l-11.056.813c-1.289.094-2.582.157-3.869.285-.545.054-.786-.086-.905-.646a44.523,44.523,0,0,1-1.171-12.031,15.044,15.044,0,0,1,1.349-5.827A4.5,4.5,0,0,1-487.448-367.976Z" transform="translate(-141.326 -25.089)" fill="#65beff"/>
    <path id="路径_20" data-name="路径 20" d="M-344.457,120.91c-4.232,0-8.464.018-12.7.012-4-.005-7.993-.036-11.99-.04-.719,0-1.153-.051-1.134-.548.05-1.295.025-2.591.011-3.887,0-.333.085-.546.837-.546q12.486,0,24.971-.029Z" transform="translate(-253.639 -431.935)" fill="#008af6"/>
    <path id="路径_30" data-name="路径 30" d="M-354.881,74.175c-2.4,0-4.668-.006-6.933.006-.392,0-.495-.167-.49-.524q.02-1.505,0-3.011c-.006-.43.135-.565.569-.444q2.47.687,4.953,1.333a.812.812,0,0,1,.523.423C-355.829,72.675-355.379,73.379-354.881,74.175Z" transform="translate(-248.856 -393.497)" fill="#aaa6a4"/>
    <path id="路径_33" data-name="路径 33" d="M-280.219,120.764v-5.037c.793-.006,1.587,0,2.38-.026.373-.014.5.089.494.48q-.034,2.064,0,4.13c.006.391-.121.494-.494.48C-278.632,120.759-279.426,120.77-280.219,120.764Z" transform="translate(-317.878 -431.788)" fill="#e0f2fe"/>
    <path id="路径_35" data-name="路径 35" d="M-433.531-372.516l-13.2-4.558c4.885.08,9.134,2.034,13.263,4.344Z" transform="translate(-177.87 -17.438)" fill="#e0f2fe"/>
    <path id="路径_40" data-name="路径 40" d="M-296.686,88.946c-1.211,0-2.422.009-3.632,0-.468-.005-.5-.071-1.047-1.279l4.66,1.206Z" transform="translate(-300.097 -408.213)" fill="#fefefe"/>
    <path id="路径_42" data-name="路径 42" d="M-262.88-299.758l-.255-.1c.106-.164.236-.085.363-.036Z" transform="translate(-332.243 -82.279)" fill="#fefefe"/>
  </g>
</svg>
