<svg xmlns="http://www.w3.org/2000/svg" width="1060.811" height="897.814" viewBox="0 0 1060.811 897.814">
  <g id="组_2" data-name="组 2" transform="translate(183.402 -926.442)">
    <path id="路径_93" data-name="路径 93" d="M877.409,1554.612v3.995c-6.066,3.863-13.072,5.574-19.652,8.151-13.346,5.226-26.591,10.672-39.8,16.229-12.347,5.195-24.726,10.316-37.062,15.537-9.134,3.866-18.152,8.015-27.374,11.654-2.574,1.016-3.106,2.234-3.071,4.671.127,8.644.066,17.291.077,25.937a40.006,40.006,0,0,1-5.287,3.518q-31.561,14.612-63.194,29.067c-24.37,11.191-48.766,22.326-73.1,33.592-20.247,9.373-40.405,18.939-60.636,28.35q-37.564,17.472-75.184,34.824-30.381,14.032-60.812,27.953c-1.019.467-2.152,2.059-3.376.2q0-14.952.005-29.9a2.941,2.941,0,0,1,2.289-2.88c8.167-2.549,15.553-6.894,23.38-10.233,21.886-9.338,43.106-20.14,64.966-29.567,9.864-4.254,19.692-8.732,29.226-13.863,10.2-5.488,21.255-9.348,31.758-14.3,9.029-4.255,18.261-8.028,27.149-12.66,11.153-5.813,23.043-10.195,34.487-15.473,11.147-5.141,22.338-10.182,33.4-15.523,17.827-8.606,36.144-16.192,54.183-24.368,12.075-5.474,24.019-11.238,36.046-16.82.988-.459,2.56-.115,2.557-1.751,0-1.618-1.34-1.912-2.641-2.464-12.4-5.263-24.761-10.628-37.119-15.994-14.648-6.36-29.322-12.663-43.912-19.154-11.63-5.174-23.1-10.717-34.748-15.84-4.421-1.944-8.987-4.36-13.977-.7-1.631,1.2-4.048,1.326-6.107,1.943-.058-12.462-.205-24.924-.105-37.384.024-3.023-1.042-3.409-3.454-2.449-8.442,3.359-16.84,6.838-25.354,10.007-2.707,1.007-3.314,2.51-3.282,5.17.152,12.795.112,25.591.141,38.387l-22.179,8.924q.062-22.377.121-44.757c4.378-3.775,10.08-4.9,15.224-6.653,21.281-7.243,42.021-15.916,63.236-23.305,1.582-.551,3.436-.992,3.385-3.086-.074-3.113,1.444-7.015-.744-9.135-2.163-2.1-5.114.53-7.611,1.746-1.291.629-2.939.486-4.31,1-14,5.249-27.961,10.6-41.96,15.846-14.609,5.477-29.222,10.944-43.88,16.287-9.924,3.617-19.96,6.908-29.762,10.881-6.126,2.483-6.513,2-6.519-4.791V1067.149c0-1.331-.091-2.67.019-3.992.218-2.639-.653-3.674-3.557-3.995-9.387-1.037-18.886-1.085-28.187-2.279-14.092-1.81-28.3-2.373-42.337-4.6-4.416-.7-6.63.79-5.859,5.594a28.689,28.689,0,0,1,.036,4.487q-.018,228.649-.036,457.3a22.473,22.473,0,0,0,0,13.974c.012,10.753.007,21.506.045,32.26.014,3.945-.435,7.942,1.051,11.759a19.365,19.365,0,0,1-2.934,1.772c-12.94,5.012-25.876,10.037-38.862,14.926-12.03,4.529-24.121,8.9-36.185,13.335-.982-1.314,1.714-5.511-2.215-4.16-14.87,5.113-29.608,10.631-44.275,16.308-13.369,5.174-26.6,10.69-40.411,14.651-.661-122.544.919-245.091-.863-367.637-.834-57.372-.188-114.766-.077-172.15.009-4.182.022-7.726-5.058-8.63.757-.251,1.551-.8,2.266-.713,10.5,1.306,20.594-1.979,30.909-2.693,13.53-.936,26.749-4.434,40.4-4.616,5.247-.07,10.474-1.623,15.711-2.5a11.7,11.7,0,0,0-5.845-2.256c-4.563-.412-9.149-.58-13.539-2.083q-.053-54.773-.106-109.547c15.846-1.085,31.739-1.725,47.518-3.431,8.847-.957,17.757-.937,26.521-2.116,13.282-1.787,26.667-2.089,39.957-3.618,10.266-1.182,20.586-1.875,30.876-2.855,4.684-.447,9.526-1.282,14.022-1.315,12-.089,23.743-2.593,35.712-2.712,10.484-.1,20.8-3.275,31.4-2.192a12.956,12.956,0,0,0,3.479-.124c1.285-.223,1.323-1.283,1.155-2.341a13.773,13.773,0,0,1,6.4-.281c6.851.985,6.853,1.008,6.847,8.054q-.038,42.793-.08,85.586c-10.647.635-20.949-2.609-32.019-.556-12.877,2.388-26.206,3.281-39.312,4.836-17.37,2.06-34.71,4.528-52.07,6.778a119.621,119.621,0,0,1-12.372.939c-1.176.031-2.538.287-2.522,1.784.016,1.39,1.395,1.015,2.3,1.231,8.574,2.046,17.4,1.862,26.081,2.972,10.814,1.382,21.622,2.958,32.484,3.766,8.04.6,16.028,2.01,24.264.57,12.849-2.245,25.8-4.344,38.8-5.157,12.369-.773,24.239-4.338,36.691-4.858,8.931-.372,18.023-1.88,26.956-3.448,2.542-.447,5.623.269,7.467-2.459,4.485-1.239,6.453.153,6.285,5.1-.282,8.312-.076,16.641-.076,24.962q0,183.991-.076,367.982c0,3.743.774,5.831,4.54,7.46,16.908,7.31,33.648,15.012,50.433,22.605q39.607,17.916,79.2,35.869c33.08,14.955,66.128,29.985,99.315,44.7C867.689,1551.429,871.9,1554.938,877.409,1554.612ZM518.814,1295.553V1504.17c0,8.966-.074,8.623,8.634,6.755,5.072-1.088,6.46-3.333,6.455-8.4q-.209-209.614-.112-419.23c0-1.5.076-3-.063-4.488-.072-.762-.386-2.005-.857-2.146-4.334-1.3-8.6.262-12.744,1.052-2.5.476-1.261,3.748-1.263,5.732Q518.774,1189.5,518.814,1295.553Zm42.952-10.793V1492.4c0,1.331-.01,2.663.027,3.993.03,1.04.223,1.919,1.567,2.088,5.2.65,11.386-4.685,11.386-9.882q0-205.9,0-411.792c0-1.331.014-2.663-.032-3.992a2.371,2.371,0,0,0-1.282-2.435c-5.666-2.776-11.665.914-11.665,7.233Q561.765,1181.188,561.766,1284.76Zm36.958-9.372q0,101.067,0,202.133c0,1.331-.011,2.662.029,3.992.03,1.032.286,2.369,1.532,2.016a53.9,53.9,0,0,0,10.293-3.6c2.193-1.144,1.086-3.97,1.087-6.028q.064-200.636.037-401.271c0-1.33,0-2.661-.036-3.992a2.233,2.233,0,0,0-1.436-2.32c-6.114-2.586-11.506.869-11.506,7.438Q598.724,1174.571,598.724,1275.388ZM387.008,1441.425c0-4.313-.032-8.627.013-12.94.023-2.241.047-3.751-3.22-2.98-9.945,2.348-19.57,5.738-29.366,8.56-1.832.527-2.526,1.818-2.512,3.757.065,8.959.042,17.918.017,26.877-.006,2.067.408,3.055,2.9,2.306,9.142-2.748,18.337-5.317,27.525-7.912,3.445-.973,5.163-2.818,4.731-6.728A100.49,100.49,0,0,1,387.008,1441.425Zm-32.063-185.1c0,4.316.046,8.632-.017,12.946-.037,2.6.266,3.907,3.658,3.173,9.655-2.088,19.4-3.749,29.143-5.436,2.417-.419,2.265-2.008,2.268-3.662.015-8.465-.1-16.932.057-25.395.062-3.43-1.192-4.425-4.472-3.727-5.159,1.1-10.385,1.877-15.548,2.961-4.822,1.012-11,.817-14.012,3.77-3.187,3.122-.7,9.459-1.074,14.374C354.923,1255.659,354.945,1255.993,354.945,1256.325Zm1-128.824c0,4.153.218,8.322-.064,12.456-.259,3.793,1.55,4.746,4.755,4.192,9.244-1.6,18.466-3.323,27.718-4.871,1.821-.3,2.648-1.014,2.644-2.845q-.029-13.206,0-26.414c.005-2.122-.887-2.992-3.071-2.705-7.847,1.029-15.719,1.88-23.555,2.987-8.445,1.194-8.432,1.287-8.431,10.223ZM388,1376.436q0-6.722,0-13.445c0-1.869-.056-3.193-2.787-2.352q-13.918,4.29-27.995,8.057c-2.417.647-3.3,1.785-3.286,4.112.037,8.963.071,17.927-.015,26.89-.027,2.813,1.521,3.884,3.718,2.977,8.748-3.615,18.124-5.2,26.934-8.58,2.467-.948,3.653-2.393,3.5-5.212C387.837,1384.746,388.008,1380.586,388,1376.436Zm-1,128.662c0-4.319-.06-8.639.022-12.956.05-2.635-.427-3.459-3.42-2.448-9.525,3.218-19.168,6.094-28.811,8.945-1.946.576-2.823,1.547-2.825,3.451q-.015,13.455-.01,26.909c0,2.254.92,2.865,3.152,2.158,8.464-2.68,16.927-5.387,25.481-7.754,5.005-1.385,7.409-3.886,6.5-9.349C386.611,1511.144,387.009,1508.088,387.006,1505.1Zm3-319.376c0-2.663.093-5.33-.027-7.987-.118-2.629,1.141-5.88-.642-7.717-1.624-1.672-4.188,1.02-6.477,1.008a7.433,7.433,0,0,0-1.495.047c-7.579,1.529-15.152,3.091-22.732,4.613-2.265.455-2.738,1.9-2.719,4,.079,8.32.109,16.642-.006,24.962-.042,3,1.254,3.863,3.968,3.34,7.14-1.377,14.318-2.575,21.412-4.154,8.748-1.947,8.718-2.082,8.718-11.122ZM357.942,996.834c0,3.657.332,7.353-.082,10.962-.559,4.881,1.573,6.115,5.946,5.606,8.038-.935,16-2.64,24.19-2.145,2.671.161,4.1-1.473,4.05-4.463-.132-8.144-.19-16.294.024-24.435.093-3.525-1.52-4.574-4.489-3.974a113.963,113.963,0,0,1-26.192,1.936c-2.616-.08-3.539,1.016-3.472,3.547C358.031,988.188,357.948,992.512,357.942,996.834Zm0,66.769c0,4.477.04,8.955-.017,13.431-.029,2.264.678,3.426,3.212,3.048,8.787-1.311,17.568-2.7,26.393-3.689,2.93-.328,3.537-1.5,3.506-4.072-.1-8.124-.3-16.262.064-24.37.216-4.84-2.214-5.119-5.787-4.6-6.839,1-13.677,2-20.524,2.943s-6.849.914-6.851,7.857Q357.941,1058.877,357.946,1063.6Zm-4,257.48c0,4.159.068,8.319-.022,12.476-.066,3.026,1.145,3.812,4,2.926a194.054,194.054,0,0,1,22.437-5.613c7.054-1.3,7.646-2.037,7.646-9.313,0-6.487-.1-12.977.044-19.462.066-2.933-.374-4.162-3.835-3.332-8.49,2.036-17.1,3.56-25.624,5.474-3.188.716-5.174,2.5-4.73,6.374A93.209,93.209,0,0,1,353.949,1321.083Zm109.968-334.89c0-4.152-.046-8.3.019-12.457.034-2.162-.52-3.629-3.053-3.345-8.849.99-17.694,2.031-26.55,2.96-1.972.207-2.475,1.26-2.472,2.98.016,8.637.045,17.275-.023,25.911-.018,2.4,1.015,3.341,3.321,3.078,8.518-.969,17.026-2.062,25.562-2.832,2.751-.249,3.27-1.518,3.223-3.838C463.86,994.5,463.92,990.346,463.917,986.193Zm67.928-3.852c0-3.994-.192-8,.057-11.978.221-3.525-1.529-4.7-4.467-3.962-6.84,1.726-13.886.366-20.781,1.737-2.917.581-3.981,1.27-3.923,4.232.149,7.652.2,15.314-.02,22.962-.1,3.523,1.45,4.33,4.488,4.035,7.24-.7,14.479-1.435,21.733-1.949,2.559-.182,2.96-1.511,2.928-3.594C531.8,990,531.844,986.169,531.845,982.341Z" fill="#b6c3c2"/>
    <path id="路径_94" data-name="路径 94" d="M-183.4,1549.619c9.4-2.835,18.02-7.5,26.938-11.451,24.849-11.008,49.615-22.2,74.386-33.388,17.952-8.1,35.854-16.319,53.8-24.447,1.5-.681,3.128-1.083,4.7-1.614v46.976c-1.773-.228-3.56-.383-5.315-.711-1.05-.2-2.351-.305-2.419.817a63.68,63.68,0,0,0-.024,11.268c.264,2.236,3.079,1.946,4.788,2.716,1.328.6,2.884.928,3.043,2.792q-.042,20.6-.083,41.206c0,1.832-.237,3.993,1.926,4.656,7.223,2.212,13.51,6.823,21.07,8.128,7.341,4.19,15.4,6.725,23.217,9.764,6.907,2.685,13.261,6.783,20.667,8.188,4.73,1.586,8.9,4.725,14.09,5.04,15.022,7.247,30.34,13.813,45.855,19.923,4.92.441,8.749,4.7,14,3.994.131,1.378,1.094,1.775,2.255,2.238q23.334,9.307,46.624,18.729l15.222,5.99c2.764,1.053,5.543,2.07,8.29,3.165q22.227,8.858,44.44,17.748c6.834,3.021,13.68,6.017,20.5,9.071,4.454,1.994,5.5,1.375,5.517-3.6.031-13.942,0-27.885.025-41.828,0-1.929-.6-4.312,1.735-5.282,7.564-3.138,14.828-7.148,23.116-8.269q.1,24.949.193,49.9c-6.563,2.792-13.139,5.55-19.675,8.4-1.288.563-3.156.882-3.043,2.82.1,1.691,1.817,1.634,2.988,2.15,16.842,7.431,33.827,14.558,50.475,22.4,24.12,11.361,48.615,21.872,72.875,32.907,5.79,2.634,12.06,4.492,17.2,8.516-.352.343-.642.823-1.063,1.01q-28.293,12.575-56.6,25.121c-1.751.78-3.027.222-4.631-.544-9.706-4.637-19.491-9.111-29.26-13.615q-43.24-19.93-86.479-39.86c-17.264-8-34.414-16.248-51.673-24.258-20.024-9.293-40.136-18.393-60.163-27.679-17.2-7.976-34.315-16.14-51.506-24.139q-32.533-15.138-65.13-30.141c-17.246-7.96-34.528-15.844-51.765-23.826-17.107-7.923-34.148-15.987-51.27-23.878-14.324-6.6-28.625-13.262-43.116-19.479-12.1-5.192-24.463-9.78-36.71-14.635Z" fill="#b6c3c2"/>
    <path id="路径_95" data-name="路径 95" d="M-183.4,1552.615c12.247,4.855,24.608,9.443,36.71,14.635,14.491,6.217,28.792,12.879,43.116,19.479,17.122,7.891,34.163,15.955,51.27,23.878,17.237,7.982,34.519,15.866,51.765,23.826q32.58,15.039,65.13,30.141c17.191,8,34.3,16.163,51.506,24.139,20.027,9.286,40.139,18.386,60.163,27.679,17.259,8.01,34.409,16.257,51.673,24.258q43.2,20.019,86.479,39.86c9.769,4.5,19.554,8.978,29.26,13.615,1.6.766,2.88,1.324,4.631.544q28.283-12.594,56.6-25.121c.421-.187.711-.667,1.063-1.01l2.984-.156q0,14.951-.005,29.9c-13.32,5.536-26.663,11.017-39.951,16.629-6.562,2.771-13.013,5.8-19.533,8.675a7.225,7.225,0,0,1-6.238-.082q-73.911-33.9-147.853-67.735-47.712-21.861-95.406-43.758-61.3-28.021-122.634-55.955c-48.7-22.276-97.35-44.676-146.106-66.835-4.723-2.147-9.015-5.69-14.62-5.649Z" fill="#578438"/>
    <path id="路径_96" data-name="路径 96" d="M222.289,932.76l14.826-.444c5.62,1.968,10.937.824,16.131-1.574l8.845-.384c2.524,1.486,4.966,2,7.148-.6q4.416-.341,8.83-.68c1.826,1.94,3.556,2.03,5.163-.266l9.817-.429a4.428,4.428,0,0,0,5.008.852c3.577-1.415,8.15,1.2,10.989-2.8h15.983c5.706,3.221,11.738,3.53,17.975,2.011l8.857.3c2.269,2.509,4.666,2.229,7.138.328q4.917.34,9.834.678c2.51,2.905,5.316,1.906,8.143.613q4.917.21,9.834.417c2.22,3.242,5.823,1.515,8.646,2,5.38.927,11.03,1.616,16.473-.343q4.908.22,9.816.437c2.548,2.639,5.345,1.743,8.162.575l5.874.233c.739,1.928,1.766,2.21,3.135.547l17.949.945c5.6,1.409,11.159,3.47,17.009,1.123q8.889.324,17.778.645c5.608,1.891,11.237,3.531,17.177,1.417l25.9,1.175c2.75,3.254,5.913,1.949,9.06.821,3.247.4,6.566-.408,9.776.59.167,1.061.129,2.121-1.156,2.344a12.956,12.956,0,0,1-3.479.124c-10.606-1.083-20.919,2.087-31.4,2.192-11.969.119-23.708,2.623-35.712,2.712-4.5.033-9.338.868-14.022,1.315-10.29.98-20.61,1.673-30.876,2.855-13.29,1.529-26.675,1.831-39.957,3.618-8.764,1.179-17.674,1.159-26.521,2.116-15.779,1.706-31.672,2.346-47.517,3.429-3.647-.153-7.308-.154-10.94-.479-13.321-1.191-26.619-2.654-39.95-3.694-10.38-.81-20.8-1.59-31.12-2.642-11.981-1.221-24.031-1.679-35.989-3.285-9.652-1.3-19.45-1.476-29.172-2.287-14.979-1.249-29.976-2.362-44.91-4.029-8.724-.973-17.408-1.912-26.192-2.157-2.036-.057-4.715.2-6.439-1.829q2.925-.187,5.85-.371c5.53.927,10.876-.123,16.193-1.5q7.389-.246,14.78-.489c5.535,1,10.891.082,16.186-1.5l15.984-.86A25.711,25.711,0,0,0,183.5,934.83l22.649-.589c1.374,1.695,2.391,1.349,3.137-.547l4.877-.227C216.984,934.556,219.811,935.667,222.289,932.76Z" fill="#8e9b9b"/>
    <path id="路径_97" data-name="路径 97" d="M877.409,1589.566c-10.263,2.692-19.713,7.513-29.495,11.434-26.415,10.587-52.666,21.584-78.991,32.4-6.112,2.51-12.261,4.929-18.393,7.39-.011-8.645.05-17.292-.077-25.936-.035-2.437.5-3.655,3.071-4.671,9.222-3.639,18.24-7.788,27.374-11.654,12.336-5.221,24.715-10.342,37.062-15.537,13.206-5.557,26.451-11,39.8-16.229,6.58-2.577,13.586-4.288,19.652-8.151Z" fill="#578438"/>
    <path id="路径_98" data-name="路径 98" d="M343,928.453c-6.237,1.519-12.269,1.21-17.975-2.011h8.989c.333.6.666.786,1,0h7.991Q343.006,927.447,343,928.453Z" fill="#b6c3c2"/>
    <path id="路径_99" data-name="路径 99" d="M309.046,926.442c-2.839,3.994-7.412,1.382-10.989,2.8a4.428,4.428,0,0,1-5.008-.852q.007-.974.015-1.945Z" fill="#b6c3c2"/>
    <path id="路径_100" data-name="路径 100" d="M335.017,926.442c-.333.786-.666.6-1,0Z" fill="#fefefe"/>
    <path id="路径_101" data-name="路径 101" d="M-23.586,1525.695v-46.976q0-212.772.011-425.543c0-1.662.054-3.323.082-4.984a469.9,469.9,0,0,0,53.781,7.255c.628,2.559,2.6,1.682,4.242,1.659l3.805.057c1.27,1.509,2.608,1.454,4,.173l2.945.085a2.079,2.079,0,0,0,1.991,1.827c5.032.647,10.041,1.6,15.091,1.909,2.277.141,4.65,2.511,6.959.076l6.9.252c2.255,2.582,4.9,3.392,8.077,1.771l3.944.12c3.521,3.654,7.668,3.447,12.024,1.949l3.934.127a11.036,11.036,0,0,0,11.049,1.873l3.937.111a9.554,9.554,0,0,0,11.048,1.876l4.91.208c3.205,3.442,7.015,3.329,11.052,1.881l3.936.1c3.321,2.8,6.975,3.6,11.058,1.854l3.924.148c2.21,2.7,5.222,2.741,8.317,2.5l7.744.149c2.541,1.226,4.994,3.06,7.99,1.162,2.4-.318,4.682.4,6.994.84,2.551,1.192,5,3.1,8,1.121l7.882.342c2.109,2.992,5.216,2.64,8.27,2.463l10.757.313c.62,2.576,2.6,1.693,4.243,1.667l4.808.119q1.431,1.923,2.994.1l2.945.09c.608,2.582,2.583,1.729,4.235,1.686l2.834,0c5.079.905,5.066,4.449,5.057,8.631-.111,57.384-.757,114.778.077,172.15,1.782,122.546.2,245.093.863,367.638l-.121.115c-15.277-5.683-30.589-11.275-45.822-17.075-14.568-5.547-29.033-11.362-43.579-16.965-16.388-6.311-32.824-12.5-49.226-18.773-15.062-5.761-30.085-11.625-45.168-17.327-12.831-4.851-25.853-9.221-38.557-14.378-15.729-6.385-31.6-12.371-47.406-18.56C-15.091,1529.827-20.237,1529.637-23.586,1525.695Zm253.718-180.836q0-116.078.12-232.153c.012-5.34-1.067-7.873-6.813-8.749-8.357-1.274-8.285-1.752-8.285,6.778v454.321c0,12.662,0,12.661,11.373,17.463.3.127.538.4.838.535,1.587.694,2.618.285,2.721-1.55.084-1.494.045-2.995.045-4.492Q230.134,1460.934,230.132,1344.859ZM169.2,1327.446V1101.324c0-1.331-.088-2.668.013-3.991.195-2.549-1.237-3.69-3.468-3.98-3.115-.406-6.3.168-9.4-.8-1.5-.468-2.043.706-2.077,2.033-.043,1.663-.04,3.327-.04,4.991q0,223.126,0,446.253c0,9.4,0,9.4,8.613,12.835,6.363,2.539,6.365,2.539,6.365-4.6Q169.2,1440.756,169.2,1327.446Zm-57.935-14.467V1093.321c0-7.447,0-7.447-7.677-8.083-6.3-.523-6.3-.523-6.3,6.034q0,218.661-.159,437.32c-.008,5.72,1.771,8.329,6.947,9.909,6.641,2.028,7.191,1.819,7.191-5.364Q111.266,1423.058,111.266,1312.979Zm-55.937-13.986q0-107.3,0-214.6c0-1.5.077-3-.057-4.488-.069-.768-.429-2.095-.817-2.156-3.566-.561-7.351-1.757-10.7-1.042-2.838.6-1.337,4.341-1.338,6.62q-.109,210.359-.065,420.717c0,10.394.111,10.134,9.767,14.277,3.442,1.477,3.229.078,3.214-2.232-.007-1.164,0-2.329,0-3.493ZM3.387,1284.465v-147.79c0-20.971-.05-41.941.049-62.911.016-3.55-.587-5.631-4.854-5.581-6.167.073-6.177-.175-6.177,6.286q0,208.2,0,416.409a25.542,25.542,0,0,0,.045,3.491c.348,2.5,6.453,6.556,9.472,5.793s1.386-3.663,1.389-5.5Q3.447,1389.565,3.387,1284.465Z" fill="#cbd8d6"/>
    <path id="路径_102" data-name="路径 102" d="M408.944,1768.382l-2.984.156c-5.136-4.024-11.406-5.882-17.2-8.516-24.26-11.035-48.755-21.546-72.875-32.907-16.648-7.842-33.633-14.969-50.475-22.4-1.171-.516-2.89-.459-2.988-2.15-.113-1.938,1.755-2.257,3.043-2.82,6.536-2.854,13.112-5.612,19.674-8.4,14.4-5.332,28.122-12.177,41.929-18.829,5.565-.114,9.676-4.213,14.815-5.415,3.479-.814,4.219-2.853,4.183-6.144-.162-14.466-.089-28.934-.1-43.4l.054-9.864c12.064-4.438,24.155-8.806,36.185-13.335,12.986-4.889,25.922-9.914,38.862-14.926a19.306,19.306,0,0,0,2.933-1.772,13.8,13.8,0,0,1,6.331.891c6.492,2.333,12.957,4.769,19.543,6.807,16.734,5.179,33.408,10.523,49.829,16.629,1.161.432,2.2.794,3.131-.355,8.228-2.775,16.538-5.334,24.647-8.423,3.637-1.385,8.123-1.4,10.537-5.308l1.773-.2c2.734,2.189,5.15-.686,6.465-1.589,2.746-1.888,7.448.1,8.61-4.408a1.976,1.976,0,0,0,.779-.3l22.18-8.922c2.727.6,5.128-1.19,7.791-1.066,4.81-1.533,9.739-2.786,14.375-4.735,1.915-.8,4.92-.021,5.725-3.019,3.583.223,3.737-2.46,4.164-4.911,2.058-.618,4.475-.746,6.106-1.944,4.99-3.665,9.556-1.249,13.977.7,11.652,5.123,23.118,10.666,34.748,15.84,14.59,6.491,29.264,12.794,43.912,19.154,12.358,5.366,24.716,10.731,37.119,15.994,1.3.552,2.639.846,2.641,2.464,0,1.636-1.569,1.292-2.557,1.751-12.027,5.582-23.971,11.346-36.046,16.82-18.039,8.176-36.356,15.762-54.183,24.368-11.063,5.341-22.254,10.382-33.4,15.523-11.444,5.278-23.334,9.66-34.487,15.473-8.888,4.632-18.12,8.405-27.149,12.66-10.5,4.95-21.562,8.81-31.758,14.3-9.534,5.131-19.362,9.609-29.226,13.863-21.86,9.427-43.08,20.229-64.966,29.567-7.827,3.339-15.213,7.684-23.38,10.233A2.941,2.941,0,0,0,408.944,1768.382Z" fill="#f2f1dc"/>
    <path id="路径_103" data-name="路径 103" d="M502.837,1601.628c-.929,1.148-1.97.786-3.131.354-16.421-6.106-33.1-11.45-49.829-16.629-6.586-2.038-13.051-4.474-19.543-6.807a13.8,13.8,0,0,0-6.331-.891c-1.485-3.817-1.036-7.814-1.05-11.759-.038-10.754-.033-21.507-.045-32.26,12.968,3.821,25.95,7.595,38.9,11.478,12.314,3.693,24.589,7.518,36.9,11.234,1.663.5,2.736.03,3.126-2.023,1.463-7.724.043-10.01-7.606-11.8-.958-.224-1.843-.739-2.787-1.043-12.2-3.937-24.361-7.984-36.611-11.748-10.666-3.278-21.492-6.037-31.917-10.075q.018-228.649.036-457.3a28.689,28.689,0,0,0-.036-4.487c-.771-4.8,1.443-6.295,5.859-5.594,14.032,2.227,28.245,2.79,42.337,4.6,9.3,1.194,18.8,1.242,28.187,2.279,2.9.321,3.775,1.356,3.557,3.995-.11,1.322-.019,2.661-.019,3.992V1535.43c.006,6.791.393,7.274,6.519,4.791,9.8-3.973,19.838-7.264,29.762-10.881,14.658-5.343,29.271-10.81,43.88-16.287,14-5.249,27.961-10.6,41.96-15.846,1.371-.514,3.019-.371,4.31-1,2.5-1.216,5.448-3.842,7.611-1.746,2.188,2.12.67,6.022.744,9.135.051,2.094-1.8,2.535-3.385,3.086-21.215,7.389-41.955,16.062-63.236,23.305-5.144,1.751-10.846,2.878-15.224,6.653l-1.9.076a1.856,1.856,0,0,0-2.21,1.591L539,1541.83c-1.989-.3-2.933.757-3.308,2.551-3.112.081-5.838,1.615-8.781,2.331a1.8,1.8,0,0,0-2.189,1.716c-1.081.164-2.266.06-2.989,1.151-4.94.625-9.2,3.428-13.84,4.6-4.567,1.149-5.182,3.337-5.131,7.279C502.938,1574.843,502.835,1588.236,502.837,1601.628Z" fill="#cbd8d6"/>
    <path id="路径_104" data-name="路径 104" d="M98.21,941.258c1.724,2.027,4.4,1.772,6.439,1.829,8.784.245,17.468,1.184,26.192,2.157,14.934,1.667,29.931,2.78,44.91,4.029,9.722.811,19.52.99,29.172,2.287,11.958,1.606,24.008,2.064,35.989,3.285,10.324,1.052,20.74,1.832,31.12,2.642,13.331,1.04,26.629,2.5,39.95,3.694,3.632.325,7.293.326,10.94.479q.051,54.777.105,109.55l-4.995.013a12.846,12.846,0,0,0-8.17-1.8l-7.811-.19a12.759,12.759,0,0,0-8.163-1.817l-7.823-.2a14.636,14.636,0,0,0-9.116-1.838l-7.877-.22a13.969,13.969,0,0,0-8.1-1.782c-13.8-.071-27.231-3.311-40.885-4.683-14.635-1.47-29.217-3.494-43.8-5.467-13.767-1.862-27.53-3.712-41.341-5.249-14.942-1.663-29.825-3.853-44.734-5.813q.039-47.556.079-95.112C90.3,940.213,91.437,939.388,98.21,941.258Zm184.862,99.715c0,3.659.139,7.326-.046,10.976-.139,2.752.558,4.332,3.6,4.717,5.4.683,10.767,1.7,16.157,2.5,2.666.4,4.427-.1,4.333-3.557-.2-7.479-.108-14.969-.033-22.453.022-2.3-.4-3.613-3.154-3.926-5.9-.671-11.77-1.728-17.633-2.73-2.54-.434-3.272.7-3.233,2.994C283.125,1033.321,283.078,1037.147,283.072,1040.973Zm-20.97-48.12q0-5.964,0-11.928c0-1.741-.052-3.367-2.445-3.488q-9.141-.459-18.276-1.025c-2.291-.139-3.3.773-3.279,3.149.073,7.62.026,15.241.019,22.862,0,1.422.2,2.652,1.991,2.85,6.053.67,12.107,1.34,18.154,2.064,3.167.379,4.033-1.134,3.878-4.05C261.963,999.818,262.1,996.332,262.1,992.853Zm-68.932,41.681c0,3.65.142,7.307-.045,10.947-.146,2.843,1.041,3.652,3.74,3.832,5.42.364,10.827,1.021,16.213,1.751,3.028.411,4.2-.507,4.129-3.677-.169-7.129-.122-14.266-.018-21.4.035-2.379-.578-3.691-3.2-3.916-5.581-.481-11.15-1.126-16.713-1.8-3.405-.411-4.343,1.173-4.151,4.309C193.33,1027.889,193.173,1031.216,193.17,1034.534Zm67.929,6.681c0-3.815-.1-7.634.035-11.444.094-2.577-.946-3.378-3.472-3.557-5.585-.4-11.154-1.095-16.711-1.809-2.794-.358-3.954.545-3.866,3.463.15,4.972.04,9.951.04,14.927,0,10.12,0,10.12,9.8,11.4,14.177,1.847,14.177,1.847,14.177-12.479C261.1,1041.547,261.1,1041.381,261.1,1041.215Zm46.95-44.863c0-3.816.009-7.631,0-11.447-.006-1.693.076-3.4-2.391-3.513-5.772-.27-11.542-.6-17.311-.953-2.294-.139-3.314.779-3.291,3.153.07,7.3.02,14.6.028,21.9,0,1.771.346,3.654,2.484,3.624,5.683-.079,11.145,1.226,16.672,2.184,2.668.462,4.005-.534,3.859-3.5C307.908,1003.99,308.05,1000.167,308.049,996.352Zm-89.9-6.024c0-3.484-.11-6.972.036-10.449.108-2.577-.945-3.4-3.458-3.587-5.585-.407-11.148-1.123-16.713-1.774-2.3-.269-3.9.023-3.861,2.94.086,6.966.042,13.933.013,20.9-.008,1.72.466,2.769,2.433,3.005,4.249.51,8.461,1.347,12.713,1.822,8.83.987,8.843.921,8.841-7.881Q218.149,992.816,218.147,990.328ZM173.2,1031.2c0-3.48-.119-6.965.04-10.438.111-2.43-.9-3.851-3.175-4.227-4.878-.8-9.788-1.414-14.67-2.2-3.378-.543-4.353.922-4.228,4.131.2,5.129.053,10.272.053,15.408,0,8.725,0,8.7,8.5,9.494,2.29.213,4.554.8,6.844.9,6.632.285,6.635.222,6.636-6.6Zm-61.933-51.684c0,3.488.026,6.976-.011,10.463-.02,1.836.24,3.22,2.586,3.348,5.279.29,10.551.733,15.823,1.144,2.432.19,3.671-.6,3.617-3.324q-.192-9.711,0-19.429c.047-2.651-1.15-3.309-3.574-3.5-4.928-.4-9.832-1.118-14.738-1.76-2.421-.318-3.832.292-3.726,3.1C111.369,972.868,111.272,976.193,111.268,979.514Zm-1,45.112c0,3.493.1,6.99-.036,10.477-.086,2.231.832,3.634,2.935,3.874,4.932.562,9.888.907,14.834,1.348,2.3.205,3.309-.732,3.278-3.138q-.135-10.227,0-20.457c.027-2.234-.606-3.445-3.073-3.375-4.834.139-9.543-.821-14.249-1.8-2.428-.508-3.807.326-3.709,3.1C110.364,1017.97,110.275,1021.3,110.265,1024.626Zm63.926-38.707c0-3.485-.047-6.971.018-10.454.037-2.007-.675-2.971-2.82-3.181-4.92-.481-9.816-1.209-14.723-1.826-2.161-.272-3.493.314-3.465,2.871.074,6.969.055,13.94,0,20.91-.016,2,.615,2.97,2.792,3.17,5.086.466,10.147,1.21,15.222,1.806,2.082.244,3.053-.685,3.007-2.841C174.148,992.89,174.2,989.4,174.191,985.919Z" fill="#cbd8d6"/>
    <path id="路径_105" data-name="路径 105" d="M518.814,1295.553q0-106.055.05-212.111c0-1.984-1.236-5.256,1.263-5.732,4.146-.79,8.41-2.351,12.744-1.052.471.141.785,1.384.857,2.146.139,1.485.063,2.991.063,4.488q0,209.615.112,419.23c.005,5.07-1.383,7.315-6.455,8.4-8.708,1.868-8.634,2.211-8.634-6.755Z" fill="#fefefe"/>
    <path id="路径_106" data-name="路径 106" d="M318.032,1071.223l4.995-.013c4.39,1.5,8.976,1.67,13.539,2.082a11.7,11.7,0,0,1,5.845,2.256c-5.237.877-10.464,2.43-15.711,2.5-13.652.182-26.871,3.68-40.4,4.616-10.315.714-20.406,4-30.909,2.693-.715-.088-1.509.462-2.266.713q-1.416,0-2.834,0c-.68-2.4-2.578-1.739-4.234-1.687l-2.945-.09c-.955-1.277-1.956-1.227-2.994-.1l-4.809-.118c-.688-2.4-2.582-1.737-4.242-1.668l-10.759-.311c-2.094-3.042-5.335-2.24-8.268-2.465l-7.882-.342c-2.543-1.242-5.037-2.838-8-1.121-2.312-.441-4.591-1.158-6.994-.84-2.534-1.278-5.016-2.91-7.99-1.162q-3.872-.075-7.746-.147c-2.165-2.848-5.266-2.591-8.315-2.5l-3.924-.149c-3.522-1.6-7.277-1.8-11.058-1.853q-1.968-.051-3.935-.1c-3.414-2.217-7.18-2.363-11.053-1.88l-4.91-.208c-3.432-2.1-7.2-2.233-11.048-1.876l-3.936-.112c-3.432-2.109-7.2-2.259-11.05-1.872l-3.934-.128c-3.739-2.31-7.875-2.171-12.024-1.948l-3.945-.119a12.468,12.468,0,0,0-8.076-1.772l-6.9-.252c-7.717-3.14-16.033-2.505-24.041-3.812l-2.945-.086c-1.273-1.434-2.615-1.291-4-.172q-1.9-.028-3.807-.055c-.687-2.407-2.578-1.741-4.24-1.661a469.9,469.9,0,0,1-53.781-7.255c6.469-2.282,13.326-1.8,19.984-2.641q30.8-3.9,61.72-6.892c7.952-.78,15.761,2.006,23.732,2.157,1.065,1.944,2.8,1.472,4.475,1.245l3.8.1c14.909,1.959,29.792,4.149,44.734,5.812,13.811,1.537,27.574,3.387,41.341,5.249,14.58,1.973,29.162,4,43.8,5.467,13.654,1.372,27.089,4.612,40.886,4.682,2.253,2.622,5.033,2.851,8.1,1.783l7.878.219c2.647,2.553,5.647,3.354,9.115,1.839l7.825.2c2.266,2.644,4.969,3.326,8.161,1.818q3.906.094,7.813.189C312.138,1072.059,314.838,1072.76,318.032,1071.223Z" fill="#8e9b9b"/>
    <path id="路径_107" data-name="路径 107" d="M561.766,1284.76q0-103.572,0-207.144c0-6.319,6-10.009,11.665-7.233a2.371,2.371,0,0,1,1.282,2.435c.046,1.329.032,2.661.032,3.992q0,205.9,0,411.792c0,5.2-6.186,10.532-11.386,9.882-1.344-.169-1.537-1.048-1.567-2.088-.037-1.33-.027-2.662-.027-3.993Z" fill="#fefefe"/>
    <path id="路径_108" data-name="路径 108" d="M598.724,1275.388q0-100.816,0-201.633c0-6.569,5.392-10.024,11.506-7.438a2.233,2.233,0,0,1,1.436,2.32c.033,1.331.036,2.662.036,3.992q0,200.635-.037,401.271c0,2.058,1.106,4.884-1.087,6.028a53.9,53.9,0,0,1-10.293,3.6c-1.246.353-1.5-.984-1.532-2.016-.04-1.33-.029-2.661-.029-3.992Q598.724,1376.454,598.724,1275.388Z" fill="#fefefe"/>
    <path id="路径_109" data-name="路径 109" d="M346.023,1607.688l-.054,9.864c-6.754,1.487-13.427,3.171-18.926,7.732a17.676,17.676,0,0,0-6.32,1.165c-8.5,3.276-17.178,6.146-25.506,9.81-3.461,1.523-7.935,1.358-10.266,5.182-8.288,1.121-15.552,5.131-23.116,8.269-2.339.97-1.732,3.353-1.735,5.282-.026,13.943.006,27.886-.025,41.828-.012,4.972-1.063,5.591-5.517,3.6-6.82-3.054-13.666-6.05-20.5-9.071q.089-24.954.177-49.909a12.073,12.073,0,0,1,4.285.861c5.683,2.473,11.533,4.56,17.2,7.057,2.882,1.269,3.456.292,3.382-2.37-.116-4.125-.078-8.254-.1-12.382l.121-.115c13.806-3.962,27.042-9.478,40.411-14.652,14.667-5.677,29.4-11.2,44.275-16.308C347.737,1602.177,345.041,1606.374,346.023,1607.688Z" fill="#cbd8d6"/>
    <path id="路径_110" data-name="路径 110" d="M598.729,1038.212q2.919.213,5.837.423c1.384,2.4,3.2,1.95,5.127.775q1.932.1,3.867.2c1.4,2.494,3.208,2.013,5.135.717q2.392.192,4.783.388c-1.845,2.73-4.926,2.014-7.468,2.461-8.933,1.568-18.025,3.076-26.956,3.448-12.452.52-24.322,4.085-36.691,4.858-12.995.813-25.95,2.912-38.8,5.157-8.236,1.44-16.224.027-24.264-.57-10.862-.808-21.67-2.384-32.484-3.766-8.681-1.11-17.507-.926-26.081-2.972-.9-.216-2.282.159-2.3-1.231-.016-1.5,1.346-1.753,2.522-1.784a119.621,119.621,0,0,0,12.372-.939c17.36-2.25,34.7-4.718,52.07-6.778,13.106-1.555,26.435-2.448,39.312-4.836,11.07-2.053,21.372,1.191,32.019.556l7.91,1.192c1.345,2.668,3.164,2.119,5.1.751q3.915.2,7.832.392C590.808,1040.651,594.747,1039.589,598.729,1038.212Z" fill="#8e9b9b"/>
    <path id="路径_111" data-name="路径 111" d="M526.913,1546.712c2.943-.716,5.669-2.25,8.782-2.329,2.022.34,2.793-.941,3.307-2.553q6.332-1.762,12.661-3.521c1.389.373,2.013-.315,2.21-1.593l1.9-.076q-.06,22.378-.121,44.757a1.981,1.981,0,0,1-.781.3,40.9,40.9,0,0,0-15.074,6c-.591.067-1.182.135-1.774.2-3.71.32-6.826,2.332-10.208,3.585-6.011,2.226-6,2.246-6.008-4q-.029-18.95-.069-37.9c.723-1.091,1.908-.987,2.99-1.15C526.078,1548.651,526.713,1547.958,526.913,1546.712Z" fill="#8e9b9b"/>
    <path id="路径_112" data-name="路径 112" d="M585.619,1571.408c-2.663-.124-5.064,1.665-7.791,1.066-.029-12.8.011-25.593-.141-38.388-.032-2.66.575-4.163,3.282-5.17,8.514-3.169,16.912-6.648,25.354-10.007,2.412-.96,3.478-.574,3.454,2.449-.1,12.46.047,24.922.105,37.384-.426,2.452-.58,5.135-4.163,4.912-5.2-.036-9.574,2.766-14.311,4.277C589.351,1568.588,586.116,1567.934,585.619,1571.408Z" fill="#8e9b9b"/>
    <path id="路径_113" data-name="路径 113" d="M387.009,1441.425a100.237,100.237,0,0,0,.085,10.94c.432,3.91-1.286,5.755-4.731,6.728-9.188,2.595-18.383,5.164-27.525,7.912-2.49.749-2.9-.239-2.9-2.306.025-8.959.048-17.918-.017-26.877-.014-1.939.68-3.23,2.512-3.757,9.8-2.822,19.421-6.212,29.366-8.56,3.267-.771,3.243.739,3.22,2.98C386.976,1432.8,387.008,1437.112,387.009,1441.425Z" fill="#8e9b9b"/>
    <path id="路径_114" data-name="路径 114" d="M354.945,1256.325c0-.332-.022-.666,0-1,.372-4.915-2.113-11.252,1.074-14.374,3.014-2.953,9.19-2.758,14.012-3.77,5.163-1.084,10.389-1.864,15.548-2.961,3.28-.7,4.534.3,4.472,3.727-.152,8.463-.042,16.93-.057,25.395,0,1.654.149,3.243-2.268,3.662-9.738,1.687-19.488,3.348-29.143,5.436-3.392.734-3.7-.574-3.658-3.173C354.991,1264.957,354.945,1260.641,354.945,1256.325Z" fill="#8e9b9b"/>
    <path id="路径_115" data-name="路径 115" d="M355.944,1127.5v-6.977c0-8.936-.014-9.029,8.431-10.223,7.836-1.107,15.708-1.958,23.555-2.987,2.184-.287,3.076.583,3.071,2.705q-.03,13.207,0,26.414c0,1.831-.823,2.54-2.644,2.845-9.252,1.548-18.474,3.274-27.718,4.871-3.205.554-5.014-.4-4.755-4.192C356.162,1135.823,355.944,1131.654,355.944,1127.5Z" fill="#8e9b9b"/>
    <path id="路径_116" data-name="路径 116" d="M388.006,1376.436c0,4.15-.169,8.31.062,12.447.157,2.819-1.029,4.264-3.5,5.212-8.81,3.384-18.186,4.965-26.934,8.58-2.2.907-3.745-.164-3.718-2.977.086-8.963.052-17.927.015-26.89-.009-2.327.869-3.465,3.286-4.112q14.068-3.765,27.995-8.057c2.731-.841,2.785.483,2.787,2.352Q388.008,1369.714,388.006,1376.436Z" fill="#8e9b9b"/>
    <path id="路径_117" data-name="路径 117" d="M387.008,1505.1c0,2.99-.4,6.046.087,8.956.909,5.463-1.495,7.964-6.5,9.349-8.554,2.367-17.017,5.074-25.481,7.754-2.232.707-3.153.1-3.152-2.158q0-13.455.01-26.909c0-1.9.879-2.875,2.825-3.451,9.643-2.851,19.286-5.727,28.811-8.945,2.993-1.011,3.47-.187,3.42,2.448C386.946,1496.459,387.006,1500.779,387.008,1505.1Z" fill="#8e9b9b"/>
    <path id="路径_118" data-name="路径 118" d="M390.006,1185.722v6.989c0,9.04.03,9.175-8.718,11.122-7.094,1.579-14.272,2.777-21.412,4.154-2.714.523-4.01-.342-3.968-3.34.115-8.32.085-16.642.006-24.962-.019-2.094.454-3.544,2.719-4,7.58-1.522,15.153-3.084,22.732-4.613a7.433,7.433,0,0,1,1.495-.047c2.289.012,4.853-2.68,6.477-1.008,1.783,1.837.524,5.088.642,7.717C390.1,1180.392,390.006,1183.059,390.006,1185.722Z" fill="#8e9b9b"/>
    <path id="路径_119" data-name="路径 119" d="M357.945,996.834c0-4.322.086-8.646-.028-12.966-.067-2.531.856-3.627,3.472-3.547a113.963,113.963,0,0,0,26.192-1.936c2.969-.6,4.582.449,4.489,3.974-.214,8.141-.156,16.291-.024,24.435.049,2.99-1.379,4.624-4.05,4.463-8.192-.495-16.152,1.21-24.19,2.145-4.373.509-6.505-.725-5.946-5.606C358.274,1004.187,357.942,1000.491,357.945,996.834Z" fill="#8e9b9b"/>
    <path id="路径_120" data-name="路径 120" d="M357.944,1063.6q0-4.725,0-9.451c0-6.943.006-6.913,6.851-7.857s13.685-1.947,20.524-2.943c3.573-.52,6-.241,5.787,4.6-.363,8.108-.161,16.246-.064,24.37.031,2.572-.576,3.744-3.506,4.072-8.825.987-17.606,2.378-26.393,3.689-2.534.378-3.241-.784-3.212-3.048C357.986,1072.558,357.946,1068.08,357.944,1063.6Z" fill="#8e9b9b"/>
    <path id="路径_121" data-name="路径 121" d="M353.948,1321.083a92.972,92.972,0,0,0-.085-10.47c-.444-3.878,1.542-5.658,4.73-6.374,8.522-1.914,17.134-3.438,25.624-5.474,3.461-.83,3.9.4,3.835,3.332-.145,6.485-.044,12.975-.044,19.462,0,7.276-.592,8.015-7.646,9.313a194.054,194.054,0,0,0-22.437,5.613c-2.853.886-4.064.1-4-2.926C354.017,1329.4,353.949,1325.242,353.948,1321.083Z" fill="#8e9b9b"/>
    <path id="路径_122" data-name="路径 122" d="M422.908,1519.662c10.425,4.038,21.251,6.8,31.917,10.075,12.25,3.764,24.414,7.811,36.611,11.748.944.3,1.829.819,2.787,1.043,7.649,1.787,9.069,4.073,7.606,11.8-.39,2.053-1.463,2.525-3.126,2.023-12.307-3.716-24.582-7.541-36.9-11.234-12.949-3.883-25.931-7.657-38.9-11.478A22.473,22.473,0,0,1,422.908,1519.662Z" fill="#f2f1dc"/>
    <path id="路径_123" data-name="路径 123" d="M463.919,986.193c0,4.153-.059,8.306.025,12.457.047,2.32-.472,3.589-3.223,3.838-8.536.77-17.044,1.863-25.562,2.832-2.306.263-3.339-.674-3.321-3.078.068-8.636.039-17.274.023-25.911,0-1.72.5-2.773,2.472-2.98,8.856-.929,17.7-1.97,26.55-2.96,2.533-.284,3.087,1.183,3.053,3.345C463.871,977.888,463.917,982.041,463.919,986.193Z" fill="#8e9b9b"/>
    <path id="路径_124" data-name="路径 124" d="M531.845,982.341c0,3.828-.042,7.656.015,11.483.032,2.083-.369,3.412-2.928,3.594-7.254.514-14.493,1.247-21.733,1.949-3.038.295-4.59-.512-4.488-4.035.222-7.648.169-15.31.02-22.962-.058-2.962,1.006-3.651,3.923-4.232,6.9-1.371,13.941-.011,20.781-1.737,2.938-.741,4.688.437,4.467,3.962C531.653,974.341,531.845,978.347,531.845,982.341Z" fill="#8e9b9b"/>
    <path id="路径_125" data-name="路径 125" d="M411.929,932.447c-5.443,1.959-11.093,1.27-16.473.343-2.823-.486-6.426,1.241-8.646-2C395.217,930.816,403.619,930.936,411.929,932.447Z" fill="#b6c3c2"/>
    <path id="路径_126" data-name="路径 126" d="M473.874,936.307c-5.85,2.347-11.408.286-17.009-1.123C462.662,933.622,468.248,935.268,473.874,936.307Z" fill="#b6c3c2"/>
    <path id="路径_127" data-name="路径 127" d="M508.829,938.369c-5.94,2.114-11.569.474-17.177-1.417C497.5,935.885,503.176,937.011,508.829,938.369Z" fill="#b6c3c2"/>
    <path id="路径_128" data-name="路径 128" d="M598.729,1038.212c-3.982,1.377-7.921,2.439-11.15-1.56C591.275,1037.319,595.169,1036.572,598.729,1038.212Z" fill="#b6c3c2"/>
    <path id="路径_129" data-name="路径 129" d="M543.789,940.365c-3.147,1.128-6.31,2.433-9.06-.821C537.764,939.656,540.917,938.459,543.789,940.365Z" fill="#b6c3c2"/>
    <path id="路径_130" data-name="路径 130" d="M429.907,933.459c-2.817,1.168-5.614,2.064-8.162-.575C424.5,932.557,427.3,931.586,429.907,933.459Z" fill="#b6c3c2"/>
    <path id="路径_131" data-name="路径 131" d="M376.976,930.372c-2.827,1.293-5.633,2.292-8.143-.613C371.57,929.649,374.374,928.67,376.976,930.372Z" fill="#b6c3c2"/>
    <path id="路径_132" data-name="路径 132" d="M359,929.081c-2.472,1.9-4.869,2.181-7.138-.328C354.262,928.4,356.67,927.881,359,929.081Z" fill="#b6c3c2"/>
    <path id="路径_133" data-name="路径 133" d="M618.7,1040.325c-1.927,1.3-3.739,1.777-5.135-.717C615.325,1039.463,617.172,1038.732,618.7,1040.325Z" fill="#b6c3c2"/>
    <path id="路径_134" data-name="路径 134" d="M609.693,1039.41c-1.927,1.175-3.743,1.626-5.127-.775C606.356,1038.355,608.219,1037.6,609.693,1039.41Z" fill="#b6c3c2"/>
    <path id="路径_135" data-name="路径 135" d="M579.747,1036.26c-1.941,1.368-3.76,1.917-5.1-.751C576.39,1035.442,578.24,1034.681,579.747,1036.26Z" fill="#b6c3c2"/>
    <path id="路径_136" data-name="路径 136" d="M438.916,934.239c-1.369,1.663-2.4,1.381-3.135-.547C436.926,933.3,438.04,933.088,438.916,934.239Z" fill="#b6c3c2"/>
    <path id="路径_137" data-name="路径 137" d="M151.219,937.4c-5.295,1.585-10.651,2.5-16.186,1.5C140.285,936.86,145.613,935.631,151.219,937.4Z" fill="#cbd8d6"/>
    <path id="路径_138" data-name="路径 138" d="M253.246,930.742c-5.194,2.4-10.511,3.542-16.131,1.574A38.569,38.569,0,0,1,253.246,930.742Z" fill="#b6c3c2"/>
    <path id="路径_139" data-name="路径 139" d="M183.5,934.83a25.711,25.711,0,0,1-16.293,1.709C172.523,934.907,177.909,933.915,183.5,934.83Z" fill="#cbd8d6"/>
    <path id="路径_140" data-name="路径 140" d="M120.253,939.391c-5.317,1.373-10.663,2.423-16.193,1.5C109.321,938.909,114.648,937.645,120.253,939.391Z" fill="#cbd8d6"/>
    <path id="路径_141" data-name="路径 141" d="M222.289,932.76c-2.478,2.907-5.305,1.8-8.13.707C216.72,931.527,219.55,932.669,222.289,932.76Z" fill="#b6c3c2"/>
    <path id="路径_142" data-name="路径 142" d="M269.239,929.762c-2.182,2.6-4.624,2.082-7.148.6C264.355,928.735,266.829,929.623,269.239,929.762Z" fill="#b6c3c2"/>
    <path id="路径_143" data-name="路径 143" d="M283.232,928.816c-1.607,2.3-3.337,2.206-5.163.266C279.739,927.994,281.482,928.346,283.232,928.816Z" fill="#b6c3c2"/>
    <path id="路径_144" data-name="路径 144" d="M86.418,1042.061c-1.671.227-3.41.7-4.475-1.245C83.693,1040.3,85.5,1039.577,86.418,1042.061Z" fill="#cbd8d6"/>
    <path id="路径_145" data-name="路径 145" d="M209.282,933.694c-.746,1.9-1.763,2.242-3.137.547C207.021,933.089,208.136,933.3,209.282,933.694Z" fill="#b6c3c2"/>
    <path id="路径_146" data-name="路径 146" d="M259,1634.6c.027,4.128-.011,8.257.1,12.382.074,2.662-.5,3.639-3.382,2.37-5.671-2.5-11.521-4.584-17.2-7.057a12.074,12.074,0,0,0-4.286-.861q-1.474-.846-2.947-1.7c-.375-.534-.633-1.353-1.141-1.561q-14.306-5.849-28.682-11.525c-.289-.114-.829.409-1.252.635l-1.889-.324c-.636-1.3-1.024-3.046-3.1-1.691-.634-.077-1.267-.155-1.9-.229a3.123,3.123,0,0,0-1.774-2.239c-7.718-3.017-16.107-3.857-23.7-7.286a4.183,4.183,0,0,0-1.474-.074c-1.014-1.721-2.787-2.188-4.5-2.847-9.539-3.669-19.055-7.4-28.58-11.1-.213-1.255-.457-2.45-2.035-1.044-4.767-1.05-8.913-4.2-14.009-4.132-3.845-3.791-9.388-3.538-13.87-5.814-8.67-4.447-17.962-7.369-27-10.888-6.241-2.429-12.1-6.1-19.069-6.387-3.946-3.53-9.155-4-13.855-5.7-7.456-4.741-16.143-6.57-24.122-10.1-6.394-2.832-12.766-6.112-19.931-6.871-7.393-3.352-14.53-7.439-22.9-7.981-.16-1.864-1.716-2.194-3.044-2.792-1.709-.77-4.524-.48-4.788-2.716a63.68,63.68,0,0,1,.024-11.268c.068-1.122,1.369-1.014,2.419-.817,1.755.328,3.542.483,5.315.711,3.349,3.942,8.5,4.132,12.829,5.83,15.8,6.189,31.677,12.175,47.406,18.56,12.7,5.157,25.726,9.527,38.557,14.378,15.083,5.7,30.106,11.566,45.168,17.327,16.4,6.273,32.838,12.462,49.226,18.773,14.546,5.6,29.011,11.418,43.579,16.965C228.412,1623.328,243.724,1628.92,259,1634.6Z" fill="#f2f1dc"/>
    <path id="路径_147" data-name="路径 147" d="M231.287,1639.742q1.473.848,2.947,1.7-.087,24.955-.176,49.909-22.22-8.877-44.44-17.748c-2.747-1.095-5.526-2.112-8.291-3.165-.048-15.07-.064-30.141-.164-45.212-.023-3.515.658-4.47,4.281-2.573,2.313,1.211,4.977,2.521,7.874,2.4l1.9.233c.618,1.33,1.383,2.389,3.1,1.69l1.888.325c1.139,2.956,4.209,2.3,6.353,3.162C214.731,1633.73,222.726,1637.5,231.287,1639.742Z" fill="#8e9b9b"/>
    <path id="路径_148" data-name="路径 148" d="M117.242,1596.318c5.1-.068,9.242,3.084,14.009,4.135a1.827,1.827,0,0,0,2.035,1.043c9.525,3.708,19.041,7.436,28.58,11.1,1.713.659,3.486,1.126,4.5,2.847q-.131,24.5-.259,48.994-23.306-9.38-46.624-18.728c-1.161-.463-2.124-.86-2.255-2.237Q117.235,1619.9,117.242,1596.318Z" fill="#8e9b9b"/>
    <path id="路径_149" data-name="路径 149" d="M57.3,1573.227c6.969.287,12.829,3.962,19.07,6.391,9.042,3.519,18.334,6.441,27,10.889q-.071,24.488-.142,48.975c-15.515-6.11-30.833-12.676-45.855-19.924Q57.335,1596.392,57.3,1573.227Z" fill="#8e9b9b"/>
    <path id="路径_150" data-name="路径 150" d="M284.951,1641.441c2.331-3.824,6.805-3.659,10.266-5.182,8.328-3.664,17-6.534,25.506-9.81a17.631,17.631,0,0,1,6.32-1.163q.015,23.616.029,47.226c-13.807,6.652-27.529,13.5-41.929,18.829Q285.047,1666.39,284.951,1641.441Z" fill="#8e9b9b"/>
    <path id="路径_151" data-name="路径 151" d="M-.609,1550.558c7.165.759,13.537,4.039,19.931,6.871,7.979,3.534,16.666,5.363,24.121,10.1l-.159,46.986c-7.406-1.405-13.76-5.5-20.667-8.188-7.815-3.039-15.876-5.574-23.217-9.764Z" fill="#8e9b9b"/>
    <path id="路径_152" data-name="路径 152" d="M-.609,1550.558l.009,46.009c-7.56-1.305-13.847-5.916-21.07-8.128-2.163-.663-1.93-2.824-1.926-4.656q.044-20.6.083-41.206C-15.139,1543.119-8,1547.206-.609,1550.558Z" fill="#cbd8d6"/>
    <path id="路径_153" data-name="路径 153" d="M166.106,1664.443q.129-24.5.259-48.995a4.188,4.188,0,0,1,1.475.074c7.6,3.429,15.986,4.269,23.7,7.286a3.123,3.123,0,0,1,1.774,2.239c-2.9.122-5.561-1.188-7.874-2.4-3.623-1.9-4.3-.942-4.281,2.573.1,15.071.116,30.142.164,45.212Z" fill="#cbd8d6"/>
    <path id="路径_154" data-name="路径 154" d="M103.229,1639.482q.072-24.488.142-48.975c4.483,2.275,10.026,2.022,13.871,5.813q-.007,23.577-.015,47.157C111.978,1644.187,108.149,1639.923,103.229,1639.482Z" fill="#cbd8d6"/>
    <path id="路径_155" data-name="路径 155" d="M43.284,1614.519l.159-46.986c4.7,1.7,9.91,2.168,13.856,5.7q.036,23.16.075,46.327C52.189,1619.244,48.014,1616.1,43.284,1614.519Z" fill="#cbd8d6"/>
    <path id="路径_156" data-name="路径 156" d="M230.132,1344.859q0,116.076,0,232.153c0,1.5.039,3-.045,4.492-.1,1.835-1.134,2.244-2.721,1.55-.3-.131-.537-.408-.838-.535-11.372-4.8-11.373-4.8-11.373-17.463V1110.735c0-8.53-.072-8.052,8.285-6.778,5.746.876,6.825,3.409,6.813,8.749Q229.991,1228.782,230.132,1344.859Z" fill="#fefefe"/>
    <path id="路径_157" data-name="路径 157" d="M169.2,1327.446q0,113.31,0,226.62c0,7.139,0,7.139-6.365,4.6-8.613-3.437-8.613-3.437-8.613-12.835q0-223.127,0-446.253c0-1.664,0-3.328.04-4.991.034-1.327.578-2.5,2.077-2.033,3.1.967,6.29.393,9.4.8,2.231.29,3.663,1.431,3.468,3.98-.1,1.323-.013,2.66-.013,3.991Z" fill="#fefefe"/>
    <path id="路径_158" data-name="路径 158" d="M111.266,1312.979q0,110.079,0,220.158c0,7.183-.55,7.392-7.191,5.364-5.176-1.58-6.955-4.189-6.947-9.909q.3-218.66.159-437.32c0-6.557,0-6.557,6.3-6.034,7.675.636,7.677.636,7.677,8.083Z" fill="#fefefe"/>
    <path id="路径_159" data-name="路径 159" d="M55.329,1298.993v213.6c0,1.164-.007,2.329,0,3.493.015,2.31.228,3.709-3.214,2.232-9.656-4.143-9.767-3.883-9.767-14.277q0-210.358.065-420.717c0-2.279-1.5-6.015,1.338-6.62,3.352-.715,7.137.481,10.7,1.042.388.061.748,1.388.817,2.156.134,1.485.057,2.991.057,4.488Q55.329,1191.693,55.329,1298.993Z" fill="#fefefe"/>
    <path id="路径_160" data-name="路径 160" d="M3.387,1284.465q0,105.1-.077,210.2c0,1.833,1.634,4.732-1.389,5.5s-9.124-3.289-9.472-5.793a25.542,25.542,0,0,1-.045-3.491q0-208.2,0-416.409c0-6.461.01-6.213,6.177-6.286,4.267-.05,4.87,2.031,4.854,5.581-.1,20.97-.049,41.94-.049,62.911Z" fill="#fefefe"/>
    <path id="路径_161" data-name="路径 161" d="M45.279,1057.421c8.008,1.307,16.324.672,24.041,3.812-2.309,2.435-4.682.065-6.959-.076-5.05-.312-10.059-1.262-15.091-1.909A2.079,2.079,0,0,1,45.279,1057.421Z" fill="#b6c3c2"/>
    <path id="路径_162" data-name="路径 162" d="M88.244,1063.376c4.149-.223,8.285-.362,12.024,1.948C95.912,1066.823,91.765,1067.03,88.244,1063.376Z" fill="#b6c3c2"/>
    <path id="路径_163" data-name="路径 163" d="M135.146,1069.52c3.873-.483,7.639-.337,11.053,1.88C142.161,1072.849,138.351,1072.962,135.146,1069.52Z" fill="#b6c3c2"/>
    <path id="路径_164" data-name="路径 164" d="M119.188,1067.436c3.849-.357,7.616-.223,11.048,1.876A9.554,9.554,0,0,1,119.188,1067.436Z" fill="#b6c3c2"/>
    <path id="路径_165" data-name="路径 165" d="M104.2,1065.452c3.854-.387,7.618-.237,11.05,1.872A11.035,11.035,0,0,1,104.2,1065.452Z" fill="#b6c3c2"/>
    <path id="路径_166" data-name="路径 166" d="M150.134,1071.505c3.781.05,7.536.255,11.058,1.853C157.109,1075.107,153.455,1074.3,150.134,1071.505Z" fill="#b6c3c2"/>
    <path id="路径_167" data-name="路径 167" d="M196.161,1078.16c2.959-1.717,5.453-.121,8,1.121C201.162,1081.259,198.712,1079.352,196.161,1078.16Z" fill="#b6c3c2"/>
    <path id="路径_168" data-name="路径 168" d="M212.039,1079.623c2.933.225,6.174-.577,8.268,2.465C217.255,1082.263,214.148,1082.615,212.039,1079.623Z" fill="#b6c3c2"/>
    <path id="路径_169" data-name="路径 169" d="M181.177,1076.158c2.974-1.748,5.456-.116,7.99,1.162C186.171,1079.218,183.718,1077.384,181.177,1076.158Z" fill="#b6c3c2"/>
    <path id="路径_170" data-name="路径 170" d="M165.116,1073.507c3.049-.087,6.15-.344,8.315,2.5C170.338,1076.248,167.326,1076.211,165.116,1073.507Z" fill="#b6c3c2"/>
    <path id="路径_171" data-name="路径 171" d="M76.223,1061.485a12.468,12.468,0,0,1,8.076,1.772C81.122,1064.877,78.478,1064.067,76.223,1061.485Z" fill="#b6c3c2"/>
    <path id="路径_172" data-name="路径 172" d="M231.066,1082.4c1.66-.069,3.554-.731,4.242,1.668C233.666,1084.092,231.686,1084.975,231.066,1082.4Z" fill="#b6c3c2"/>
    <path id="路径_173" data-name="路径 173" d="M38.335,1057.163c1.384-1.119,2.726-1.262,4,.172C40.943,1058.617,39.6,1058.672,38.335,1057.163Z" fill="#b6c3c2"/>
    <path id="路径_174" data-name="路径 174" d="M30.288,1055.447c1.662-.08,3.553-.746,4.24,1.661C32.89,1057.129,30.916,1058.006,30.288,1055.447Z" fill="#b6c3c2"/>
    <path id="路径_175" data-name="路径 175" d="M246.056,1084.379c1.656-.052,3.554-.709,4.234,1.687C248.639,1086.108,246.664,1086.961,246.056,1084.379Z" fill="#b6c3c2"/>
    <path id="路径_176" data-name="路径 176" d="M240.117,1084.185c1.038-1.123,2.039-1.173,2.994.1Q241.55,1086.1,240.117,1084.185Z" fill="#b6c3c2"/>
    <path id="路径_177" data-name="路径 177" d="M327.072,1672.512q-.015-23.611-.029-47.226c5.5-4.563,12.172-6.247,18.926-7.734.012,14.467-.061,28.935.1,43.4.036,3.291-.7,5.33-4.183,6.144C336.748,1668.3,332.637,1672.4,327.072,1672.512Z" fill="#b6c3c2"/>
    <path id="路径_178" data-name="路径 178" d="M521.735,1549.579q.035,18.95.069,37.9c.01,6.247,0,6.227,6.008,4,3.382-1.253,6.5-3.265,10.208-3.585-2.413,3.912-6.9,3.925-10.536,5.31-8.109,3.089-16.419,5.648-24.647,8.423,0-13.391.1-26.784-.073-40.173-.051-3.942.564-6.13,5.131-7.279C512.538,1553.007,516.795,1550.2,521.735,1549.579Z" fill="#b6c3c2"/>
    <path id="路径_179" data-name="路径 179" d="M585.619,1571.408c.5-3.474,3.732-2.82,5.789-3.477,4.737-1.511,9.115-4.313,14.311-4.277-.8,3-3.81,2.214-5.725,3.019C595.358,1568.622,590.429,1569.875,585.619,1571.408Z" fill="#b6c3c2"/>
    <path id="路径_180" data-name="路径 180" d="M539.794,1587.694a40.9,40.9,0,0,1,15.074-6c-1.161,4.51-5.863,2.521-8.609,4.409C544.944,1587.008,542.528,1589.883,539.794,1587.694Z" fill="#b6c3c2"/>
    <path id="路径_181" data-name="路径 181" d="M539,1541.83c-.514,1.612-1.285,2.893-3.307,2.553C536.069,1542.587,537.013,1541.531,539,1541.83Z" fill="#b6c3c2"/>
    <path id="路径_182" data-name="路径 182" d="M553.873,1536.716c-.2,1.278-.821,1.966-2.21,1.593A1.856,1.856,0,0,1,553.873,1536.716Z" fill="#b6c3c2"/>
    <path id="路径_183" data-name="路径 183" d="M526.913,1546.712c-.2,1.246-.835,1.939-2.188,1.717A1.8,1.8,0,0,1,526.913,1546.712Z" fill="#b6c3c2"/>
    <path id="路径_184" data-name="路径 184" d="M283.075,1040.973c0-3.826.05-7.652-.014-11.477-.039-2.293.693-3.428,3.233-2.994,5.863,1,11.728,2.059,17.633,2.73,2.749.313,3.176,1.627,3.154,3.926-.075,7.484-.17,14.974.033,22.453.094,3.455-1.667,3.954-4.333,3.557-5.39-.8-10.752-1.819-16.157-2.5-3.04-.385-3.737-1.965-3.6-4.717C283.211,1048.3,283.072,1044.632,283.075,1040.973Z" fill="#8e9b9b"/>
    <path id="路径_185" data-name="路径 185" d="M262.1,992.853c0,3.479-.14,6.965.043,10.434.155,2.916-.711,4.429-3.878,4.05-6.047-.724-12.1-1.394-18.154-2.064-1.788-.2-1.992-1.428-1.991-2.85.007-7.621.054-15.242-.019-22.862-.022-2.376.988-3.288,3.279-3.149q9.135.557,18.276,1.025c2.393.121,2.447,1.747,2.445,3.488Q262.095,986.889,262.1,992.853Z" fill="#8e9b9b"/>
    <path id="路径_186" data-name="路径 186" d="M193.172,1034.534c0-3.318.158-6.645-.044-9.951-.192-3.136.746-4.72,4.151-4.309,5.563.673,11.132,1.318,16.713,1.8,2.619.225,3.232,1.537,3.2,3.916-.1,7.132-.151,14.269.018,21.4.075,3.17-1.1,4.088-4.129,3.677-5.386-.73-10.793-1.387-16.213-1.751-2.7-.18-3.886-.989-3.74-3.832C193.312,1041.841,193.17,1038.184,193.172,1034.534Z" fill="#8e9b9b"/>
    <path id="路径_187" data-name="路径 187" d="M261.1,1041.215c0,.166,0,.332,0,.5,0,14.326,0,14.326-14.177,12.479-9.8-1.277-9.8-1.277-9.8-11.4,0-4.976.11-9.955-.04-14.927-.088-2.918,1.072-3.821,3.866-3.463,5.557.714,11.126,1.414,16.711,1.809,2.526.179,3.566.98,3.472,3.557C261,1033.581,261.1,1037.4,261.1,1041.215Z" fill="#8e9b9b"/>
    <path id="路径_188" data-name="路径 188" d="M308.05,996.352c0,3.815-.142,7.638.046,11.444.146,2.968-1.191,3.964-3.859,3.5-5.527-.958-10.989-2.263-16.672-2.184-2.138.03-2.482-1.853-2.484-3.624-.008-7.3.042-14.6-.028-21.9-.023-2.374,1-3.292,3.291-3.153,5.769.351,11.539.683,17.311.953,2.467.116,2.385,1.82,2.391,3.513C308.058,988.721,308.049,992.536,308.05,996.352Z" fill="#8e9b9b"/>
    <path id="路径_189" data-name="路径 189" d="M218.149,990.328q0,2.488,0,4.976c0,8.8-.011,8.868-8.841,7.881-4.252-.475-8.464-1.312-12.713-1.822-1.967-.236-2.441-1.285-2.433-3.005.029-6.967.073-13.934-.013-20.9-.035-2.917,1.558-3.209,3.861-2.94,5.565.651,11.128,1.367,16.713,1.774,2.513.183,3.566,1.01,3.458,3.587C218.037,983.356,218.147,986.844,218.149,990.328Z" fill="#8e9b9b"/>
    <path id="路径_190" data-name="路径 190" d="M173.2,1031.2v6.462c0,6.824,0,6.887-6.636,6.6-2.29-.1-4.554-.682-6.844-.9-8.5-.792-8.5-.769-8.5-9.494,0-5.136.146-10.279-.053-15.408-.125-3.209.85-4.674,4.228-4.131,4.882.785,9.792,1.4,14.67,2.2,2.278.376,3.286,1.8,3.175,4.227C173.082,1024.233,173.2,1027.718,173.2,1031.2Z" fill="#8e9b9b"/>
    <path id="路径_191" data-name="路径 191" d="M111.27,979.514c0-3.321.1-6.646-.028-9.963-.106-2.807,1.305-3.417,3.726-3.1,4.906.642,9.81,1.363,14.738,1.76,2.424.2,3.621.853,3.574,3.5q-.176,9.712,0,19.429c.054,2.719-1.185,3.514-3.617,3.324-5.272-.411-10.544-.854-15.823-1.144-2.346-.128-2.606-1.512-2.586-3.348C111.294,986.49,111.268,983,111.27,979.514Z" fill="#8e9b9b"/>
    <path id="路径_192" data-name="路径 192" d="M110.27,1024.626c.005-3.326.094-6.656-.023-9.978-.1-2.771,1.281-3.6,3.709-3.1,4.706.983,9.415,1.943,14.249,1.8,2.467-.07,3.1,1.141,3.073,3.375q-.123,10.227,0,20.457c.031,2.406-.978,3.343-3.278,3.138-4.946-.441-9.9-.786-14.834-1.348-2.1-.24-3.021-1.643-2.935-3.874C110.365,1031.616,110.265,1028.119,110.27,1024.626Z" fill="#8e9b9b"/>
    <path id="路径_193" data-name="路径 193" d="M174.2,985.919c0,3.485-.049,6.971.025,10.455.046,2.156-.925,3.085-3.007,2.841-5.075-.6-10.136-1.34-15.222-1.806-2.177-.2-2.808-1.173-2.792-3.17.055-6.97.074-13.941,0-20.91-.028-2.557,1.3-3.143,3.465-2.871,4.907.617,9.8,1.345,14.723,1.826,2.145.21,2.857,1.174,2.82,3.181C174.144,978.948,174.191,982.434,174.2,985.919Z" fill="#8e9b9b"/>
    <path id="路径_194" data-name="路径 194" d="M286.065,1067.214c-3.468,1.515-6.468.714-9.115-1.839A14.642,14.642,0,0,1,286.065,1067.214Z" fill="#b6c3c2"/>
    <path id="路径_195" data-name="路径 195" d="M318.032,1071.223c-3.194,1.537-5.894.836-8.168-1.8A12.851,12.851,0,0,1,318.032,1071.223Z" fill="#b6c3c2"/>
    <path id="路径_196" data-name="路径 196" d="M302.051,1069.235c-3.192,1.508-5.895.826-8.161-1.818A12.763,12.763,0,0,1,302.051,1069.235Z" fill="#b6c3c2"/>
    <path id="路径_197" data-name="路径 197" d="M269.072,1065.156c-3.066,1.068-5.846.839-8.1-1.783A13.975,13.975,0,0,1,269.072,1065.156Z" fill="#b6c3c2"/>
    <path id="路径_198" data-name="路径 198" d="M231.287,1639.742c-8.561-2.238-16.556-6.012-24.723-9.288-2.144-.86-5.214-.206-6.353-3.162.424-.227.964-.75,1.253-.636q14.371,5.685,28.682,11.525C230.654,1638.389,230.912,1639.208,231.287,1639.742Z" fill="#cbd8d6"/>
    <path id="路径_199" data-name="路径 199" d="M198.323,1626.967c-1.721.7-2.486-.36-3.1-1.69C197.3,1623.921,197.687,1625.671,198.323,1626.967Z" fill="#cbd8d6"/>
    <path id="路径_200" data-name="路径 200" d="M133.286,1601.5a1.827,1.827,0,0,1-2.035-1.043C132.829,1599.046,133.073,1600.241,133.286,1601.5Z" fill="#cbd8d6"/>
  </g>
</svg>
