<svg width="1112" height="995" viewBox="0 0 1112 995" fill="none" xmlns="http://www.w3.org/2000/svg">
<path fill-rule="evenodd" clip-rule="evenodd" d="M772 0H513L473.5 493H392.5V343.5L408.5 322V210.5L392.5 198H268L248.5 210.5L0 136.5V171C60.6667 201 195.3 267.8 248.5 295C248.5 332.6 261.5 343 268 343.5V493H92V593.5H182V896C287.2 917.6 339.5 887 352.5 869V593.5H606.5V896C636.9 910.4 664.833 896 675 887V593.5H800.5V858C849.3 904 936.167 902.5 973.5 896V593.5H1072.5V493H1112V198H811.5V478.5L772 0ZM604 30H580L604 50V30ZM604 90.5L541 50L533.5 140.5L604 90.5ZM604 140.5L558.5 169.5H604V140.5ZM558.5 201.5H604V226.5L558.5 201.5ZM604 268L522 314.5L529.5 226.5L604 268ZM604 339.5V314.5L558.5 339.5H604ZM604 371.5V395.5L558.5 371.5H604ZM505 485L593.5 435L513.5 395.5L505 485ZM604 475.5L558.5 500.5H604V475.5ZM679.5 30H703.5L679.5 50V30ZM679.5 90.5L742.5 50L750 140.5L679.5 90.5ZM679.5 140.5L725 169.5H679.5V140.5ZM725 201.5H679.5V226.5L725 201.5ZM679.5 268L761.5 314.5L754 226.5L679.5 268ZM679.5 339.5V314.5L725 339.5H679.5ZM679.5 371.5V395.5L725 371.5H679.5ZM778.5 485L690 435L770 395.5L778.5 485ZM679.5 475.5L725 500.5H679.5V475.5ZM95 918.5C109.833 926.167 159.5 941.5 239.5 941.5C319.5 941.5 382.833 900.5 404.5 880C422.667 900.5 485.4 941.5 591 941.5C696.6 941.5 753 900.5 768 880C787.333 900.5 850.2 941.5 947 941.5C1034.26 941.5 1058.73 929.581 1061 921.86V973V975.36C1058.73 983.081 1034.26 995 947 995C850.2 995 787.333 954 768 933.5C753 954 696.6 995 591 995C485.4 995 422.667 954 404.5 933.5C382.833 954 319.5 995 239.5 995C159.5 995 109.833 979.667 95 972V918.5ZM1061 919.5V921.86C1061.25 921.016 1061.23 920.222 1061 919.5Z" fill="#81FBEB"/>
</svg>
