<svg xmlns="http://www.w3.org/2000/svg" width="573.952" height="1290.761" viewBox="0 0 573.952 1290.761">
  <g id="组_1" data-name="组 1" transform="translate(658.265 397.813)">
    <path id="路径_1" data-name="路径 1" d="M-434.979-397.813c6.874,1.454,13.839,2.576,20.608,4.417,32.765,8.91,61.811,25.443,89.671,44.332,10.594,7.184,20.838,14.851,30.782,22.91,7.177,5.817,16.173,7.274,24.5,10.184q72.65,25.4,145.483,50.267c3.1,1.065,3.74,2.387,3.627,5.656-.652,18.949-1.72,37.941-1.048,56.861.517,14.559,3.342,29.04,5.223,43.546,4.125,31.821,8.446,63.618,12.365,95.464,1.047,8.514,4.018,16.384,6.457,24.439,7.1,23.461,12.748,47.214,12.991,71.848.193,19.628-2.687,38.605-17.033,53.674-11.968,12.571-27.491,17.126-44.136,17.817-25.725,1.067-51.485,1.851-77.181-.887-4.954-.528-9.929-.978-14.832-1.825-3.6-.623-4.852.05-4.8,4.115.234,19.477,0,38.96.2,58.437.035,3.564-.938,4.4-4.386,4.315-9.777-.248-19.565-.087-29.68-.087,6.755,24.677,13.39,48.994,20.067,73.3q23.409,85.214,46.744,170.448c1.243,4.574,3,10.327,5.306,18.7Q-148.907,630.475-93.678,830.81c1.1,3.987.6,5.478-3.722,6.593q-26.961,6.954-53.68,14.832c-4.242,1.254-5.323.056-6.332-3.659-9.26-34.113-18.748-68.163-27.906-102.3-1.114-4.155-2.276-4.658-6.111-3.085q-78.387,32.169-156.9,64.021c-2.8,1.14-3.979,2.428-4.076,5.694-.76,25.593-1.8,51.177-2.7,76.766-.072,2.045-.061,3.385-2.881,3.273-20.079-.8-40.165-1.456-60.251-2.077-4.141-.128-3.144-3.393-3.171-5.434-.078-6.145.3-12.3.567-18.445.736-16.945,1.4-33.9,2.356-50.828.169-3-1.587-3.7-3.452-4.674q-45.145-23.679-90.308-47.326c-14.1-7.386-28.272-14.632-42.251-22.238-3.678-2-4.943-1.6-6.324,2.428-11.3,32.94-22.917,65.77-34.15,98.732-1.578,4.63-3.129,5.007-7.509,3.387-17.249-6.381-34.657-12.335-52.077-18.24-3.471-1.177-4.488-2.214-3.115-6.134q48.01-137.1,95.719-274.312,65.337-187.41,130.7-374.813c1.844-5.289,1.824-5.3-4.013-5.3-8.814,0-17.632-.151-26.441.079-3.278.085-4.143-.855-4.12-4.129q.225-31.965-.009-63.932c-.028-3.435,1.093-4.055,4.217-4.029,17.128.143,34.259-.024,51.386.152,3.133.032,4.659-.895,5.886-3.782q8.369-19.692,17.2-39.185c1.406-3.1,1.175-4.658-1.88-6.744q-103.181-70.465-132.89-191.992c-13.147-54.086-10.853-108.146,2.505-161.917a332.492,332.492,0,0,1,17.406-52.331c8.679-20,22.655-33.657,45.148-36.758.346-.047.623-.6.932-.915Zm174.123,98.245c-.8-.3-1.614-.8-2.28.226l1.6.654c12.5,12.863,25.762,24.976,37.533,38.542,1.53,1.763,3.338,1.127,5.064,1.006q20.624-1.446,41.237-3.016c5.565-.424,11.119-.981,16.678-1.478-.007-.337-.015-.675-.022-1.012Q-210.95-282.109-260.856-299.568Zm-19.363,447.093c4.984.039,9.973-.03,14.951.165,2.345.091,3.147-.559,3.107-3.016q-.214-12.972,0-25.95c.04-2.457-.761-3.108-3.106-3.017-4.979.195-9.967.126-14.952.166q-43.548.111-87.1.185c-2.624,0-2.934,1.339-2.921,3.429.051,8.141.137,16.285-.038,24.422-.067,3.124,1.446,3.438,3.955,3.442,13.94.025,27.88.219,41.82.252C-309.741,147.637-294.98,147.556-280.219,147.525ZM-382.994-247.143l134.595-9.848a560.089,560.089,0,0,0-55.047-50.962c-6.806-5.455-13.068-11.582-21.769-14.52-12.017-4.058-24.159-7.739-36.059-12.2-14.52-5.437-29.407-9.884-44.076-14.932-19.6-6.746-39.192-13.523-58.669-20.612-3.952-1.438-6.569-.911-8.964,2.236-4.066,2.88-6.247,7.181-8.356,11.455-5.687,11.524-7.694,23.967-8.477,36.617-1.584,25.579,2.066,50.665,7.358,75.6.747,3.521,2.263,4.4,5.688,4.059,8.082-.8,16.2-1.2,24.308-1.79Q-417.728-244.576-382.994-247.143ZM-142.573,82.979c4.169-1,2.493-4.517,2.584-6.856.561-14.447.855-28.9,1.161-43.36Q-137.6-25.067-136.4-82.9a22.037,22.037,0,0,0-1.881-9.609c-5.428-12.463-11.046-24.832-17.414-36.841a479.285,479.285,0,0,0-26.525-44.616c-1.163,1.483-2.112,2.6-2.96,3.789q-17.791,24.948-35.551,49.917-17.385,24.507-34.682,49.076c-1.249,1.512-2.6,2.949-3.73,4.548-15.97,22.684-31.759,45.5-47.979,68-3.319,4.6-3.816,7.581.024,12.12,6.667,7.882,11.975,16.678,21.646,21.926,12.391,6.724,24.255,14.443,36.959,20.626,26.789,13.04,54.284,23.994,84.218,27.246C-157.067,84.065-149.782,84.654-142.573,82.979ZM-261.968-85.353c2.354.48,2.548-1.776,3.323-2.927,7.376-10.96,15.186-21.636,22.942-32.3,14.832-20.393,29.247-41.083,44.175-61.4,1.7-2.316,1.543-3.766-.028-5.969a648.258,648.258,0,0,0-44.115-55.3,5.96,5.96,0,0,0-5.551-2.288c-28.714,2.277-57.442,4.376-86.166,6.527q-22.295,1.67-44.588,3.352c-11.546.826-23.1,1.622-34.638,2.486-23.744,1.777-47.485,3.59-71.539,5.411,1.793,5.8,1.915,12.164,5.461,16.518,7.537,9.251,14.443,18.932,21.515,28.512q30.967,41.95,62.08,83.795,33.244,44.9,66.46,89.822c2.866,3.867,4.208,3.819,7.069-.116q26.13-35.939,52.165-71.945C-262.586-82.313-260.488-83.309-261.968-85.353Zm-125.86,606.219-.059,0c-.784,24.095-1.5,48.192-2.368,72.283q-2.238,61.811-4.627,123.614-1.357,36.629-2.624,73.261c-.91,25.761-1.767,51.524-2.749,77.282-.109,2.858.448,4.258,3.665,4.251,6.144-.014,12.3.118,18.427.591,3.349.259,3.829-1.181,3.927-3.985q2.4-69.285,4.945-138.566,2.5-69.531,4.991-139.061,2.994-83.49,5.982-166.982,2.208-62.313,4.338-124.629,2.207-61.811,4.6-123.615c.116-2.961-.694-3.7-3.515-3.707-6.137-.024-12.284-.244-18.4-.716-2.944-.228-3.942.31-4.052,3.566-1.075,31.9-2.409,63.783-3.559,95.677-1.474,40.882-2.819,81.769-4.272,122.652Q-385.454,456.825-387.828,520.866Zm77.7-352.84,0-.356a79.391,79.391,0,0,1-8.972-.065c-4.166-.477-4.475.863-3.43,4.605,9.111,32.6,18,65.258,26.978,97.894q59,214.551,118.01,429.1,17.157,62.4,34.138,124.854c1.105,4.083,2.645,4.817,6.475,3.419a75.736,75.736,0,0,1,13.909-3.764c5.323-.849,6.473-3.282,4.326-7.893a6.066,6.066,0,0,1-.249-.965q-87.258-317.263-174.531-634.523c-1.138-4.135-1.332-9.811-4.107-11.855S-305.838,168.026-310.13,168.026ZM-396.2,192.514c.384-7,.625-11.981.938-16.956.5-7.891.5-7.577-7.407-8.009-4.5-.246-6.287,1.282-7.547,5.519-2.5,8.409-5.755,16.593-8.646,24.889Q-506.515,449.475-594.156,701q-18.988,54.487-38.114,108.927c-1.2,3.4-.82,4.854,2.737,5.872a123.052,123.052,0,0,1,15.476,5.377c3.935,1.72,5.182.641,6.524-3.213q98.538-283.038,197.185-566.036C-403.43,232.032-393.209,212.735-396.2,192.514Zm147.188-113.9c-144.219-70.995-228.306-186.6-258.442-343.43C-531.491-91.906-412.536,56.123-249.015,78.616Zm55.581,638.538c-8.609-31.339-17.13-62.024-25.379-92.782-1.111-4.143-2.957-2.724-5.216-1.8-39.407,16.105-78.777,32.3-118.283,48.166-4.2,1.687-5.295,3.888-5.389,7.909-.258,11.13-.619,22.265-1.324,33.374-.261,4.1.676,5.269,4.966,5.244,33.583-.2,67.166-.11,100.75-.11Zm-357.81,0c45.016,0,89.369-.017,133.723.046,2.295,0,2.658-.866,2.706-2.9.225-9.467.427-18.942,1.061-28.385.208-3.105-.917-4.4-3.4-5.672-12.224-6.282-24.369-12.718-36.542-19.1l-65.955-34.571C-530.149,656.673-540.555,686.509-551.244,717.154Zm324.829-119.889c-5.537-20.179-11.017-39.969-16.357-59.8-.844-3.134-2.44-1.7-3.968-1.082q-46.913,19.085-93.826,38.169c-2.434.987-3.708,2.26-3.6,5.08.152,4.146.431,8.4-.3,12.436-.872,4.84,1.022,5.3,5.137,5.28,32.56-.155,65.12-.086,97.681-.086Zm-69.308-87.919c13.617,0,27.234-.1,40.849.072,3.327.042,4.293-.611,3.321-4.048q-7.85-27.739-15.347-55.576c-.726-2.7-1.476-3.446-4.222-2.313q-33.258,13.727-66.6,27.238c-1.639.668-2.629,1.385-2.67,3.5-.178,9.129-.484,18.26-1,27.376-.174,3.112.756,3.869,3.825,3.83C-323.621,509.246-309.672,509.346-295.723,509.346Zm-213.7,87.919h6.1c26.089,0,52.179.053,78.268-.048,4.738-.019,10.975,2.137,13.822-.908,2.818-3.013.734-9.245,1.286-14.009.388-3.343-1.3-4.637-3.816-5.934q-22.293-11.514-44.508-23.18c-10.041-5.252-20.059-10.549-30.265-15.919Zm30.628-87.92c23.243,0,45.979-.019,68.716.033,2.05,0,2.878-.483,2.924-2.752q.3-14.936,1.01-29.86c.1-2.146-.45-3.234-2.35-4.218q-22.932-11.877-45.744-23.985c-2.547-1.356-3.238-.727-4.023,1.824-1.8,5.856-3.991,11.592-6.014,17.38C-469.072,481.5-473.864,495.23-478.793,509.345Zm247.319,228.629-.077-.829H-340.734c-8.961,0-9.166,0-9.3,9.1-.189,13.263-.049,26.53-.049,40.084Zm-75.6-320.544c9.142,0,18.285-.065,27.425.041,2.655.031,3.893-.109,2.941-3.466-5.343-18.829-10.477-37.718-15.578-56.615-.661-2.45-1.292-3.228-3.986-2.093-12.359,5.209-24.8,10.218-37.264,15.177-2.352.937-3.133,2.234-3.2,4.789q-.512,19.178-1.483,38.34c-.146,2.962.493,4,3.723,3.915C-325.365,417.267-316.218,417.431-307.076,417.43Zm-211.63,319.715-.166.879,100.841,52.858a14.983,14.983,0,0,0,.594-2.432c.611-16.437,1.156-32.877,1.824-49.312.11-2.692-1.672-1.954-2.968-1.966-6.315-.059-12.631-.027-18.946-.027Zm390.822-657.61c11.076-4.178,17.181-11.817,20.051-21.692,3.508-12.073,3.764-24.367,2.544-37.078a272,272,0,0,0-6.465-37.7,227.675,227.675,0,0,0-13.162-39.311C-125.9-11.25-126.883,33.748-127.884,79.535ZM-446.715,417.429c13.889,0,27.133-.047,40.377.045,2.228.016,2.262-1.07,2.322-2.754q.835-23.408,1.827-46.809c.1-2.252-.529-3.583-2.686-4.632-5.507-2.676-10.957-5.5-16.243-8.59-2.65-1.547-3.537-.979-4.458,1.75-4.394,13.025-8.962,25.992-13.473,38.977C-441.537,402.577-444.035,409.735-446.715,417.429Zm307.962-652.71c-9.84,13.789-19.2,27.069-28.779,40.19-1.88,2.576-1.835,4.252-.057,6.876a509.879,509.879,0,0,1,29.6,49.5c.609,1.163.881,2.735,3.006,3.548C-135.2-168.588-130.675-201.763-138.753-235.281ZM-492.261,617.256l-.265.855,79.356,41.6c.154-1.174.275-1.766.3-2.362.56-12.44,1.029-24.885,1.712-37.319.185-3.367-1.892-2.776-3.81-2.776Q-453.613,617.252-492.261,617.256ZM-177.127-202.3l36.037-50.611-71.67,5.34C-199.848-232.644-188.372-217.806-177.127-202.3ZM-314.664,276.308c-5.737,2.349-11.2,4.676-16.736,6.8-1.814.7-1.945,1.918-2.005,3.475q-.859,22.16-1.8,44.315c-.078,1.819.317,2.67,2.409,2.653,11.119-.091,22.239-.042,33.844-.042C-304.226,314.3-309.4,295.475-314.664,276.308ZM-266.1,618.086l-.3-.83h-75.735c-1.626,0-3.269-.4-3.238,2.319.119,10.2.048,20.4.048,30.818Zm-49.56-522.7c-3.125-5-5.957-9.428-8.656-13.932a5.1,5.1,0,0,0-3.289-2.655q-15.588-4.08-31.121-8.374c-2.728-.759-3.611.091-3.574,2.79q.132,9.458,0,18.917c-.03,2.242.613,3.305,3.079,3.292C-345,95.348-330.768,95.387-315.663,95.387Zm30.9,434.844-.184-.892c-18.313,0-36.626.032-54.939-.044-2.152-.008-2.452,1.012-2.446,2.722.028,7.091.012,14.183.012,21.673Zm-173.656-.892-.163.967,50.386,26.379c0-8.957-.044-16.763.035-24.568.016-1.632.257-2.832-2.1-2.82C-426.314,529.377-442.368,529.339-458.422,529.339Zm59.183-246.083-.641-.159q-8.406,23.991-16.832,47.976c-.781,2.213.205,2.5,2.059,2.458q5.466-.121,10.935,0c1.726.039,2.65-.185,2.718-2.344C-400.495,315.208-399.844,299.233-399.239,283.256Zm35.427-631.687.423-1.349c-25.944-14.512-52.644-26.792-83.337-27.294Zm62.41,786.7.008-.848c-11.739,0-23.479.017-35.219-.019-1.6-.005-2.474.437-2.453,2.216.053,4.533.018,9.067.018,14.006Zm-17.446-177.153q-5.838-21.2-11.646-42.3l-1.692.13c0,10.429.067,20.858-.017,31.287C-332.3,262.877-332.36,262.876-318.848,261.119Zm-17.122,97.3,31.488-12.593c-1.884-.328-2.208-.434-2.532-.434q-8.434.016-16.869.057C-335.982,345.514-335.982,345.518-335.97,358.42Zm-94.667,79-.33.747,26,13.644c0-4.347-.254-7.823.077-11.242.283-2.915-.971-3.226-3.355-3.191C-415.708,437.493-423.173,437.422-430.637,437.422ZM-271.964,95.727l-.122-.488-29.279-7.577c3.419,7.589,3.639,8,6.577,8.036C-287.181,95.784-279.572,95.727-271.964,95.727Zm148.73-212.239c.288,3.312-1.692,7.114,1.454,10.494C-121.208-109.807-122.432-113.073-123.234-116.512Zm2.05,12.147c.054.038.152.073.155.115a2.069,2.069,0,0,1-.037.373c-.064-.038-.182-.075-.182-.113A1.817,1.817,0,0,1-121.184-104.365Z" fill="#030303"/>
    <path id="路径_2" data-name="路径 2" d="M-261.968-85.353c1.48,2.044-.618,3.04-1.435,4.173q-26,36.029-52.165,71.945c-2.861,3.935-4.2,3.983-7.069.116Q-355.9-54.008-389.1-98.941q-31.028-41.907-62.08-83.795c-7.072-9.58-13.978-19.261-21.515-28.512-3.546-4.354-3.668-10.72-5.461-16.518,24.054-1.821,47.8-3.634,71.539-5.411,11.543-.864,23.092-1.66,34.638-2.486-.479,2.085.959,3.463,1.976,4.891,3.937,5.525,7.967,10.985,12.007,16.436q33.842,45.66,67.717,91.293C-280.9-110.433-271.408-97.913-261.968-85.353Z" fill="#aaa6a4"/>
    <path id="路径_3" data-name="路径 3" d="M-387.828,520.866q2.328-64.043,4.65-128.086c1.453-40.883,2.8-81.77,4.272-122.652,1.15-31.894,2.484-63.781,3.559-95.677.11-3.256,1.108-3.794,4.052-3.566,6.118.472,12.265.692,18.4.716,2.821.011,3.631.746,3.515,3.707q-2.43,61.8-4.6,123.615-2.225,62.313-4.338,124.629-2.957,83.493-5.982,166.982-2.495,69.531-4.991,139.061-2.49,69.282-4.945,138.566c-.1,2.8-.578,4.244-3.927,3.985-6.123-.473-12.283-.6-18.427-.591-3.217.007-3.774-1.393-3.665-4.251.982-25.758,1.839-51.521,2.749-77.282q1.295-36.631,2.624-73.261,2.292-61.807,4.627-123.614c.872-24.091,1.584-48.188,2.368-72.283Z" fill="#fefefe"/>
    <path id="路径_4" data-name="路径 4" d="M-310.13,168.026c4.292,0,9.76-1.6,12.545.451s2.969,7.72,4.107,11.855q87.285,317.256,174.531,634.523a6.066,6.066,0,0,0,.249.965c2.147,4.611,1,7.044-4.326,7.893a75.736,75.736,0,0,0-13.909,3.764c-3.83,1.4-5.37.664-6.475-3.419q-16.9-62.472-34.138-124.854-58.99-214.554-118.01-429.1c-8.975-32.636-17.867-65.3-26.978-97.894-1.045-3.742-.736-5.082,3.43-4.605a79.391,79.391,0,0,0,8.972.065Z" fill="#fefefe"/>
    <path id="路径_5" data-name="路径 5" d="M-396.2,192.514c2.994,20.221-7.227,39.518-14.145,59.412Q-508.772,535-607.533,817.962c-1.342,3.854-2.589,4.933-6.524,3.213a123.052,123.052,0,0,0-15.476-5.377c-3.557-1.018-3.939-2.468-2.737-5.872Q-613.053,755.52-594.156,701q87.652-251.52,175.291-503.042c2.891-8.3,6.145-16.48,8.646-24.889,1.26-4.237,3.045-5.765,7.547-5.519,7.9.432,7.9.118,7.407,8.009C-395.578,180.533-395.819,185.512-396.2,192.514Z" fill="#fefefe"/>
    <path id="路径_6" data-name="路径 6" d="M-255.41-71.182q17.337-24.54,34.682-49.076Q-203-145.25-185.177-170.175c.848-1.189,1.8-2.306,2.96-3.789a479.285,479.285,0,0,1,26.525,44.616c6.368,12.009,11.986,24.378,17.414,36.841A22.037,22.037,0,0,1-136.4-82.9q-1.284,57.83-2.431,115.661c-.306,14.456-.6,28.913-1.161,43.36-.091,2.339,1.585,5.859-2.584,6.856.184-1.886-1.177-3.109-2.117-4.387q-26.049-35.408-52.216-70.726Q-226.147-31.667-255.41-71.182Z" fill="#fefefe"/>
    <path id="路径_7" data-name="路径 7" d="M-261.968-85.353c-9.44-12.56-18.935-25.08-28.308-37.69q-33.906-45.61-67.717-91.293c-4.04-5.451-8.07-10.911-12.007-16.436-1.017-1.428-2.455-2.806-1.976-4.891q22.295-1.677,44.588-3.352c28.724-2.151,57.452-4.25,86.166-6.527a5.96,5.96,0,0,1,5.551,2.288,648.258,648.258,0,0,1,44.115,55.3c1.571,2.2,1.73,3.653.028,5.969-14.928,20.318-29.343,41.008-44.175,61.4-7.756,10.664-15.566,21.34-22.942,32.3C-259.42-87.129-259.614-84.873-261.968-85.353Z" fill="#fefefe"/>
    <path id="路径_8" data-name="路径 8" d="M-472.983-367.976c2.395-3.147,5.012-3.674,8.964-2.236,19.477,7.089,39.069,13.866,58.669,20.612,14.669,5.048,29.556,9.495,44.076,14.932,11.9,4.456,24.042,8.137,36.059,12.2,8.7,2.938,14.963,9.065,21.769,14.52A560.089,560.089,0,0,1-248.4-256.991l-134.595,9.848a18.658,18.658,0,0,0-1.627-3.6c-6.841-9.319-13.774-18.571-20.65-27.866-19.644-26.553-39.2-53.169-59-79.61C-466.85-361.666-468.477-366.175-472.983-367.976Z" fill="#fefefe"/>
    <path id="路径_9" data-name="路径 9" d="M-255.41-71.182q29.253,39.523,58.5,79.048Q-170.767,43.2-144.69,78.592c.94,1.278,2.3,2.5,2.117,4.387-7.209,1.675-14.494,1.086-21.7.3-29.934-3.252-57.429-14.206-84.218-27.246-12.7-6.183-24.568-13.9-36.959-20.626-9.671-5.248-14.979-14.044-21.646-21.926-3.84-4.539-3.343-7.516-.024-12.12,16.22-22.5,32.009-45.315,47.979-68C-258.014-68.233-256.659-69.67-255.41-71.182Z" fill="#aaa6a4"/>
    <path id="路径_10" data-name="路径 10" d="M-249.015,78.616C-412.536,56.123-531.491-91.906-507.457-264.814-477.321-107.984-393.234,7.621-249.015,78.616Z" fill="#fefefe"/>
    <path id="路径_13" data-name="路径 13" d="M-472.983-367.976c4.506,1.8,6.133,6.31,8.715,9.76,19.794,26.441,39.353,53.057,59,79.61,6.876,9.295,13.809,18.547,20.65,27.866a18.658,18.658,0,0,1,1.627,3.6q-34.734,2.555-69.468,5.106c-8.1.593-16.226.986-24.308,1.79-3.425.341-4.941-.538-5.688-4.059-5.292-24.933-8.942-50.019-7.358-75.6.783-12.65,2.79-25.093,8.477-36.617C-479.23-360.8-477.049-365.1-472.983-367.976Z" fill="#aaa6a4"/>
    <path id="路径_20" data-name="路径 20" d="M-208.035,147.525c-26.592.031-53.184.112-79.775.078-25.113-.033-50.226-.227-75.339-.252-4.52,0-7.246-.318-7.125-3.442.315-8.137.16-16.281.068-24.422-.023-2.09.535-3.428,5.262-3.429q78.455-.02,156.908-.185Z" transform="translate(-72.184)" fill="#aaa6a4"/>
    <path id="路径_30" data-name="路径 30" d="M-315.663,95.387c-15.105,0-29.333-.039-43.561.038-2.466.013-3.109-1.05-3.079-3.292q.125-9.458,0-18.917c-.037-2.7.846-3.549,3.574-2.79q15.523,4.318,31.121,8.374a5.1,5.1,0,0,1,3.289,2.655C-321.62,85.959-318.788,90.383-315.663,95.387Z" fill="#aaa6a4"/>
    <path id="路径_33" data-name="路径 33" d="M-280.219,147.525V115.873c4.985-.04,9.973.029,14.952-.166,2.345-.091,3.146.56,3.106,3.017q-.214,12.972,0,25.95c.04,2.457-.762,3.107-3.107,3.016C-270.246,147.495-275.235,147.564-280.219,147.525Z" fill="#fefefe"/>
    <path id="路径_34" data-name="路径 34" d="M-399.239,283.256c-.6,15.977-1.256,31.952-1.761,47.933-.068,2.159-.992,2.383-2.718,2.344q-5.465-.124-10.935,0c-1.854.041-2.84-.245-2.059-2.458q8.463-23.971,16.832-47.976Z" fill="#fefefe"/>
    <path id="路径_35" data-name="路径 35" d="M-363.812-348.431l-82.914-28.643c30.693.5,57.393,12.782,83.337,27.294Z" fill="#fefefe"/>
    <path id="路径_40" data-name="路径 40" d="M-271.964,95.727c-7.608,0-15.217.057-22.824-.029-2.938-.033-3.158-.447-6.577-8.036l29.279,7.577Z" fill="#fefefe"/>
    <path id="路径_42" data-name="路径 42" d="M-261.535-298.688l-1.6-.654c.666-1.03,1.483-.531,2.281-.228C-261.082-299.277-261.308-298.982-261.535-298.688Z" fill="#fefefe"/>
  </g>
</svg>
