<svg xmlns="http://www.w3.org/2000/svg" width="760.903" height="1368.115" viewBox="0 0 760.903 1368.115">
  <g id="组_27" data-name="组 27" transform="translate(270.555 3649.923)">
    <path id="路径_5045" data-name="路径 5045" d="M5133.623-2073.123l-64.064,83.735v181.672l-148.708,26.877-101.781-301.707" transform="translate(-4708.47 -1343.742)" fill="#cdd0d4"/>
    <path id="路径_5013" data-name="路径 5013" d="M874.49-1787.774v180.852l213.3,42.728,357.115-67.077-20.788-183.75-336.327,58.22Z" transform="translate(-1072.716 -1335.755)" fill="#b6b39d"/>
    <path id="减去_16" data-name="减去 16" d="M230.653,592.288A14.029,14.029,0,0,1,223.4,590.4l-.435.127-.293-.343c-.11.006-.241.009-.387.009a3.651,3.651,0,0,1-2.946-1.04,3.744,3.744,0,0,1-.47-3.178,5.144,5.144,0,0,0-.836-4.468,7.257,7.257,0,0,0-3.972-2.168c-2.085-.532-4.108-1.042-6.249-1.581l-.087-.022-.244-.061-.036-.009-.691-.174-.041-.011-.573-.144-.109-.028-.288-.072-.043-.011-.142-.035-.012,0-.027-.007-.128-.032-.013,0-.232-.058-.068-.017c-3.847-.967-8.634-2.171-13.264-3.38-4.32-1.129-9.136-2.433-11.45-3.06l-.013,0-.022-.006-.008,0-.01,0-.187-.051-.436-.119-.014,0-.044-.013-.039-.011-.533-.144-.043-.012-.014,0-.006,0-.409-.111-.452-.122-.5-.134-.029-.007-.076-.021c-2.314-.626-4.99-1.349-7.466-2-4.155-1.1-8.338-2.2-15.079-3.964l-.129-.034-.049-.013-.037-.01-1.092-.286-.067-.017-.459-.121-.031-.007c-5.059-1.325-8.971-2.35-13.256-3.487-4.92-1.3-10.064-2.686-13.506-3.612l-.108-.029-.022-.006-.074-.02-.063-.017-.472-.126-.236-.063-.23-.062-.084-.023-.011,0-.355-.094-.079-.021-.046-.012c-4.7-1.263-10.556-2.834-16.443-4.381-4.192-1.1-8.385-2.147-12.085-3.072l-.074-.019-.033-.008-.028-.007-.036-.009-.059-.015-.006,0-.042-.011-.116-.029-.03-.007-.02-.005c-3.728-.931-6.182-1.545-8.825-2.224s-5.4-1.41-7.22-1.9l-.016,0-.2-.053-.021-.006-.209-.056-.1-.026L79,543.99l-.311-.084-.01,0-.092-.024-.006,0-.047-.013-.013,0-.041-.011-.028-.007-.006,0-.008,0c-5.14-1.372-10.455-2.791-15.8-3.992-2.758-.617-5.449-1.469-8.051-2.292l-.052-.016-.047-.015-.014,0-.031-.01-.005,0c-4.516-1.427-9.186-2.9-14.049-3.2a7.149,7.149,0,0,1-3.158-1.165l-.007,0a8.643,8.643,0,0,0-2.763-1.144,13.42,13.42,0,0,0-2.31-.2c-3.452,0-6.441,1.284-9.6,2.644l-.007,0-.009,0-.01,0-.173.075c.054-.119.1-.226.149-.348-.058.143-.1.245-.149.347a21.751,21.751,0,0,1-7.64,1.47,19.524,19.524,0,0,1-9.828-2.734c.017-.263.028-.473.036-.682-.016.331-.026.5-.037.682-4.156-1.375-5.631-4.161-4.512-8.517a18.761,18.761,0,0,0,.48-4.916c-.145-11.1.843-22.3,1.8-33.126l0-.025,0-.031,0-.015.006-.063v-.025l.006-.078.011-.122,0-.031.007-.083v-.005l0-.022,0-.05v-.014c.393-4.461.839-9.516,1.172-14.426.667-9.91,1.167-19.824,1.65-29.411v-.017l0-.05v-.01l0-.05,0-.037,0-.019.012-.235.005-.1v-.008l0-.042c.669-13.336,1.361-27.125,2.5-40.885,1.9-23.067,3.46-46.379,4.969-68.924v-.007l.014-.215,0-.064,0-.046.005-.075v-.017l.005-.072,0-.039.355-5.291.152-2.3c.651-9.714,1.234-19.477,1.8-28.918l.008-.136,0-.064v-.007l.013-.216.023-.385v-.013l0-.061.027-.444,0-.033.012-.193.007-.137.018-.278v-.025l.021-.355,0-.051.014-.225,0-.037V292.2l.008-.14.005-.089v-.024l0-.047c.525-8.853,1.121-18.886,1.783-28.821.977-14.706,2.037-29.713,2.973-42.953l0-.056.012-.166,0-.049,0-.016.007-.1.057-.8,0-.028.063-.9.043-.589.007-.1.032-.465,0-.035.019-.267.035-.5.01-.143.038-.533.013-.191.088-1.26,0-.013c.534-7.577,1.266-17.954,1.952-27.9.685-9.972,1.337-20.106,1.861-28.248l0-.02.006-.1.009-.139.005-.084.039-.595,0-.026,0-.036,0-.047.016-.248.013-.212.02-.317.094-1.466.005-.071.058-.906.015-.232.132-2.046c.161-2.53.335-5.217.582-8.986.328-5.018.655-10,1.026-15.628l.09-1.382.174-2.627.046-.713,0-.025.065-.984c.985-14.975,1.805-27.489,2.656-40.815.275-4.3.452-8.619.624-12.794v-.028l0-.053v-.022l0-.06v-.007l0-.073v-.01l0-.076v-.006l0-.079v-.1c.382-9.374.778-19.067,2.2-28.446,1.49-9.845,2.8-20.461,2.332-31.387A110.2,110.2,0,0,1,56.09,10.929a23.992,23.992,0,0,0,2.983.631l.027,0,.022,0,.011,0h.014l.016,0,.022,0,.01,0,.013,0,.042.007c.684.115,1.392.233,2.112.4l0,.016,0,.014v.012c-.784,9.469-1.594,19.257.108,28.92.334,1.9,1.151,2.158,1.906,2.158a7.663,7.663,0,0,0,1.485-.217l.019,0,.1-.021c1.981-.412,4.023-.879,5.514-1.219l.131-.03.03-.006.007,0,.038-.008.006,0,.01,0A122.681,122.681,0,0,1,84.381,39.02c2.209-.245,3.608-.863,4.4-1.947.72-.983.958-2.348.77-4.424a1.806,1.806,0,0,0,.743-1.335,1.672,1.672,0,0,0-.765-1.193l-.2-2.361-.128-1.5-.09-1.049-.21-2.457a29.471,29.471,0,0,0,3.479-1.069l.032-.01a17.94,17.94,0,0,1,5.909-1.362,8.5,8.5,0,0,1,3,.538q-.005.28-.009.563v.1l0,.157V21.7c0,.021,0,.041,0,.062v.01c0,.02,0,.04,0,.059v.071c0,.054,0,.107,0,.16v.018c0,.047,0,.091,0,.136l-.011.817,0,.31v.043l0,.335,0,.183,0,.095v.147c-.035,2.316-.075,4.942-.066,7.594,0,.133-.005.29-.014.534v.005a3.045,3.045,0,0,0,.384,2.107,1.139,1.139,0,0,0,.867.316,2.179,2.179,0,0,0,.34-.025c.814-.112,1.706-.215,2.238-.277l.032,0,.076-.009h.006c3.391-.393,6.9-.8,9.531-2.473,2.041-1.3,1.055-5.523.335-8.607l-.058-.247c.894.148,1.764.291,2.822.463l.017,0,.049.008.07.012h.009l.013,0,.116.019h.008c2.357.385,5.029.822,7.664,1.31.841.156,2.061.576,2.142,1.022.411,2.285,1.057,3.3,2.1,3.3A5.232,5.232,0,0,0,132,28.516l.007,0,.006,0a9.243,9.243,0,0,1,2.387-.878,21.606,21.606,0,0,1,3.5-.283c4.9,0,9.789,1.547,13.927,3.06.394.147.643.763.862,1.307l0,.008.021.05.019.045,0,.008.011.028.014.036q.023.058.046.111a2.947,2.947,0,0,1-.12,1.9c-.3,1.076-.615,2.188.964,2.892a6.692,6.692,0,0,0,2.751.563,13.207,13.207,0,0,0,4.8-1.132,21.7,21.7,0,0,1,8.356-1.642,28.28,28.28,0,0,1,8.162,1.292,20.511,20.511,0,0,0,5.959.945,15.675,15.675,0,0,0,5.751-1.073,8.315,8.315,0,0,1,2.872-.68A2.208,2.208,0,0,1,194,35.7c.609.637.867,1.755.789,3.416a3.4,3.4,0,0,0,.778,2.62,3.513,3.513,0,0,0,2.66.919c.11,0,.2,0,.292-.006l.547-.02.165-.005h.028a14.859,14.859,0,0,0,3.676-.426c22.7-6.656,46.226-11.262,68.98-15.715l.021,0,.013,0,.024,0,.053-.01h.005l.025,0,.023,0,.036-.007.009,0,.045-.009.159-.032.069-.013.013,0h.005l.019,0,.12-.023c9.987-1.955,20.313-3.976,30.623-6.189,3.515-.756,7-1.42,10.37-2.063l.084-.016.1-.019.148-.028.066-.013.078-.014.087-.017h.005l.007,0,.1-.02.018,0,.009,0,.008,0,.014,0c3.346-.635,7.137-1.355,10.831-2.15a84.362,84.362,0,0,0,11.379,2.739l.018,0,.009,0,.011,0,.016,0,.007,0c2.62.5,5.326,1.023,7.972,1.719a7.143,7.143,0,0,0,1.752.284c1.539,0,1.9-1.044,2.1-3.238a7.354,7.354,0,0,0-.3-2.238l0-.014,0-.015,0-.017c-.4-1.709-.822-3.475,1.376-4.752a35.048,35.048,0,0,0,10.082-1.962c1.414.266,1.331,1.209,1.251,2.122-.024.233-.037.433-.039.609-.013,1.034-.018,2.1-.022,2.814v.381l0,.02v.01c-.011,1.99-.023,4.245-.083,6.665a2.867,2.867,0,0,0,.563,2.167,1.742,1.742,0,0,0,1.324.473c.09,0,.152,0,.2-.006,1.5-.089,1.444-1.252,1.4-2.278v-.018c-.009-.1-.012-.193-.014-.352-.036-1.319,0-2.606.044-3.851v-.036l0-.062V16.9a33.137,33.137,0,0,0-.506-8.729,21.606,21.606,0,0,0,2.165-.748l.017-.006.014-.005.008,0,.026-.01.005,0A11.585,11.585,0,0,1,369.9,6.374a5.658,5.658,0,0,1,4.319,2.217,1.5,1.5,0,0,0,1.165.358,17.143,17.143,0,0,0,3.622-.673l.015,0,.025-.006.005,0,.055-.014.023-.006.039-.01c.667-.169,1.424-.36,2.105-.479,2.1-.367,4.349-.83,5.99-1.168l.039-.008.11-.023h.005l.033-.007h.02l.139-.029.026-.005.438-.09.052-.011.25-.051.049-.01c.5-.1,1.01-.207,1.52-.31a46.723,46.723,0,0,1,.338,9.954v.041l0,.024v.017c-.066,1.717-.133,3.49-.094,5.27l0,.116c.2,8.618.2,8.618,8.993,9.567v-.153q0-.371.01-.74v-.066l0-.113v-.01l.008-.58V29.3l.007-.339v-.03c.11-7.833.223-15.933-1.723-23.773a83.362,83.362,0,0,1,12.935-3.35c1.854-.338,3.9-.66,6.074-.956l41.372,237.7c.034.336.068.663.1.994.719,6.842,1.78,13.646,2.806,20.225l0,.015.008.052,0,.007,0,.011v.005l.007.047.007.041.007.04.007.047.008.056v.007l.007.048,0,.016.011.073.009.054c1.019,6.54,2.073,13.3,2.785,20.046.868,8.237,2.188,16.5,3.463,24.485l0,.01.006.036,0,.022.011.064v.007l.012.064v.007l0,.005.031.2v.005l.012.073.037.236.017.111,0,.027.013.081v.005c.718,4.5,1.46,9.158,2.12,13.846,2.136,15.188,3.865,27.949,5.359,40.867.438,3.77,1.1,7.484,1.731,11.076v.007l0,.009.006.031,0,.011,0,.008.005.029.013.068,0,.007,0,.019.025.142.026.151,0,.022.039.225.028.161,0,.01.013.074,0,.015.018.105,0,.009,0,.024c.322,1.835.687,3.914,1,5.927,1.14,7.411,2.136,14.676,3.1,21.7l.008.062,0,.019.02.144.019.134,0,.019v.006l.009.062.009.063v.014l0,.012.012.091.01.076v.009l.008.058v.009l.008.057v.01c1.5,10.929,3.046,22.229,5.025,33.438.708,4.03,1.04,8.176,1.359,12.185v.006l0,.034,0,.008,0,.042v.005l0,.032,0,.022v.006c.291,3.682.592,7.489,1.206,11.329,1.257,7.861,2.48,16.167,3.463,22.842l.019.127,0,.03,0,.033.032.218.022.143,0,.011,0,.027.01.064.02.132.022.148,0,.006,0,.013v.011l.014.1,0,.022.009.063,0,.014,0,.012,0,.017.014.1c1.427,9.69,2.9,19.711,4.611,29.881a25.514,25.514,0,0,1,.389,6.932,8.992,8.992,0,0,1-1.783,4.757c-1.889,2.387-5.366,3.665-10.941,4.022-.367.024-.767.061-1.146.1l-.018,0h-.018a20.962,20.962,0,0,1-2.114.133,6.171,6.171,0,0,1-3.5-.91,4.4,4.4,0,0,0,1.059-4.272,2.789,2.789,0,0,0-2.412-1.642,6.507,6.507,0,0,0-.712-.042,6.1,6.1,0,0,0-4.486,2.063c-1.845.448-3.681.888-5.155,1.242l-.188.045-.128.031-.055.013-.6.143-.151.036-.081.02-.488.117-.019,0-.029.007-.032.007-.015,0-.006,0-.067.016-.014,0-.021.005c-4.941,1.181-10.049,2.4-15.321,3.756-4.292,1.1-8.655,2.292-12.162,3.249l-.037.01-.009,0-.022.006-.015,0-.013,0-.006,0-.048.013-.07.019-.013,0-.026.007-.009,0-.028.007c-3.48.95-6.892,1.879-10.371,2.786-4.206,1.1-8.372,2.137-12.048,3.054l-.008,0-.023.005-.008,0-.1.026-.028.007-.21.052-.061.015-.032.008-.011,0-.1.024-.5.125-.027.006-.2.049-.045.012c-3.4.847-6.205,1.553-8.578,2.161-10.56,2.7-21.862,5.6-32.958,8.507-3.477.909-7.154,1.913-9.587,2.578l-.093.025-.028.008-.2.055-.044.013-.059.016-.186.051-.028.008-.013,0-.081.022-.09.024-.14.039-.184.05-.008,0-.027.007-.013,0-.007,0-.084.023c-3.25.887-6.61,1.8-10.151,2.728-5.011,1.309-10.09,2.6-14.171,3.644l-.016,0-.139.036-.016,0-.484.123-.013,0-.027.007-.167.042-.49.125-.063.016-.062.015-.139.036-.055.013c-5.033,1.283-10.36,2.642-15.285,3.925-5.921,1.542-12.239,3.22-16.42,4.331l-.03.008-.237.063-.365.1-.023.006-.273.073-.078.021-.035.01-.041.011-.075.02-.069.019-.018.005-.045.012-.158.041-.066.018-.077.02-.167.044-.081.022-.06.016-.254.067-.225.059c-4.527,1.2-8.942,2.374-13.2,3.492l-2.237.587-.115.031-.1.026-.011,0-.087.022-.008,0-.028.007-.04.011-.014,0c-6.1,1.6-12.411,3.258-18.841,4.825-1.174.286-2.273.534-3.589.828l-.009,0-.085.019-.1.022-.033.008-.01,0-.011,0-.011,0-.01,0-.012,0a70.924,70.924,0,0,0-10.845,3.043c-1.343.534-2.757,1.267-2.518,3.209.278,2.28-.282,3.918-1.713,5.009a12.456,12.456,0,0,1-4.938,1.808c-1.85.4-3.719.712-5.526,1.018H235.9l-.012,0-.031.005-.05.008-.054.009-.014,0-.061.01-.066.011H235.6l-.069.012-.044.007h-.007l-.024,0-.107.018h-.008l-.285.048-.331.056-.285.049-.049.008-.027,0-.065.011-.024,0c-.274.045-.6.1-1.123.192A18.7,18.7,0,0,1,230.653,592.288ZM247.076,568.8h0c.24.884.667,1.313,1.308,1.313a4.741,4.741,0,0,0,2.082-.831l.013-.006.012-.007.005,0,0,0a5.277,5.277,0,0,1,1.086-.534c3.458-.906,6.963-1.662,10.353-2.393h.007l.011,0,.047-.01.065-.013.09-.019.031-.006h.005l.049-.011.007,0,.008,0,.006,0a141.425,141.425,0,0,0,21.291-5.785c-1.545-.124-3.091-.2-4.728-.238l25.026-6.746c.575.136,1.168.3,1.672.435l.23.064.005,0,.007,0,.006,0a16.458,16.458,0,0,0,4.139.791c.2,0,.375-.008.535-.024a47,47,0,0,0,19.145-5.723l.13-.243.055-.1.018-.032.01-.018.087-.159.031-.058.1-.189.013-.024.007-.014c.335-.618.725-1.34,1.127-2.071l5.894-1.589a3.581,3.581,0,0,0,.91,1.06,3.171,3.171,0,0,0,2.056.835c1.408,0,2.683-1.082,3.851-2.251A34.574,34.574,0,0,0,353,542.3l.007,0,.024-.008.013,0,.025-.007.005,0,.006,0,.007,0,.007,0c1.3-.393,2.649-.8,4.023-1.131,3.258-.786,6.5-1.7,9.353-2.5l.033-.009.082-.023.008,0,.076-.021.139-.04.022-.006.009,0,.036-.01.022-.006.041-.012.007,0,.013,0,.029-.008.014,0c4.029-1.131,8.194-2.3,12.4-3.2,5.036-1.081,9.968-2.455,14.737-3.783l.029-.008.059-.016.039-.011.019-.005.118-.032.014,0,.015,0,.015,0,.086-.023.011,0,.149-.041c2.683-.746,5.453-1.516,8.267-2.234,6.314-1.617,13.134-3.232,20.85-4.937a4.994,4.994,0,0,1,1.148-.106c.227,0,.474.008.707.017h.011c.226.009.489.018.729.018a4.343,4.343,0,0,0,2.22-.495c5.224-2.951,11.071-4.009,16.725-5.032l.012,0h.012l.041-.008.036-.006.028-.005.012,0,.049-.009.041-.007.011,0,.036-.006h.006c1.929-.35,4.116-.746,6.227-1.234a11.269,11.269,0,0,1,1.255-.195h.013l.013,0,.024,0,.018,0,.043,0h.012c1.315-.146,2.557-.284,3.407-1.627.245.023.487.034.722.034a3.442,3.442,0,0,0,2.626-.9,4.116,4.116,0,0,0,.841-3.158c-.081-1.6-.063-3.179-.047-4.711v-.316l0-.179v-.022c.007-.617.016-1.384.016-2.134a3.346,3.346,0,0,1,2.206,1.666,6.271,6.271,0,0,1,.5,2.271v.036l0,.015.009.085c.305,3.328,1.644,4.946,4.092,4.946a8.983,8.983,0,0,0,2.7-.5c.267-.089.577-.158.763-.2l.031-.007.014,0,.026-.005.008,0,.017,0c1.029-.232,2-.45,2.34-1.678.32-1.181-.462-1.886-1.219-2.569l-.036-.033-.059-.053c-.085-.076-.175-.158-.259-.239-5.246-4.957-10.579-10.048-15.85-15.13-22.867-22.02-45.687-43.359-72.914-68.624-10.488-9.73-20.767-19.45-30.707-28.85l0,0-.012-.012-.078-.074-.009-.009-.086-.082-.105-.1-.024-.022-.158-.149-.027-.026,0,0-.143-.136-.138-.131-3.338-3.157c-1.285-1.215-2.27-1.805-3.01-1.805-1.05,0-1.594,1.21-1.664,3.7-.391.459-.833.92-1.155,1.256l-.017.018-.032.034-.014.013-.009.01-.013.014-.011.012-.006.007-.007.007a13.2,13.2,0,0,0-2.4,3.035c-12.1,23.924-23.72,44.9-35.528,64.124a21.408,21.408,0,0,0-3.941,5.946l-.006.011-.006.014,0,.005,0,.007,0,.006-.006.012,0,.006a25.575,25.575,0,0,1-3.227,5.218c-.444.515-.6.934-.485,1.283.183.554,1.016.824,1.888,1.032L289.471,492.2a3.161,3.161,0,0,0-2.059.943,3.248,3.248,0,0,0-.683,2.174c-.17.293-.334.581-.49.857l-.015.028-.065.114-.2.355-.046.081-.1.181-.133.236-.283.5-.02.032-.065.118,0,.005-.075.131,0,0-.006.01-.049.087-.017.03-.023.04-.038.066c-.779,1.377-1.748,3.091-2.709,4.692-1.7,2.826-3.271,5.763-4.788,8.6l0,.008,0,.007,0,.007,0,.009-.017.033,0,.005-.039.073,0,.007-.016.031-.014.029-.005.01-.013.025-.007.013-.006.011-.017.032a113.7,113.7,0,0,1-8.878,14.777l-.015.038-.059.153c-.029.074-.057.147-.085.221l-.011.028c-.083.213-.166.426-.25.639l-.032.086-.229.59-.326.5c-.135.2-.279.413-.426.642l-.187.28c-3.554,4.227-6.089,9.139-8.541,13.888l0,0-.015.035-.074.142,0,.011-.026.049-.03.056-.027.052-.005.01-.034.066,0,.008-.042.081c-.671,1.3-1.589,3.073-2.5,4.715-.761,1.371-1.469,3.306-.517,4.734l.013.019.006.01-4.493,7.811a3.589,3.589,0,0,0-2.567,1.241c-1.452,1.7-1.259,4.445-1.165,5.247l-.629,1.095Zm-55-8.536h0c.019.036.038.073.055.109l.007.013.012.024a3.275,3.275,0,0,1-.542.393,3.312,3.312,0,0,0,.544-.393l-.016-.031C192.111,560.331,192.092,560.295,192.074,560.26ZM89.676,431.132c-.917,0-1.366.944-1.8,1.857l0,.006-.009.017-.005.011,0,0a7.005,7.005,0,0,1-.6,1.094c-8.9,12.024-17.987,24.4-27.017,36.773s-18.126,24.919-27.048,37.318c-.136.184-.3.385-.413.52l-.011.014-.008.01-.023.028-.008.01-.007.01a3.4,3.4,0,0,0-1.072,2.092l-1.852,2.533,182.989,42.694-17.694-29.066-7.359-13.083a.783.783,0,0,0,.408-.272.914.914,0,0,0,.023-.841,38.184,38.184,0,0,0-2.371-5.191l0-.008,0-.008,0-.01,0-.006-.019-.035-.009-.017c-.288-.552-.712-1.374-1.079-2.134a2.937,2.937,0,0,0-1.185.971l-14.4-25.6a8.429,8.429,0,0,0-.679-4.928c-2.088-4.564-4.556-8.994-6.942-13.278l-.019-.034-.015-.028-.011-.022-.058-.1-.115-.209-.01-.017-.023-.041,0-.005-.01-.018-.014-.025-.079-.142,0-.007c-.751-1.347-1.885-3.383-2.873-5.226l-.221.033-.426.063-.065.01-.413.061v2.618l-13.27-23.591a41.825,41.825,0,0,0-1.466-7.465,50.181,50.181,0,0,0-6.627-13.841,22.953,22.953,0,0,1-1.534-2.828l0-.008-.005-.012c-.931-1.923-1.894-3.911-3.821-5.271a4.814,4.814,0,0,0-1.2,3.378l-12.771-22.7-.553,7.529c-.593.809-1.207,1.651-2.055,2.815l-.435.6-.727,1-.038.05,0,.005-.016.022-.249.341-.021.028-.057.077-.2.268-.009.012-.015.021-.171.234-.015.021c-2.746,3.765-5.859,8.032-9.019,12.3a3.634,3.634,0,0,0-.7,2.028L89.968,431.161a1.4,1.4,0,0,0-.289-.03ZM151.156,552.3c.884.213,1.786.435,3.005.74C153.03,552.753,152.1,552.524,151.156,552.3ZM118.363,375.789c-.23,0-.4,0-.522.009.394.771.856,1.685,1.414,2.794l.055.11.07.139.033.066.118.234.013.028.17.337,0,.007.008.018.1.193,0,.007,0,.005.022.045.019.039.005.01.022.044.006.014.021.042.048.1.007.013c1.3,2.592,2.532,5.04,3.9,7.532,5.635,10.328,11.633,21.272,15.655,28.606l.029.053.4.728.1.174,0,.008.105.191.051.094.149.274.011.019.009.017.181.33.32.584.011.02.023.044.017.031.044.081c9.721,17.74,19.774,36.084,29.662,54.407,3.636,6.743,7.086,13.543,10.422,20.119l.057.112.014.026.013.024.01.019.061.12.011.022,0,.005.02.04.047.093.02.039c3.914,7.718,7.961,15.7,12.277,23.526,1.159,2.106,2.293,4.273,3.293,6.186l0,.006.053.1.031.059,0,.008,0,.008.01.018,0,.009.009.016.014.024.014.027.074.139,0,.01,0,.005,0,.006c4.077,7.8,8.293,15.861,14.555,22.456a5.025,5.025,0,0,1,.649.962l.008.014.008.013.013.023c.406.731.825,1.486,1.651,1.486a1.7,1.7,0,0,0,.46-.072c1.51-.447,1.329-1.773,1.17-2.943l0-.007a8.315,8.315,0,0,1-.1-.958,42,42,0,0,0-2.974-14.327,123.369,123.369,0,0,0-6.189-13.072l0-.007,0-.009,0-.008-.013-.025-.008-.016,0-.006-.012-.022,0,0-.02-.037-.012-.023,0-.009c-1.652-3.157-3.361-6.423-4.825-9.767-.331-.754-.685-1.526-1.019-2.252l-.014-.033-.005-.013-.048-.1-.072-.158-.006-.013,0-.007-.061-.13-.053-.114-.061-.132c-.032-.068-.063-.135-.094-.2l-.015-.032-.071-.156,14.489,25.795-1.645-18.833c-.007-2.247-.035-4.128-.087-5.919-.014-.384,0-.771.008-1.03v-.031a8.442,8.442,0,0,0-.282-2.942,5.12,5.12,0,0,0-.613-1.225l-1.123-12.861v-6.159l-.207,0-.33,0L197.2,332.751c0-13.622,0-27.988,0-42.7a5.922,5.922,0,0,1,.074-.785l.006-.039,0-.009.005-.037c.13-.919.265-1.87-.7-2.267a1.892,1.892,0,0,0-.689-.149c-.859,0-1.347.788-1.82,1.551l0,.006c-.157.251-.287.457-.42.642l-.123.167-.122.166-.125-1.436L169.2,323.635v-.015l-.017.021,0,0c-4.763,5.984-7.386,9.279-8.036,11.962L142.469,363.35v-3.822c-.7.952-1.354,1.809-1.879,2.5l-.009.012-.052.068-.081.107-.016.022-.011.014-.051.068-.092.121-.01.014-.011.014-.026.034-.013.016,0,0-.018.023a57.792,57.792,0,0,0-3.724,5.243,17.776,17.776,0,0,1-2.044,2.584l-.008.009-.01.012c-1.52,1.7-3.092,3.451-3.058,6.1a9.208,9.208,0,0,1-3.243.549,24.2,24.2,0,0,1-4.615-.6l-.015,0-.119-.023-.009,0-.012,0A25.932,25.932,0,0,0,118.363,375.789Zm116.589,14.872h0l1.031,20.7c.01.606.026,1.167.048,1.715.026.754.072,1.443.141,2.105l6.392,128.707,2.423-4.349a9.753,9.753,0,0,0,1.13,1.769c4.011-7.268,8.34-14.976,11.5-20.6l.164-.292,0,0,.007-.012,0-.007.007-.013.041-.073.009-.016.008-.014.011-.02.167-.3.1-.176.005-.011.069-.123.025-.046.018-.032.013-.023.008-.015,0-.007.005-.009,0-.005,0-.005.011-.02,0-.005c10.486-18.669,21.328-37.973,31.033-57.538l-.075-.027-.321-.114-.517-.184-.01,0,1.24-2.226-.1-.659a15.909,15.909,0,0,0,1.727-2.758l.009-.014.018-.031,0,0c.187-.351.319-.595.442-.815,11.35-20.331,22.854-40.832,30.466-54.4l.41-.731.028-.051.022-.037.18-.32.094-.165.013-.024.049-.088.07-.124.147-.264.142-.254c2.855-5.089,5.807-10.351,8.743-15.59a5.618,5.618,0,0,1,1.626-.187c1.154-.022,2.345-.044,2.707-1.388.321-1.2-.724-2.032-1.735-2.837l-.023-.019-.012-.009-.011-.008-.014-.011c-.186-.147-.468-.37-.7-.59-2.648-2.44-5.453-5-7.847-7.173l-.069-.064-.382-.348-.062-.057-.008-.007-.033-.03-.173-.157-.015-.014-.789-.717-.039-.032-.185-.17-.006,0-.013-.013-.005,0-.212-.194-.137-.124,0,0-.116-.105c-3.671-3.338-7.832-7.121-11.943-10.959-16.163-15.077-31.769-29.686-47.664-44.57l-.287-.267q-8.413-7.879-16.829-15.755c-1.068-1-2.143-2.006-3.213-3.01l-.7-.656-.073-.067-1.213-1.137-.887-.831-.5-.47c-3.544-3.32-6.232-5.837-9.419-8.82-.079-.07-.163-.151-.264-.254l-.039-.038,0,0,0,0-.078-.076a3.574,3.574,0,0,0-2.329-1.361,2.134,2.134,0,0,0-.678.113c-1.425.466-1.355,1.7-1.292,2.792v.019c.014.292.021.452.024.606.006,1.2-.01,2.464-.027,3.652l0,.158v.086a65.881,65.881,0,0,0,.391,10.334c1.53,10.639,2.205,21.453,2.858,31.911l0,.038.031.48,0,.016v.019l.016.257.01.163v.021l.022.345.005.084v.014l0,.057c.218,3.474.444,7.066.715,10.682.767,10.327,1.42,20.458,2.051,30.255l.019.282,0,.051v.014l.025.392,0,.029.009.138,0,.016.019.266.011.174v.012l0,.054.036.563,0,.035.031.484,0,.032.011.167c.217,3.381.547,8.484.9,13.744,0,.076.009.167.014.287v.016c.026.688.053,1.4.755,1.4a1.8,1.8,0,0,0,.55-.109ZM80.868,533.422h0a1.078,1.078,0,0,0,.324.536,1.07,1.07,0,0,1-.323-.537Zm137.023-14.4h0l.088,1.3c.278,4.319.594,8.9.94,13.6-.341-4.677-.657-9.253-.939-13.6ZM83.675,529.047a2.341,2.341,0,0,1-.863,1.553A2.336,2.336,0,0,0,83.675,529.047ZM20.113,527.5h0a11.048,11.048,0,0,0,.506,1.171,11.228,11.228,0,0,0,.791,1.3l.008.011.022.033.014.02.1.148-.093-.139-.012-.017L21.43,530a11.219,11.219,0,0,1-.812-1.333,10.383,10.383,0,0,1-.506-1.173ZM68.986,529.6l-.033.011-.008,0a8.008,8.008,0,0,1-1.364.375,7.663,7.663,0,0,0,1.365-.374Zm-44.637-6.838a7.914,7.914,0,0,0,.987.323,154.9,154.9,0,0,1,19.892,6.518,154.468,154.468,0,0,0-19.892-6.519A8,8,0,0,1,24.349,522.766ZM8.025,521.028h0c.031.773.015,1.71-.4,2.1.414-.379.436-1.272.4-2.1Zm14.349,1.211a5.287,5.287,0,0,1,1.815.466l.015.006.066.026.018.006-.016-.006-.023-.01-.025-.01-.019-.007a5.216,5.216,0,0,0-1.828-.472,1.9,1.9,0,0,0-.758.146A1.931,1.931,0,0,1,22.374,522.239Zm24.317-1.9h0l-.006,0-.007,0A30.322,30.322,0,0,1,37.9,522.41a30.268,30.268,0,0,0,8.782-2.061l.015-.006ZM26.6,518.716c.159.056.316.113.522.19C26.945,518.839,26.789,518.781,26.6,518.716Zm-5.331-2h0a23.916,23.916,0,0,0,5.03,1.907A24.055,24.055,0,0,1,21.27,516.712Zm-2.112-8.86h0c-.029.469-.052.908-.07,1.3-.149,3.012-.095,4.771.619,6.026-.713-1.257-.768-3.016-.618-6.026.017-.387.04-.826.069-1.3Zm434.3-34.472,0,0,6.363,5.785a19.409,19.409,0,0,0,2.973,5.442,18.539,18.539,0,0,0,5.188,4.509,5.785,5.785,0,0,1,1,.845l.015.015.017.016.013.012.009.009.005.005a2.994,2.994,0,0,0,1.9,1.15,1.707,1.707,0,0,0,.781-.206c1.319-.679.964-1.819.621-2.921l-.007-.02-.006-.021a7.355,7.355,0,0,1-.266-1.03c-.31-1.924-.633-3.909-.849-5.234l-.031-.188-.056-.346,0-.015-.151-.929,0-.007,0-.015,0-.016,0-.022-.023-.142-.01-.06,0-.014-.009-.053-.014-.086c-1.108-6.782-2.255-13.794-3.184-20.792-.978-7.348-1.85-14.658-2.618-21.107v-.02l-.009-.077,0-.023,0-.017,0-.012-.023-.2v-.01l0-.014-.009-.076,0-.029-.009-.072-.006-.042-.017-.143c-.769-6.434-1.641-13.726-2.6-20.973-.991-7.412-2.142-15.107-3.067-21.29l-.021-.141,0-.017v-.011l-.014-.1-.028-.191-.005-.036,0-.013v-.013l-.028-.185,0-.013-.046-.307-.013-.089-.005-.038,0-.012v-.005c-.6-3.984-1.6-10.651-2.448-16.784-1.059-7.609-2.094-15.439-2.85-21.156l-.049-.374,0-.037-.032-.241-.01-.079V355.1l-.121-.914-.008-.059c-1.143-8.642-2.173-16.4-3.21-23.819-.764-5.473-1.588-10.882-2.385-16.112l-.022-.144-.01-.065v-.006l-.007-.049-.029-.19,0-.022-.018-.119-.014-.1-.053-.339,0-.018,0-.007-.006-.038v-.009l0-.007-.008-.052,0-.011-.008-.05-.015-.1c-1.425-9.341-2.9-19-4.023-28.683-1.884-16.233-4.124-32.3-6.289-47.831l0-.014v-.019l-.007-.056,0-.01q-.428-3.073-.854-6.137a4.069,4.069,0,0,1-.041-.465c-.045-.677-.092-1.377-.955-1.559a1.122,1.122,0,0,0-.261-.028c-.557,0-.883.39-1.228.8a5.014,5.014,0,0,1-.447.478,13.542,13.542,0,0,0-4.428,7.668l-49.461,89.654-.458.815-.1.168-.928,1.65a7.752,7.752,0,0,0-.356.7l-6.982,12.658c-.885.3-1.741,1.424-3.051,3.994a139.862,139.862,0,0,1-9.464,18.289l-.007.012-.015.028-.011.019-.023.04-.007.01-.04.069-.014.021-.024.04-.016.027,0,.008c-1.841,3.162-3.744,6.431-5.517,9.823-1.65,3.16-1.392,5.064.984,7.275,10.084,9.39,20.028,18.671,29.643,27.647l.036.034,1.3,1.217.063.058.15.14.2.188.007.006.07.066.021.02.163.152.025.024.077.071.245.23.557.52.125.117.466.435c13.072,12.2,27.889,26.037,42.281,39.386.716.666,1.425,1.4,2.051,2.05l.06.061.006.007.05.051.022.022.006.005c2.29,2.378,4.657,4.837,8.15,5.71a21.36,21.36,0,0,1,2.042,2.887l.006.01.007.012.009.013.015.023c1.319,2.109,2.683,4.29,5.386,5.232a4.289,4.289,0,0,1,.22-.452l.008-.016,0-.006,0,0,.011-.021.009-.017.005-.011.009-.019c.039-.079.084-.168.116-.245l3.525,3.206.131.822.066.4c.162,1.013.875,1.5,2.179,1.5.1,0,.142,0,.184,0l-.013-.067-.062-.4ZM47.623,254.15a6.119,6.119,0,0,1-1.487,2.309c.013.834.045,1.71.072,2.38v.016a48.358,48.358,0,0,1,.014,5.062v.025l-.011.155,0,.048,0,.018-.03.439,0,.023-.021.306,0,.027,0,.021,0,.024-.015.231c-1.52,22.655-3.243,48.329-5.079,73.821-.57,7.873-1.266,16.47-1.727,22.159l0,.035v.014l-.008.1-.014.179-.027.338,0,.036,0,.026-.009.108,0,.03,0,.013-.012.142,0,.017v.008l0,.019,0,.036v.012l-.019.232,0,.044-.008.1c-.724,8.961-1.473,18.227-2.1,27.523-.5,7.426-.764,14.817-1.018,21.965l0,.131v.017l0,.049,0,.066v.007l0,.054-.007.18v.011l-.019.513,0,.053v.039c-.145,4.011-.233,6.413-.346,9.133-.806.558-1.637,1.242-1.694,2.09A2.343,2.343,0,0,0,35,426.35q-.27,4.659-.542,9.318l-.024.423-.071,1.233v.006l0,.063,0,.028-.008.133,0,.059-.015.263-.005.092c-.524,8.964-1.4,23.966-2.17,38-.019.307-.069.663-.106.922l0,.038v.006l0,.019,0,.032c-.192,1.347-.409,2.873,1.128,3.418a2.184,2.184,0,0,0,.719.136c1.078,0,1.584-1.039,2.074-2.045l.005-.012.006-.014.006-.014a7.335,7.335,0,0,1,.566-1.023c5.62-7.9,11.5-16.229,15.383-21.743l.042-.06.2-.28.019-.026.032-.044.144-.2.048-.068.153-.217.016-.023.149-.212.019-.025.022-.032,0-.006.058-.083.085-.122.026-.037.005-.008.01-.014.07-.1.013-.017.13-.185.024-.035.012-.018,0,0c7.746-10.985,15.755-22.344,23.9-33.639l.3,1.1,26-39a19.942,19.942,0,0,0,4.34-5.413l.007-.009.017-.024.007-.012.029-.047.011-.018,0-.007c.282-.462.665-1.09,1.074-1.682a12.391,12.391,0,0,1,.82-1.037l.012-.014.018-.02.011-.013c1.021-1.2,2.076-2.439,1.265-4.1l-.032-.065-.016-.033,1.979-2.762.418.76-.343-.625-.074-.135,16.919-23.612c.065.256.136.507.212.746a37.29,37.29,0,0,0,4.9-5.228,6.112,6.112,0,0,0,1.451-3.968,3.94,3.94,0,0,0-.09-.588l20.284-28.308a4.573,4.573,0,0,0,.835.747c1.347-2.2,2.91-4.279,4.421-6.291l.013-.017.031-.04.011-.012a53.212,53.212,0,0,0,6.281-9.752c.28-.621.532-1.246.748-1.857l13.867-19.353v.286l.046-.065.862-1.2.067-.095.307-.427.468-.652.686-.957.036-.049.005-.008.1-.134.039-.053.235-.328.022-.031.143-.2.325-.454c1.4-1.953,2.761-3.856,4.049-5.666.093-.133.2-.261.339-.436l0-.005,0-.005,0,0,.009-.009,0-.005,0-.005a2.8,2.8,0,0,0,.8-1.427l2.307-3.219v-4.048l-9.07,4.9-.178-.026a2.5,2.5,0,0,0-.333-.026,1.111,1.111,0,0,0-1.175.962l-1.366.738L169.4,254.146a4.687,4.687,0,0,0-.766-1.775c-1.1-1.452-3.257-2.025-7.562-3.167l-.009,0-.645-.172a9.707,9.707,0,0,0-2.39-.4,1.922,1.922,0,0,0-1.471.5,3.141,3.141,0,0,0-.68,1.975l-13.4-3.017a4.66,4.66,0,0,0-.7-1.427c-1.16-1.54-3.415-2.124-7.906-3.287l-.018,0-.193-.05-.364-.095-.288-.075a8.365,8.365,0,0,0-2.065-.326,1.953,1.953,0,0,0-1.451.479,2.655,2.655,0,0,0-.594,1.73l-12.247-2.758v-.035l0-.075c0-.047,0-.093.007-.139l.005-.113c.069-1.336.141-2.717-1.97-3.126-2.254-.436-4.455-1.019-6.584-1.583l-.026-.007-.013,0-.008,0-.049-.013-.148-.04-.131-.034c-.732-.194-1.242-.327-1.706-.446a7.559,7.559,0,0,0-1.883-.282,2.382,2.382,0,0,0-1.8.639,3.232,3.232,0,0,0-.77,1.866L90.4,236.361c-.07-2.157-1.035-3.429-2.95-3.891-11.129-2.677-22.161-5.23-32.424-7.589-.06-.013-.123-.029-.183-.045l-.026-.007-.023-.006-.01,0-.008,0-.019-.005L54.7,224.8l-.008,0-.06-.016-.009,0-.007,0-.013,0-.013,0-.018,0h-.005a4.616,4.616,0,0,0-1.1-.193,1.2,1.2,0,0,0-1.145.663c-.516.955.2,1.7.9,2.416l.121.119.257.266.05.049-.218-.049L77.5,273.512l-.094-.094-.093-.095-.041-.041-.132-.132-.3-.3-.015-.015-.351-.354-.055-.055-.17-.171L75.992,272l-.257-.259-.065-.065c-.452-.456-1.654-1.666-2.753-2.766l8.345,15.265.232.424,4.467,8.172,3.074,5.624.572,1.045c.022-.577.063-1.161.1-1.629v-.014l0-.056,0-.039,0-.032v-.013l0-.045v-.023l.007-.1,0-.025c0-.059.007-.118.013-.177l0-.068.019-.286.011-.153,0-.054,5.342,10.09L89.18,330.232c-.14-.309-.281-.595-.433-.872C76.094,306.226,62.386,281.275,50.531,259.7c-.024-.042-.048-.086-.071-.129l-.029-.054-.019-.034-.011-.019-.006-.012-.005-.011-.014-.024-.024-.046-.017-.032c-.784-1.449-1.594-2.948-3.483-2.948a4.264,4.264,0,0,0-.713.064A6.076,6.076,0,0,0,47.623,254.15ZM213.7,464.965c.106,1.306.21,2.49.317,3.587C213.9,467.369,213.8,466.184,213.7,464.965ZM28.368,442.724c-.022.341-.048.73-.081,1.182a118.815,118.815,0,0,1-1.867,12.978,116.994,116.994,0,0,0,1.868-12.978C28.312,443.583,28.336,443.218,28.368,442.724Zm183.548-6.139h0c.033.436.062.827.088,1.188-.025-.352-.052-.736-.086-1.189Zm-198.825-10.6-.02.246,0,.048-.04.509c-.07.916-.142,1.866-.214,2.825l.129-1.688.105-1.37.027-.355Zm197.448-6.894h0l.033.4.023.284.012.144c.193,2.4.37,4.587.534,6.655-.185-2.332-.387-4.848-.6-7.479Zm-193.5-55.481h0l0,.024-.006.057v.008l0,.051v.005l0,.019v.008l0,.029c-.771,9.08-1.644,19.37-1.931,29.484-.247,8.631-.88,17.829-1.4,24.878.555-7.467,1.158-16.262,1.4-24.879.291-10.2,1.172-20.553,1.95-29.685ZM209.9,411.229h0l.13,1.6c.1,1.211.216,2.6.353,4.265l-.06-.736L210.2,415l-.012-.142L210.1,413.7l-.117-1.427Zm-1.7-21.012h0l.1,1.236.1,1.255-.036-.454-.059-.744q-.05-.638-.1-1.293Zm-.351-5.327h0c.082,1.595.166,2.924.265,4.181l.014.174-.014-.175c-.1-1.268-.184-2.636-.263-4.181Zm-.158-3.508c0,.139.011.279.016.417l0,.033,0,.081.005.117c0-.035,0-.07,0-.1v-.03c0-.1-.008-.193-.011-.29ZM33.185,352.63v.086c.058,6.025.117,12.255-.238,18.39-.2,3.466-.419,6.886-.66,10.455.247-3.662.464-7.082.66-10.454.357-6.163.3-12.414.238-18.459v-.013Zm173.91,18.147h0c.068.773.127,1.53.182,2.315-.056-.81-.114-1.568-.18-2.316Zm-89.975,1.181a2.177,2.177,0,0,1-.468.158A2.117,2.117,0,0,0,117.12,371.958Zm2.211-13.009h0c.25.575.457,1.069.632,1.51.365.927.007,3.7-.508,6.041a22.634,22.634,0,0,1-1.327,4.262c.106-.225.22-.492.337-.8a27.048,27.048,0,0,0,.99-3.465c.516-2.338.873-5.113.509-6.041C119.792,360.031,119.6,359.579,119.33,358.949Zm235.345-14.387c-5.036,6.15-8.411,13.32-11.675,20.255l-.007.019c-.811,1.722-1.375,2.911-1.887,3.978a161.847,161.847,0,0,0,10.735-17.07c.253-.45.577-.975.7-1.173l.021-.034.016-.026.01-.015.011-.017.007-.012.006-.009,0-.005c1.091-1.769,2.219-3.6,2.061-5.89Zm-81.265-37.354h0l5.658,6.024,1.243.468a12.811,12.811,0,0,0,1.12,1.136c4.406,3.971,8.663,7.952,12.42,11.464l.106.1.033.032.05.047.008.007.011.009.1.1.042.04.007.007.157.146.1.1.013.012.042.04,0,0,.017.016c4.83,4.513,9.824,9.18,14.923,13.7,1.851,1.648,3.577,3.377,5.246,5.05l.01.008.019.019.021.02.007.006.045.044.008.009.008.008c3.627,3.636,7.378,7.4,12,10.029.493,2.216,2.137,3.381,3.726,4.506l.011.006.005,0,.01.007a12.856,12.856,0,0,1,2.57,2.181c1.06,1.28,1.949,1.876,2.8,1.876.966,0,1.919-.769,3.188-2.571,1.973-2.8,3.864-5.658,5.692-8.425l.045-.068.066-.1,0-.005.01-.014.052-.079,0-.006.034-.051.027-.04.087-.132.006-.01.013-.017.009-.014.007-.011a173.43,173.43,0,0,1,12.494-17.341c.327,1.816-.579,3.246-1.454,4.629l0,.006,0,.005,0,0c-.819,1.29-1.667,2.625-1.512,4.268a4.919,4.919,0,0,0,2.758-2.663l.193-.337.249-.439.293-.517q.36-.637.724-1.273L359,339.1l.006-.011.017-.031,0-.007.029-.051.016-.03.006-.01.016-.029,0,0,.069-.122.008-.015c2.493-4.388,5.319-9.362,8.008-14.382,3.9-7.293,7.992-14.44,11.949-21.352l.022-.038.009-.014.021-.036.008-.014,0-.012.007-.014.006-.012,0-.007.025-.045.022-.038.005-.009,0-.006c5.911-10.334,12.022-21.019,17.407-31.943,4.991-10.132,10.859-19.93,16.535-29.4l.012-.02.006-.01,0-.007.015-.025.009-.016.3-.5.119-.2.061-.1.233-.391.042-.07.284-.477.29-.486.006-.011.182-.3.026-.043q.974-1.629,2.012-3.371a92.119,92.119,0,0,0,4.62-9.3l.012-.022.005-.013,0-.006c2.377-5.264,4.835-10.707,8.932-15.254h-.067l-.129,0h-.007c-.636-.016-1.237-.032-1.757-.032-2.863,0-3.084.424-4.528,3.183l-.023.041-.088.171-.005.009-.006.011-.006.012-.015.029a34.406,34.406,0,0,1-2.111,3.644c-.059.082-.112.161-.168.249l-.011.016,0,.005-.03.045-.077.115c-.59.892-1.259,1.9-2.346,1.9a1.761,1.761,0,0,1-.341-.032c-1.3-.237-1.265-1.232-1.231-2.194v-.063a4.857,4.857,0,0,0-.046-1.075,6.839,6.839,0,0,1-.1-1.063v-.03c-.042-1.044-.086-2.124-1.055-2.124a1.26,1.26,0,0,0-.26.023,34.111,34.111,0,0,1-4.042.35h-.066c-3.568.167-7.258.339-10.123,3.309a32.846,32.846,0,0,0-4.114,1.048l-.017.005-.011,0-.018.005-.036.011-.006,0a31.883,31.883,0,0,1-4.1,1.049,46.86,46.86,0,0,0-5.994,1.518l-.02.005-.007,0-.009,0a31.845,31.845,0,0,1-9.061,1.781,15.791,15.791,0,0,1-2.083-.139c-.572-.052-1.171-.078-1.779-.078-4.274,0-8.353,1.342-12.3,2.64l-.007,0-.014.005-.005,0-.013.005-.049.015c-.435.145-.913.3-1.419.466l.109-.048-.445.037-.279.022-.153.013h-.1a38.8,38.8,0,0,0-6.423.882,13.367,13.367,0,0,0-5.865,3.047,10.605,10.605,0,0,0-1.167-.068,19.451,19.451,0,0,0-6.142,1.336l-.012,0-.009,0-.011,0-.006,0-.005,0-.011,0a29.125,29.125,0,0,1-4.127,1.155c-4.353.765-8.644,1.831-12.795,2.861l-.039.01-.007,0-.038.009-.212.053-.013,0-.065.016-.031.007-.071.017h-.005c-1.07.267-2.4.6-3.616.89-1.125.272-1.921.579-2.147,1.2a1.435,1.435,0,0,0,.071,1.018l-3.479.833-3.073.735a2.944,2.944,0,0,1,.147-.77c.436-1.324,1.8-2.352,4.157-3.145a26.653,26.653,0,0,1-4.479.739c-3.2.338-6.215.658-8.5,3.455l-2.209.419-5.872,1.114a16.087,16.087,0,0,0-2.282-.167c-3.808,0-7.376,1.371-10.826,2.7l-.006,0-.184.07q-.333.128-.671.256l-2.107,1.107c-.692-.024-1.3-.036-1.8-.036-8.447,0-16.546,2.427-24.379,4.774l-.009,0-.01,0-.009,0-.009,0-.015,0-.178.053-.014,0-.011,0-.039.012-.006,0-.025.007-.006,0-.008,0-.094.028-.014,0-.04.012-.007,0c-1.663.5-3.547,1.065-5.434,1.593l-.572.185a23.442,23.442,0,0,1-7.105,1.5,11.764,11.764,0,0,1-1.525-.1c-.74.146-1.479.28-2.112.394l-.011,0-.177.032-.07.013-.053.01-.034.006H233.9l-.025,0-.031.005c-1.7.308-3.459.627-5.252,1.067-2.27.557-3.84,1.784-4.308,3.365-.427,1.439.1,3.038,1.477,4.5.46.492.93,1.005,1.412,1.532l.007.01.06.065.01.011c2.364,2.594,4.808,5.276,8.1,6.9.842.825,1.659,1.658,2.492,2.511l.006,0,.021.022,0,0,.005.005a70.679,70.679,0,0,0,5.979,5.655,14.3,14.3,0,0,1,1.662,1.694l.023.024c1.246,1.419,2.534,2.885,4.785,2.885h.069c.266,1.867,1.551,3.069,2.794,4.231l.2.181c2.536,2.385,4.293,4.04,5.875,5.532l.007.006.28.265.014.013.132.124.054.051.059.056.007.007.189.178c2.946,2.779,6.981,6.585,10.733,10.048a6.963,6.963,0,0,1,.641.737l.011.014.021.024.015.02.008.009c.541.686,1.1,1.395,1.906,1.395h.075ZM33.161,341.954h0c-.043,3.213-.019,6.332.007,9-.026-2.709-.048-5.862-.007-9Zm169.213-32.772.035.484.262,3.676,0,.04.007.105,0,.02v.023l.015.218v.006l.016.229c.394,5.565.7,9.807,1.013,14.184-.34-4.711-.69-9.648-.922-12.915l-.053-.753-.068-.968-.006-.1,0-.033,0-.041-.1-1.412-.186-2.615Zm-1-15h0c.231,3.894.44,7.118.658,10.147l.162,2.277.175,2.452-.108-1.514-.005-.075-.041-.564-.067-.951-.075-1.054-.02-.289-.021-.284c-.218-3.04-.427-6.264-.657-10.147ZM21.693,296.423v.028l0,.045-.015.3-.042.877c-.087,1.807-.165,3.4-.239,4.878.068-1.34.143-2.851.241-4.9l0-.086.026-.535.025-.515,0-.031,0-.045Zm.315-6.428c-.049.931-.1,1.884-.143,2.834l-.041.815v.02l-.017.355-.028.582-.008.167-.045.933-.005.123-.021.433v.035l-.006.125,0-.016v-.021l0-.1,0-.059.015-.331.023-.476.026-.543v-.011l.025-.525,0-.064.02-.4C21.866,292.823,21.936,291.385,22.008,289.995Zm178.541-9.93.042.746.061,1.015v.019l.025.428-.026-.452C200.623,281.309,200.589,280.74,200.549,280.065Zm-132.694-17.9h0c.249.5.484.987.7,1.439a4.569,4.569,0,0,0,1.874,1.808l0,0c.938.6,1.823,1.17,1.985,2.449l0,.011v-.007c-.161-1.279-1.041-1.847-1.973-2.448a4.6,4.6,0,0,1-1.891-1.815C68.291,263.055,68.062,262.585,67.855,262.167Zm-43.533-8.309v.368c-.025,3.7-.051,7.521-.371,11.3.32-3.783.346-7.582.372-11.257v-.408Zm42.1,5.542h0c.144.269.318.595.516.974-.147-.282-.305-.582-.515-.974Zm-8.152-13.515h0l.022.033c2.368,3.713,4.817,7.552,7.041,11.5-2.24-3.98-4.688-7.815-7.055-11.523Zm-33.886,2.98c-.038,1.527-.052,3.074-.063,4.52C24.336,251.931,24.35,250.427,24.387,248.866Zm14.5-9.5.005.044,0,.015.01.07,0,.024,0,.016,0,.028c.6,4.625-.766,8.983-2.087,13.2l0,.007-.139.442.136-.431,0-.006c1.323-4.218,2.691-8.58,2.091-13.207l-.009-.059,0-.015c0-.022-.006-.043-.009-.066ZM47.4,250.718h0a5.8,5.8,0,0,1,.436,1.96,5.805,5.805,0,0,0-.436-1.961Zm177.373-4.307h0a2.969,2.969,0,0,0,.315.015,7.885,7.885,0,0,0,2.636-.614,7.9,7.9,0,0,1-2.636.613C225.007,246.426,224.9,246.421,224.776,246.411ZM48.254,228.756a168.619,168.619,0,0,0,9.929,16.99l.017.026.011.015.014.021.012.019.01.016.021.032-.005-.009-.012-.02-.009-.014,0,0-.007-.013A169.658,169.658,0,0,1,48.254,228.756Zm184.277,15.7a36.58,36.58,0,0,0-4.7,1.325A36.973,36.973,0,0,1,232.531,244.451Zm-44.536-8.834c-2.6,0-3.788.073-4.434.522-.672.469-.717,1.386-.739,2.965a4.68,4.68,0,0,0,1.33,3.477c1.366,1.384,3.746,2.116,6.882,2.116.1,0,.191,0,.288,0a2.162,2.162,0,0,0,1.636-.552,3.071,3.071,0,0,0,.394-2.3v-.008l-.005-.053c0-.011,0-.023,0-.033s0-.023,0-.036l0-.032v-.014a.228.228,0,0,1,0-.024v-.049l0-.026c-.023-.377-.037-.76-.048-1.089v-.009l0-.057c-.085-2.482-.174-5.048-2.93-5.048a7,7,0,0,0-1.741.255h-.618ZM246.979,225.5l-.005,0h-.005a9.981,9.981,0,0,0-3.48.967l-.009,0-.009,0-.006,0a11.647,11.647,0,0,1-3.439,1,21.811,21.811,0,0,0-2.466.319c-.775.134-1.659.64-1.6,1.624a31.442,31.442,0,0,1-.144,4.332v.088l0,.03c-.263,3.19-.535,6.488,1.415,9.526a.6.6,0,0,0,.012.165c.9-.16,1.851-.259,2.615-.339l.036,0,.045,0,.015,0,.046,0H240l.057-.006a16.518,16.518,0,0,0,6.715-1.68h-.088a2.82,2.82,0,0,1,1.618-1.4c.927-.464,1.885-.943,1.73-2.389a19.7,19.7,0,0,1,.166-4.214l0-.019v-.007c.284-2.6.553-5.057-.9-6.867a2.842,2.842,0,0,0-2.318-1.135ZM144.033,240.391h0c4.091.942,7.7,1.932,11.019,3.025C151.732,242.325,148.128,241.334,144.033,240.391Zm16.769,1.576a5.826,5.826,0,0,0-3.527,1.189A5.861,5.861,0,0,1,160.8,241.967Zm3.848.631h0l.009,0,.022.005.034.009.02.006c.366.091.862.214,1.364.318-.5-.1-1-.23-1.369-.321l-.039-.01-.005,0-.012,0-.023-.006Zm83.478-1.139c-.422.025-.851.047-1.275.068C247.244,241.508,247.638,241.488,248.127,241.458ZM42.113,239.265h0c.22.5.389.89.5,1.149-.211-.491-.421-.967-.5-1.149Zm-1.286-2.147h0a2.789,2.789,0,0,1,.961,1.383A2.746,2.746,0,0,0,40.827,237.118Zm242.647-1.657c-3.457.863-6.559,1.591-9.484,2.228C276.892,237.058,279.994,236.33,283.474,235.461ZM134,231.086h0a17.322,17.322,0,0,0,8.4,3.813A17.349,17.349,0,0,1,134,231.086Zm-28.142,1.784c1.261.322,2.541.628,3.91.936C108.389,233.5,107.11,233.189,105.854,232.87Zm189.619-.539-.024.007-.086.023-.006,0-.089.023-.109.03-.418.113.456-.122.269-.072Zm10.435-2.729c-3.4.865-6.4,1.647-9.165,2.389l-.782.21-.08.022.024-.006.007,0,.443-.119.39-.1C299.628,231.219,302.625,230.437,305.908,229.6Zm-174.785,1.477c-.362,0-.753.015-1.228.035l-.082,0H129.8l.055,0h.051c.345-.015.774-.034,1.187-.034l.1,0h.1c1.036-.023,1.872-.043,2.632-.064.561-.143,1.1-.3,1.65-.467l.044-.014.041-.013.027-.009a18.941,18.941,0,0,1,3.969-.893,2.6,2.6,0,0,0,2.354-1.237,5.59,5.59,0,0,0,.372-2.528,2.278,2.278,0,0,0-.743-1.922,3.053,3.053,0,0,0-1.911-.487c-.1,0-.2,0-.286.005-.286.009-.571.014-.869.014l-.306,0h-.306l-.133,0h-.007l-.133,0h-.016l-.12,0H137.4l-.13,0h-.109c-.172,0-.425-.005-.656-.005a16.118,16.118,0,0,0-2.5.163,2.269,2.269,0,0,1-.4.029,7.666,7.666,0,0,1-1.158-.121l-.015,0-.013,0h-.009a7.994,7.994,0,0,0-1.174-.122c-.695,0-1.529.182-1.818,1.606a9.258,9.258,0,0,0-.243,3.343,3.635,3.635,0,0,0,2.128,2.74ZM165.1,215.415a21.677,21.677,0,0,0-4.442.34,5.069,5.069,0,0,0-2.656,1.3,5.167,5.167,0,0,0-1.289,2.686,22.333,22.333,0,0,0-.333,4.489c0,.311-.008.626-.015.88v.08c-.042,1.5-.082,2.924.784,3.812a3.9,3.9,0,0,0,2.913.9h.176c3.191-.059,5.6-.35,7.007-1.585,1.227-1.081,1.731-2.89,1.74-6.245.01-3.729-.058-5.32-.784-6.049-.57-.565-1.531-.607-3.045-.608Zm30.964,4.918h0c.152,2.443.319,4.921.51,7.576-.2-2.766-.365-5.245-.508-7.577Zm93.749,5.336h0l.31.077.04.01.229.058.049.013.067.017.062.015.029.007.192.048.038.01.012,0-.05-.013-.848-.213Zm5.527-3.507h0a1.5,1.5,0,0,0-.645.383,3.2,3.2,0,0,0-.652,2.342,1.24,1.24,0,0,1-.3.894,1.241,1.241,0,0,0,.3-.894,3.215,3.215,0,0,1,.651-2.341,1.5,1.5,0,0,1,.646-.384ZM44.258,223.19h0a4.535,4.535,0,0,1,.409.213A4.608,4.608,0,0,0,44.258,223.19ZM347.6,194.676h0c-9.423,10.09-17.834,19.1-26.43,28.3.516.051,1.028.077,1.521.077a27.746,27.746,0,0,0,7.577-1.38l.013,0,.13-.037a26.279,26.279,0,0,1,7.206-1.351,12.5,12.5,0,0,1,2.083.173,4.089,4.089,0,0,1-2.89,1.5,4.069,4.069,0,0,0,2.891-1.5l-.055.139c.4-.047.828-.089,1.385-.138h.006l.082-.007c2.268-.206,4.612-.419,6.593-1.9l-.012,0-.007,0h-.006l-.022,0-.027.005-.038.007V194.676Zm-127,25.4c.029.943.092,1.822.19,2.687C220.7,221.887,220.634,221.008,220.6,220.077Zm116.014,1.91c-.4.074-.655.125-.924.193l-.157.04-.824.211.429-.109.222-.057.068-.017.059-.015.1-.025.053-.013.054-.014c.274-.068.574-.127.859-.181l.027-.005.025,0Zm-146.382-7.15a2.773,2.773,0,0,0-.986.221,7.489,7.489,0,0,1-2.343.35c-2.1.1-4.274.205-4.248,3.624a2.766,2.766,0,0,0,.776,2.224,2.84,2.84,0,0,0,1.9.5c.456,0,.917-.035,1.364-.069h.013l.083-.006h.014c.341-.025.673-.048,1-.06a10.244,10.244,0,0,0,1.391.111,2.671,2.671,0,0,0,2.127-.745,3.693,3.693,0,0,0,.5-2.991c-.014-.112-.029-.225-.042-.334l-.005-.051-.015-.123C191.6,216.184,191.439,214.837,190.236,214.837Zm85.281,4.826h0a9.476,9.476,0,0,1-4.163,1.092c.134.042.289.087.382.113l-.007,0-.041-.012-.027-.008-.3-.09a9.42,9.42,0,0,0,4.162-1.092Zm38.187-3.1c.241,0,.48.006.729.019a14.753,14.753,0,0,1-2.055,2.288,14.77,14.77,0,0,0,2.056-2.288c2.465-2.694,4.951-5.275,7.356-7.771l.082-.085.093-.1.013-.013.049-.05.033-.034.006-.006.018-.019.016-.018.016-.017.006-.006.017-.017a220.174,220.174,0,0,0,17.774-20.093l-2.209.1-1.493.07-.17.008-1.494.069-.6.028-2.295.107-.973.045-.653.031-2.289.106-.538.025-4.4.2-9.243.43-18.847.878c-.013,1.08-.1,2.161-.181,3.207l0,.047,0,.038v.022a21.628,21.628,0,0,0,.212,7.109c1.232,4.663,4.06,9.346,8.644,14.319,1.061,1.159,2.537,1.676,4.785,1.676.88,0,1.818-.078,2.646-.148h.014l.036,0h.007l.031,0,.039,0h.005l.027,0,.018,0,.026,0,.021,0C311.7,216.656,312.792,216.563,313.7,216.563Zm-225.462-7.4a4.964,4.964,0,0,0-1.61.425l-.012,0-.014.005-.018.007-.015.006-.016.006-.008,0a7.077,7.077,0,0,1-1,.326c-6.279,1.283-13.15,2.759-17.256,3.641h-.006l-.137.029-.278.059-.007,0-.012,0-.015,0-.3.065-.2.043-.26.056-.049.011-.8.171-.107.023c-1.486.319-3.125.67-4.737,1.013l8.072,1.743,9.44,2.039c.8-.1,1.6-.169,2.309-.232l.037,0,.05,0,.069-.006.06-.005.055,0h.04a35.787,35.787,0,0,0,5.683-.814c3.325-.85,2.873-3.37,2.474-5.594l-.006-.035,0-.019-.005-.029c-.082-.459-.166-.934-.2-1.379C89.372,209.659,88.984,209.165,88.241,209.165ZM43.318,218.5a3.836,3.836,0,0,1,1.08.218A3.735,3.735,0,0,0,43.318,218.5Zm70.41-14.388a24.8,24.8,0,0,0-4.215.659l-.015,0c-.489.1-1.017.208-1.66.344l-.066.013-.074.015-.006,0-.016,0-.124.026h-.006l-.027.005-.035.007c-.815.171-1.829.383-2.834.563l-.355.061h-.006a3.069,3.069,0,0,0-2.12.884,1.962,1.962,0,0,0-.15,1.571,10.029,10.029,0,0,1-.08,3.363v.02l0,.015v.007a10.07,10.07,0,0,0-.1,3.172,3.332,3.332,0,0,0,1.912,2.437,7.733,7.733,0,0,0,3.541.806,18.745,18.745,0,0,0,7.013-1.821c1.965-.843,1.76-2.323,1.562-3.754l0-.009a4.354,4.354,0,0,1,.031-2.1v-.006c.014-3.393.022-5.1-.716-5.837A1.9,1.9,0,0,0,113.729,204.116Zm172.091,11.648a1.712,1.712,0,0,1-1.067,1.674A1.71,1.71,0,0,0,285.819,215.764Zm-63.978-21.752a2.381,2.381,0,0,0-.415.041c-1.229.25-1.346,1.254-1.29,2.3.089,1.676.207,3.731.36,6.283l0,.031,0,.037v.005l.01.159.013.211.049.859v.016q.051.859.1,1.716l.32,1.98.12.74.2,1.2.016.11c-.354,2.578-.559,4.562-.663,6.434.106-1.894.312-3.879.664-6.434.207-.03.466-.052.673-.07h.02c.515-.043,1.049-.088,1.069-.218a54.736,54.736,0,0,0,.29-11.489v-.026l0-.088-.007-.144-.009-.206-.005-.119c-.041-.88-.069-1.56-.087-2.139A1.284,1.284,0,0,0,221.841,194.012Zm27.56,6.808c-.752,1.05-1.465,2.052-2.314,3.248l0,0-.177.248-.067.094-.014.021-.009.013-.076.107-.039.054-.119.166-.032.043-.01.014c-1.39,1.953-2.965,4.166-4.523,6.295l-.1.139c-.529.716-1.076,1.457-.9,2.11a1.593,1.593,0,0,0,1.019.946,13.372,13.372,0,0,0,5.183,1.453,5.266,5.266,0,0,0,2.026-.39c1.517-.635,1.281-2.281,1.072-3.732l0-.01a11.009,11.009,0,0,1-.138-1.238c-.029-.671-.015-1.352,0-2.011v-.058l0-.058,0-.06,0-.057,0-.058,0-.056,0-.049,0-.018v-.005a19.289,19.289,0,0,0-.786-7.155Zm104.827,12.254a.5.5,0,0,0-.388.156c-.249.279-.186.873-.155,1.159a1.32,1.32,0,0,0,1.409,1.287,2.009,2.009,0,0,0,.335-.025.9.9,0,0,0,.669-.324,1.2,1.2,0,0,0,.017-.968c-.062-.051-.128-.116-.2-.185l-.019-.019-.015-.016-.015-.016-.019-.019-.021-.022-.035-.037,0,0,0,0,0,0,0,0a3.151,3.151,0,0,0-1.223-.9A1.267,1.267,0,0,0,354.228,213.074Zm-160.3-20.814h0c.57,6.647,1.166,13.795,1.672,21.017-.51-7.287-1.13-14.714-1.67-21.018Zm88.162,15.465h0c.146.422.284.882.41,1.367a14.424,14.424,0,0,1,.284,3.77,14.21,14.21,0,0,0-.284-3.77C282.377,208.615,282.239,208.155,282.091,207.725Zm-150.325-7.848a1.927,1.927,0,0,0-2.068,1.233,12.975,12.975,0,0,0-.439,4.3,3.647,3.647,0,0,0,.3,3.223c.61.789,1.751,1.173,3.487,1.173.3,0,.585-.009.842-.028,1.033-.068,2.171-.1,3.383-.1.746,0,1.615.018,2.582.052.08,0,.147,0,.208,0,1.786,0,2.1-1.023,2.414-2.707a5.361,5.361,0,0,0-.474-4.069c-.956-1.376-2.861-1.721-4.7-2.054l-.038-.007-.03-.005c-.509-.091-1.144-.2-1.73-.354A16.666,16.666,0,0,0,131.766,199.877Zm106.13-5.965c-1.073,0-1.688.693-1.688,1.9V209.7a29.273,29.273,0,0,0,6.9-8.583,15.627,15.627,0,0,1,1.505-2.049l.005-.006,0-.005.005-.006.014-.016.015-.019.013-.015,0-.006.006-.008c1.48-1.8,3.01-3.662,1.71-5.545a1.644,1.644,0,0,0-1.459-.721,8.541,8.541,0,0,0-2.533.608l-.166.056a9.623,9.623,0,0,1-2.99.664,3.69,3.69,0,0,1-.74-.072A3.392,3.392,0,0,0,237.9,193.912Zm115.6,13.568h0l-.013.162,0,.056,0,.031,0,.032,0,.03,0,.033,0,.018v.01a4.133,4.133,0,0,0,0,.994,4.183,4.183,0,0,1,0-1.023v-.006l0-.041c.009-.115.015-.206.021-.294Zm8.568-14.845a5.756,5.756,0,0,0-2.181.588,22.05,22.05,0,0,1,.43,6.656v.046l0,.03,0,.031v.021a36.716,36.716,0,0,0-.006,3.825,28.042,28.042,0,0,1-3.067,3.683,27.969,27.969,0,0,0,3.067-3.682,5.557,5.557,0,0,0,1.6.292,1.541,1.541,0,0,0,1.158-.411,2.593,2.593,0,0,0,.536-1.9c-.018-2.072.013-4.18.1-6.444a3.175,3.175,0,0,0-.548-2.326A1.44,1.44,0,0,0,362.066,192.635Zm13.348-1.876h0c.039.545.1,1.137.158,1.643l0,.014,0,.014.008.072,0,.011v.009l.01.087.005.043.008.066v.005a27.171,27.171,0,0,1,.246,3.651,11.912,11.912,0,0,1,.053,6.025,32.416,32.416,0,0,0,17.061,4.471,50.382,50.382,0,0,0,7.67-.626c1.03-.16,1.5-.894,1.451-2.246-.05-1.327-.243-2.769-1.92-3.078-2.688-.495-5.344-1.133-7.912-1.75l-.032-.008-.067-.016-.013,0-.043-.011-.059-.013-.041-.01-.007,0-.007,0-.009,0-.008,0-.007,0-.008,0c-5.207-1.252-10.59-2.547-16.1-2.721a27.169,27.169,0,0,0-.244-3.623l0-.022c-.065-.556-.146-1.282-.2-1.973ZM62.1,63.422a2.242,2.242,0,0,0-2.089,1.013,6.5,6.5,0,0,0-.692,3.074c-.4,7.859-.9,16.321-1.534,25.869-2.572,38.992-4.892,74.062-7.241,108.4-.109,1.6.06,2.54.547,3.056a1.968,1.968,0,0,0,1.518.525,8.67,8.67,0,0,0,1.864-.261l.4-.092.155-.036.111-.026.029-.007.046-.011.037-.008.134-.031.246-.056.061-.014.023-.005.013,0,.838-.193.065-.014.018,0,.007,0,.028-.006.014,0,.05-.012.022-.005c9.238-2.128,18.791-4.328,28.325-5.952,2.168-.37,3.46-1.028,4.188-2.134A8.023,8.023,0,0,0,90.12,192c-.131-14.356-.112-28.808-.094-42.783V146.47l0-1.951v-.153c.006-4.408.009-7.711.009-10.711h-.5c0-2.46,0-4.927,0-7.539v-2.224l0-2.474v-1.254l0-1.727v-1.222c-.016-13.936-.033-28.346.1-42.879a6.381,6.381,0,0,0-.97-4.1c-.724-.917-1.893-1.473-3.793-1.8a177.633,177.633,0,0,1-20.294-4.571A9.03,9.03,0,0,0,62.1,63.422Zm326.694,7.671-1.946.284-.079.012-.345.05,19.109,132.034,2.66-.347c-5.367-39.111-11.868-85.384-19.4-132.034Zm39.423,131.091h0a21.125,21.125,0,0,1-2.839.877,20.87,20.87,0,0,0,2.84-.877Zm-240.105-7a4.654,4.654,0,0,0-.828.078l-.49.032a7.85,7.85,0,0,0-3.221.626c-.905.518-1.3,1.467-1.241,2.986.114,2.956,1.87,2.956,3.568,2.956a5.213,5.213,0,0,1,2.23.308,2.452,2.452,0,0,0,1.05.293A1.046,1.046,0,0,0,190,202.1a3.118,3.118,0,0,0,.407-2.369c-.049-.365-.072-.75-.089-1.112l0-.069C190.228,196.9,190.136,195.186,188.111,195.186ZM393.918,67.057a.855.855,0,0,0-.212.022,1.256,1.256,0,0,0-1.131,1.011,4.287,4.287,0,0,0,.125,1.581l0,.008,0,.008,0,.006,0,.008,0,.006,0,.01.009.046,0,.018.007.034v.005c.029.148.078.4.1.6.492,3.842,1.03,7.811,1.6,11.8l.186,1.305.038.272.151,1.066.118.83.478,3.362.173,1.208.013.09.02.14.015.107.014.1c2.511,17.724,4.7,33.058,6.505,45.578,2.161,15.009,4.357,29.888,6.407,43.732.823,5.581,1.757,11.594,2.375,15.573l.05.326.007.049.011.067,0,.031.021.13.007.043.532,3.438.012.085.021.14.006.04c.172,1.165.367,2.486,1.682,2.486a2.329,2.329,0,0,0,.391-.035c1.452-.245,1.319-1.373,1.19-2.463l0-.007,0-.022a6.981,6.981,0,0,1-.065-.829,18.552,18.552,0,0,0-.149-2.043v-.015l0-.032v-.008l0-.029v-.009a9.681,9.681,0,0,1,.176-4.3,27.59,27.59,0,0,0,5.777,1.144,2.013,2.013,0,0,0,1.606-.548c.812-.912.608-3.1.178-6.9-.046-.408-.115-.848-.181-1.264l0-.032-.01-.065,0-.009-.007-.049-.007-.042,0-.025c-.039-.225-.1-.577-.152-.977-.7-5.047-1.406-10.191-2.164-15.727l-.024-.174-.2-1.461-.043-.316-.216-1.58,0-.016-.01-.066,0-.026-.067-.483-.053-.387-.067-.486-.007-.048-.052-.38,0-.009-.071-.519-.007-.048c-1.541-11.235-3.651-26.622-5.686-40.856-2.63-18.371-5.421-37.115-7.884-53.652l-.012-.078,0-.019-.018-.122-.038-.263-.007-.05-.007-.047-.011-.075-.013-.091-.01-.068-.606-4.073q-.667-4.479-1.332-8.961c-.009-.048-.02-.119-.04-.272l0-.015-.01-.076,0-.022-.009-.068c-.207-1.514-.441-3.229-2.093-3.229a3.979,3.979,0,0,0-1.265.253,8.452,8.452,0,0,1-1.979.352h-.032c-1.983.2-4.033.4-4.229,4.123a21.308,21.308,0,0,0,1.065,6.729l0,.005,0,.009,0,.006,0,.007,0,.008c.7,2.563,1.418,5.214.862,8a2.285,2.285,0,0,1-.773-1.326C394.7,67.648,394.5,67.057,393.918,67.057Zm38.246,127.936h0a14.285,14.285,0,0,1,.067,1.666v-.006a.146.146,0,0,1,0-.021v-.005l0-.064a14.792,14.792,0,0,0-.068-1.57ZM103.152,72.47a2,2,0,0,0-1.513.524c-.548.552-.8,1.6-.78,3.3.127,14.178.109,28.057.091,41.479v.655c-.009,4.139-.013,8.688-.013,14.752h.326c0,5.469,0,10.43-.006,13.685v4.348c-.009,11.44-.018,23.27.033,35.361.022,5.809.027,7.37,2.929,7.37a34.255,34.255,0,0,0,4.079-.41l.169-.023h.012l.014,0,.374-.049.454-.059.406-.053c2.916-.375,4.674-1.178,5.7-2.6.909-1.274,1.265-3.029,1.226-6.057-.427-33.4-.552-67.274-.663-97.159V86.447l0-.35c-.038-10.506-.038-10.506-10.171-13.155l-.188-.049A10.012,10.012,0,0,0,103.152,72.47Zm57,120.513a4.967,4.967,0,0,1,.719.047,4.136,4.136,0,0,0,.739.052c.219,0,.439-.009.625-.017l.04,0,.046,0h.043c.153-.006.326-.013.495-.013v-.068c.272,0,.527,0,.752.005h.04c.314,0,.563.005.763.005.29,0,.586-.005.932-.016.189-.007.365-.011.552-.013h.055c1.046-.014,2.128-.029,2.692-.687a2.351,2.351,0,0,0,.352-1.917,1.926,1.926,0,0,0-2.187-1.883,10.505,10.505,0,0,0-1.113.081l-.023,0-.016,0-.016,0-.02,0-.016,0-.014,0-.013,0c-.227.027-.38.043-.527.056a43.5,43.5,0,0,0-4.364.689l-.018,0-.026,0a7.2,7.2,0,0,1-1.161.092h-.039a3.134,3.134,0,0,0-2.229.569,1.759,1.759,0,0,0-.366,1.355c.088,1.54,1.15,1.669,2.138,1.669.172,0,.367-.006.586-.013C159.834,192.987,159.993,192.983,160.148,192.983Zm26.814-6.247c-2.123.025-4.425.283-4.862,3.045a2.365,2.365,0,0,0,.362,1.985c.636.763,1.939.846,3.218.866a9.67,9.67,0,0,1,1.158-.049c1.521-.006,3.093-.013,3.223-2.419a3.406,3.406,0,0,0-.7-2.632,3.068,3.068,0,0,0-2.32-.8Zm34.69-.043c-.2,0-.42.013-.693.04-1.284.127-1.831.714-1.721,1.848a2.246,2.246,0,0,0,2.454,1.885l.1,0a1.724,1.724,0,0,0,1.345-.49,2.2,2.2,0,0,0,.369-1.752A1.587,1.587,0,0,0,221.651,186.692ZM248.166,82.14c-.165,0-.37.011-.628.035-5.732.6-8.89.924-10.345,2.6a5.883,5.883,0,0,0-1.147,3.656,61.828,61.828,0,0,0,.191,6.824,7.2,7.2,0,0,1-1.7.275h-.07a4.782,4.782,0,0,0-2.365.586c-.7.5-1,1.424-.905,2.83.444,6.981.85,14.129,1.176,19.872l.017.3,0,.043.014.239.034.592,0,.043.029.5v.021l0,.052,0,.045v.005l.006.114v.007l.007.124v.014l.005.1.005.094,0,.077v.006c.7,12.373,1.431,25.166,2.429,37.844a185.482,185.482,0,0,1,.666,19.39,8.311,8.311,0,0,0,.825,3.236c.816,2.036,1.66,4.141-.658,6.507a.5.5,0,0,0-.167.581c.28.67,2.207,1.115,3.359,1.115h.031l2.71-.02h.08c3.993-.028,8.121-.057,12.186-.2,7.08-.253,14.28-.6,20.633-.9h.024l.243-.012h.061l.236-.012.246-.012,2.82-.134.134-.006h.012a8.354,8.354,0,0,0,2.729-.427,2.653,2.653,0,0,0,.953-3.88,2.569,2.569,0,0,0-1.883-.562c-.267,0-.536.012-.812.026l-.058,0-.031,0-.041,0-.036,0-.032,0-.044,0-.046,0-.049,0c-.14.006-.3.012-.453.012h-.082c-1.319-.014-2.365-.021-3.29-.021-1.6,0-3.314.014-4.447.023l-.238,0h-.151l-.36,0h-.328l-.224,0-.214,0c-1.271.011-2.75.022-4.225.026-.789,0-1.607.006-2.734.013h-.373c-1.063.006-2.447.014-3.731.014-2.237,0-4.1-.024-5.866-.076h-.123a11.4,11.4,0,0,0-1.9.234l-.019,0a11.842,11.842,0,0,1-1.966.236c-1.209,0-1.835-.5-1.972-1.564a1.465,1.465,0,0,1,.291-1.232c.556-.633,1.774-.686,2.872-.686.181,0,.362,0,.541,0h.516c.29,0,.67,0,1.036-.038,3.217-.319,4.844-.845,5.8-1.878.981-1.056,1.312-2.739,1.142-5.808-.2-3.528-.559-6.983-.91-10.323l0-.04,0-.033,0-.025v-.005l0-.024,0-.007v-.021l0-.015,0-.022,0-.038v-.026l0-.047v-.009c-.264-2.514-.563-5.362-.766-8.19-1.115-15.283-2.164-30.508-3.178-45.231l0-.031-.058-.844-.008-.128-.007-.1-.032-.48v-.008l0-.056-.021-.3-.033-.476,0-.076-.158-2.284L253,99.687l-.216-3.126c-.145-2.1-.444-3.728-2.808-3.973l.008-.626.007-.626v-.143c0-.066,0-.131,0-.2V90.95l0-.2.008-.587v-.017l.014-1.12.01-.832v-.071l.014-1.211.008-.684,0-.131v-.085c0-.228,0-.456.008-.684l0-.166.006-.538a2.814,2.814,0,0,0-.475-2.041A1.966,1.966,0,0,0,248.166,82.14ZM379.16,54.876a4.7,4.7,0,0,0-.661.053,2.377,2.377,0,0,0-2.085,1.44,6.66,6.66,0,0,0-.222,2.522v.016l0,.065,0,.093v.1l0,.089c0,.113.008.254.008.383.013,2.423-.059,4.85-.129,7.2l0,.1v.032l0,.1v.048l0,.092v.025l0,.086v.092c-.039,1.171-.069,2.243-.09,3.187.969,3.617.8,7.329.639,10.92v.02l0,.029v.018l0,.074v.018c-.053,1.16-.125,2.745-.118,4.254.114,23.493.038,47.154-.062,69.224-.033,7.187-.286,14.424-.531,21.422v.017l0,.07v.012l0,.057,0,.063-.058,1.67a11.573,11.573,0,0,0,.975,5.8,72.966,72.966,0,0,0,8.577,1.972h.012l.031.005.026,0,.011,0,.008,0a53.721,53.721,0,0,1,11.813,3.163,2.747,2.747,0,0,0,1.092.246,1.8,1.8,0,0,0,1.391-.609,2.779,2.779,0,0,0,.478-2.239c-1.39-9.526-2.8-19.177-4.019-27.476l-.3-2.046-.076-.517-.161-1.1-.107-.732-.037-.255-.38-2.591-.015-.1-.246-1.68-.108-.738-.418-2.849-.013-.081-.036-.253-1.133-7.723-1.3-8.852-.1-.7-.056-.375-.006-.042-.006-.043-.314-2.139-.424-2.886-.028-.193-.594-4.049-.025-.172c-1.133-7.727-2.418-16.485-3.638-24.779-.374-2.521-.73-4.95-1.086-7.425l-.032-.216,0-.022v-.009l-.024-.164-.009-.059-.006-.039V86.5l-.03-.206c-1.3-8.884-2.641-18.071-4.137-27.205a7.143,7.143,0,0,1-.073-.936v-.07l0-.029C381.251,56.636,381.19,54.876,379.16,54.876Zm-248.3,23.446a2.514,2.514,0,0,0-1.872.618c-.6.609-.846,1.695-.832,3.747.1,12.813.086,25.886.072,37.42v.054c-.008,5.419-.012,9.411-.012,13.352h.574c0,3.378.009,6.941.021,11.248l0,.536,0,.426,0,1.09v.05l0,.436v.271c.034,11.807.07,24.016-.143,36.209-.036,2.075.245,3.3.913,3.973a2.573,2.573,0,0,0,1.963.666,12.234,12.234,0,0,0,2.544-.352l.35-.077c8.506-1.867,8.506-1.867,8.483-10.861-.032-12.372-.062-24.933-.092-37.2l-.012-5.245,0-1.043-.023-9.386v-.641l0-1.337-.011-4.153c-.022-9-.044-18.332-.068-27.725-.012-4.673-.018-7.247-1.173-8.731-1.145-1.46-3.4-1.948-7.883-2.922h-.008L133,78.6A10.551,10.551,0,0,0,130.864,78.322Zm198.35,107.207c-5.84.01-11.569.229-15.907.418C317.706,185.757,323.49,185.539,329.215,185.529Zm30.416-2.477c0,.065,0,.128,0,.187v.015c0,.031,0,.063,0,.092l0,.049v.023c.005.166.008.252.008.332,0,.186,0,.373.006.563q0-.046,0-.093c0-.151,0-.308,0-.469,0-.086,0-.184-.007-.307v-.05l0-.055C359.635,183.246,359.632,183.151,359.63,183.052Zm-58.52,1.111c-.759.032-1.488.065-2.2.1l.8-.035Zm129.27-3.3h0c.056.9.114,1.736.178,2.555-.065-.836-.118-1.624-.176-2.556Zm-134.813.843a1.042,1.042,0,0,0-1.078.849A1.043,1.043,0,0,1,295.567,181.7ZM158.34,83.742a2.651,2.651,0,0,0-2.011.687c-.63.643-.923,1.806-.895,3.553.185,10.83.154,21.759.123,32.329v.663l0,1.145v.133l0,.632c-.012,3.8-.017,7.063-.017,9.971h.059v6c0,.008,0,.015,0,.023s0,.015,0,.023v10.914c0,9.235,0,17.79,0,25.429v.353a20.478,20.478,0,0,0,.331,5.316c.326,1,.96,1.378,2.342,1.378a32.491,32.491,0,0,0,3.87-.4c.465-.063.887-.12,1.287-.172,5.323-.7,6.231-3.079,6.171-7.827-.242-19.865-.325-39.839-.405-59.155v-.378c-.031-7.3-.061-13.933-.088-19.707-.044-8.871-.044-8.871-8.542-10.628l-.043-.009A11.012,11.012,0,0,0,158.34,83.742Zm185.418,97.914a1.168,1.168,0,0,1,.471.321A1.153,1.153,0,0,0,343.758,181.656Zm16.58-.368a.661.661,0,0,0-.36.194.781.781,0,0,0-.145.2.806.806,0,0,1,.145-.2A.673.673,0,0,1,360.337,181.288Zm-60.95.277h.475a11.153,11.153,0,0,0,3.757-.48,11.273,11.273,0,0,1-3.776.479Zm-19.8-7.614a1.944,1.944,0,0,0-1.62.63,1.429,1.429,0,0,0-.13,1.309l.005.014c.646,2.081,1.45,4.67,3.855,5.161a1.366,1.366,0,0,0,.237.026.59.59,0,0,0,.432-.165c.289-.289.283-.911.276-1.512v-.092a3.793,3.793,0,0,1,.063-.9c.091-2.3-.057-4.226-2.794-4.455C279.8,173.956,279.692,173.951,279.586,173.951Zm84.667,6.133a2.281,2.281,0,0,1-.274.378,2.233,2.233,0,0,1-.759.53,2.209,2.209,0,0,0,.76-.53A2.16,2.16,0,0,0,364.252,180.085Zm-171.376-.209h0c.012.243.033.537.07.982-.036-.432-.054-.7-.068-.983Zm10-1.759h0c0,.038.009.078.014.119v.011c0,.023.005.047.008.071l0,.036,0,.028c.014.127.027.257.041.4l.014.134.011.094-.089-.844-.005-.049ZM345.655,61.69a13.129,13.129,0,0,0-2.652.386l-.034.006-.132.027-.014,0-.023,0-.124.025c-6.055,1.249-12.527,2.637-16.81,3.556l-.3.065-.012,0-.019,0-.009,0-.374.08-.09.02-.034.007-.03.006-.022,0-.033.007-.011,0-.013,0-.1.022-.029.006-.012,0c-8.965,1.922-18.235,3.91-27.666,5.747-3.163.615-3.649,1.817-3.589,4.457.09,4.116.043,8.159,0,12.07v.352l0,.154,0,.113,0,.14c-.024,1.909-.039,3.383-.045,4.639a187.316,187.316,0,0,1,.973,22.407v.034l0,.892c.041,11.762.124,24.2.2,34.94l0,.126v.167l.016,2.554c.025,3.787.053,7.994.08,12.318,4.141.848,8.326,1.7,13.334,2.705l.022,0,.081.016.153.031.052.011.062.013.022,0h.005c11.4,2.3,23.182,4.681,34.883,7.291a10.659,10.659,0,0,0,2.3.306,2.682,2.682,0,0,0,1.991-.652c.747-.75.887-2.085.882-4.286-.08-32.364-.144-69.94.118-106.324.014-1.847-.312-3.081-1-3.772A2.657,2.657,0,0,0,345.655,61.69ZM182.734,92.732l-.762.037v4.947q0,1.286,0,2.573v4.229c0,10.174,0,17.393,0,24.139q0,4.917,0,9.832v2.671c0,10.354.007,21.061.05,31.912.012,2.7,1.048,4.126,3,4.126a6.689,6.689,0,0,0,2.378-.529c2.07-.815,1.9-2.37,1.73-3.874l-.005-.045,0-.039v-.007l0-.022,0-.039c-.024-.22-.047-.434-.058-.641l-.044-.749-.006-.1v-.014l-.006-.09v-.009l0-.061v-.014l0-.064-.011-.18c-.642-10.582-1.305-21.523-2.2-32.511-.876-10.734-1.91-22.033-2.741-31.111v-.007l-.006-.076V107l-.029-.32,0-.013-.007-.086,0-.023-.006-.072-.008-.092,0-.03v-.011l-.086-.939C183.566,101.959,183.148,97.389,182.734,92.732ZM202.362,173.1h0l.012.108.007.074.041.412c.024.245.048.476.071.7l-.039-.381-.02-.2c-.024-.239-.048-.474-.071-.715Zm225.7-9.584h0a3.323,3.323,0,0,0,.07,1.445l.036.114-.008-.026-.027-.089a3.365,3.365,0,0,1-.071-1.444Zm-232.923-.829h0c.071.615.146,1.22.226,1.8C195.274,163.843,195.2,163.272,195.138,162.688ZM280.3,74.96c-.125,0-.229,0-.263.006a2.5,2.5,0,0,0-1.848.7c-.645.715-.575,1.841-.508,2.93v.046l0,.051,0,.045,0,.044c.018.319.03.546.029.777-.035,12.736-.056,26.449-.073,39.371l0,1.136v.078l0,1.734,0,1.6v.405l0,1.745v.113l-.005,3.221c-.017,11.89-.034,21.671-.051,29.9,0,1.684.062,3.145.886,3.969a2.387,2.387,0,0,0,1.78.633c.131,0,.258-.005.379-.016,2.332-.187,2.184-2.062,2.054-3.716l0-.033V159.7l0-.013,0-.022c-.015-.191-.051-.638-.05-1.016.05-9.755.044-19.622.039-28.327v-4.917q0-2.831,0-5.662h-.265v-7.229l0-2.291v-.017c.007-9.961.014-20.261-.056-30.862a9.585,9.585,0,0,1,.066-.983v-.008l0-.011,0-.011,0-.011,0-.037v-.013c.1-.971.222-2.071-.362-2.722A2.241,2.241,0,0,0,280.3,74.96Zm149,85.8c-.19.339-.378.643-.558.9a2.7,2.7,0,0,0-.184.3,3.032,3.032,0,0,1,.186-.3C428.951,161.363,429.138,161.059,429.3,160.759Zm1.519-7.952c0,.222,0,.428,0,.625C430.821,153.286,430.822,153.1,430.822,152.807Zm.066-4.126h0c-.03.281-.048.606-.056.967.009-.372.028-.689.056-.967Zm1.781-2.9h0a1.611,1.611,0,0,0-.5.148,1.706,1.706,0,0,1,.5-.148Zm-238.634-7.738h0c.09,2.347.144,4.828.184,6.639v.044l0,.194v.018l0,.13v.053l0,.132,0,.135c-.058-2.686-.107-4.933-.2-7.346ZM198.7,119.4h0a16.809,16.809,0,0,1,.5,4.853,1.273,1.273,0,0,0,0,.285,1.386,1.386,0,0,1,0-.285,16.9,16.9,0,0,0-.5-4.853Zm-5.925-1.785h0c.037,1.119.091,2.3.167,3.609-.078-1.36-.132-2.541-.167-3.609Zm5.641.423h0c.062.3.121.586.181.858l0,.012,0,.006,0,.025,0,.009,0-.009-.013-.062,0-.01-.022-.1-.014-.066,0-.013c-.051-.233-.1-.481-.135-.648Zm-.44-3.82c-.005.2,0,.41.005.617C197.968,114.567,197.968,114.411,197.972,114.215ZM369.6,78.937h0c0,.149,0,.3,0,.5q-.007,3.717-.012,7.432v.459l0,1.976-.009,5.9-.011,8.194,0,2.524-.007,5.051,0-1.761,0-1.759,0-3.59,0-1.8,0-1.834v-.022q0-1.994.006-3.979l0-2.8v-1l.005-4.214v-.627q.005-4.073.013-8.146v-.013c0-.249,0-.383,0-.5Zm-171.021,24.7a6.219,6.219,0,0,0-3.087,1.271A6.358,6.358,0,0,1,198.583,103.64Zm165.924-33.9h0c.012,4.764.018,8.837.023,13.206C364.526,78.754,364.52,74.681,364.507,69.737ZM353.85,74.886h0a11.3,11.3,0,0,0-.141,1.85,11.6,11.6,0,0,1,.141-1.85Zm3.574-4h0a4.739,4.739,0,0,0-3.063,2.371l0,.005-.006.013.011-.018a4.749,4.749,0,0,1,3.063-2.37Zm13.78-.991c-.69.173-1.05.7-1.244,1.813C370.154,70.593,370.515,70.068,371.2,69.894Zm-240.34-9.343a1.923,1.923,0,0,0-1.484.48,2.823,2.823,0,0,0-.574,2.083c.042,3.175,2.026,3.427,4.615,3.427h.1c.392-.089.8-.184,1.338-.309l.273-.064.029-.006.013,0,.047-.011c1.161-.274,2.917-.687,4.64-1.019a2.328,2.328,0,0,0,1.649-.976,3.184,3.184,0,0,0,.34-1.874c-.085-1.631-1.147-1.636-2.272-1.642h-.184c-.479,0-.911-.011-1.445-.022h-.021l-.169,0-.071,0h-.009c-.712-.013-1.518-.029-2.316-.029-.9,0-1.675.021-2.425.065-.085.005-.158.007-.243.007-.293,0-.6-.026-.892-.051h-.02l-.03,0-.041,0-.047,0-.019,0-.036,0-.021,0-.039,0C131.346,60.569,131.092,60.551,130.864,60.551ZM359.822,64.8h0c-.009.484-.031,1.023-.069,1.683.026-.448.058-1.052.069-1.683ZM165.133,52.863h-.164c-4.376.071-6.553.593-7.764,1.862-.905.947-1.28,2.366-1.214,4.6.014.484-.021.991-.054,1.481l0,.045V60.9c-.1,1.419-.2,2.885.655,3.806a4.03,4.03,0,0,0,3.082.958h.049c3.647-.016,5.769-.412,7.1-1.323,1.3-.9,1.85-2.318,1.848-4.757-.017-.626,0-1.255.021-1.714v-.009l0-.042v-.009l0-.042c.059-1.7.111-3.164-.738-4.043A3.779,3.779,0,0,0,165.133,52.863Zm197.474,5.459a2.754,2.754,0,0,0-2.112.811,4.347,4.347,0,0,0-.752,3.274,4.351,4.351,0,0,1,.753-3.275A2.758,2.758,0,0,1,362.606,58.323ZM86.1,53.222a21.646,21.646,0,0,0-7.43,1.66,8.679,8.679,0,0,0,3.1.566,15.325,15.325,0,0,0,6.681-2A12.136,12.136,0,0,0,86.1,53.222Zm28.269-5.409a5.118,5.118,0,0,0-1.033.151l-.018,0-.014,0-.01,0-.033.006-1.67.311-.023,0-.787.147-.171.032-.037.007-.072.014c-3.037.565-5.072.947-7.021,1.319-1.124.215-2.221.561-2.224,2.179,0,1.421.914,1.7,1.886,2,.181.055.31.1.419.131a8.9,8.9,0,0,0,2.864.454,20.443,20.443,0,0,0,5.332-.955l.025-.006.011,0,.045-.012c.757-.205,1.613-.438,2.471-.613,1.455-.3,1.324-1.756,1.208-3.039-.03-.31-.057-.611-.061-.895C115.439,48.206,115.094,47.813,114.367,47.813ZM140.2,42.031a3.328,3.328,0,0,0-.481.031,31.5,31.5,0,0,0-5.359,1.045,10.976,10.976,0,0,1-1.961.322h-.021l-.025,0c-1.869.2-3.8.4-3.629,2.343.121,1.335.736,1.93,2,1.93a10.043,10.043,0,0,0,1.429-.149l.011,0,.022,0,.01,0,.037,0a9.142,9.142,0,0,1,1.4-.149,2.039,2.039,0,0,1,.857.154h5.46a2.614,2.614,0,0,0,1.99-.671,2.757,2.757,0,0,0,.564-2.15C142.393,42.939,141.619,42.031,140.2,42.031Zm48.37,442.021a4.5,4.5,0,0,1-1.2-2.133l1.2,2.131Z" transform="translate(-154.642 -2934.096)" fill="#ff9e00" stroke="rgba(0,0,0,0)" stroke-miterlimit="10" stroke-width="1"/>
    <path id="路径_5036" data-name="路径 5036" d="M-104.411-2733.859,68.737-2409.186l-9.779,15.8-177.75-330.4Z" transform="translate(-2 20)" fill="#ffa800"/>
    <path id="路径_5010" data-name="路径 5010" d="M516.548-2059.377,486.929-2039.5v144.049l42.227,11.959v64.625L374-1787.208l-153.771-31.661-113.065,24.151L374-1737.231,840.6-1818.869l-67.032-21.349-79.523,21.349V-2039.5Z" transform="translate(-377.716 -1335.755)" fill="#efea47"/>
    <path id="路径_5011" data-name="路径 5011" d="M707.645-1791.843v73.632H677.826v-35.935H630.373v51.138H565.414v-30.037h-52.06v49.847h-25.8v-58.509h-9.214v58.509l-51.138,9.215v-44.228H401.863v54.824l-254.279-39.621-33.631,10.216,287.91,54.995,443.261-80.413-72.25-14.834v-70.917l-65.23,12.118" transform="translate(-382.236 -1335.755)" fill="#f1ed51"/>
    <path id="路径_5012" data-name="路径 5012" d="M707.645-1791.843v73.632H677.826v-35.935H630.373v51.138H565.414v-30.037h-52.06v49.847h-25.8v-58.509h-9.214v58.509l-51.138,9.215v-44.228H401.863v54.824l-254.279-39.621-33.631,10.216,287.91,54.995,443.261-80.413-72.25-14.834v-70.917l-65.23,12.118" transform="translate(-382.236 -1252.673)" fill="#f1ed51"/>
    <path id="路径_5042" data-name="路径 5042" d="M180.542-2566.154l47.191-62.476-59.11,104.6v-9.975Z" fill="#ffa800"/>
    <path id="路径_5043" data-name="路径 5043" d="M-104.411-2733.859,33.964-2510.507l-9.779,15.8-142.977-229.082Z" transform="translate(2715.87 -1666.027) rotate(-73)" fill="#ffa800"/>
    <path id="路径_5044" data-name="路径 5044" d="M-104.411-2733.859l410.894,91.741-9.779,15.8-415.5-97.472Z" transform="translate(2715.87 -1666.027) rotate(-73)" fill="#ffa800"/>
    <g id="组_25" data-name="组 25" transform="translate(-4881.559 -1287.234)">
      <path id="路径_4772" data-name="路径 4772" d="M3992.917-2020.734l73.964-24.282,211.979,34.444-98.108,22.074Z" transform="translate(734)" fill="#d2d9dc"/>
      <path id="路径_4773" data-name="路径 4773" d="M3992.917-2016.969v171.015l187.835,35.083v-173.863Z" transform="translate(734 -3.765)" fill="#86877f"/>
      <path id="路径_4774" data-name="路径 4774" d="M4308.262-2005.349v171.015l-98.386,25.023v-173.863Z" transform="translate(704.598 -5.325)" fill="#e7ebe7"/>
    </g>
    <path id="路径_5046" data-name="路径 5046" d="M0,0,190.914,143.665,313,315,136.93,197.65Z" transform="translate(46.286 -3428.599) rotate(-45)" fill="#e3d781"/>
    <g id="组_26" data-name="组 26" transform="translate(-4030.041 -1343.742)">
      <rect id="矩形_1" data-name="矩形 1" width="32" height="231" transform="translate(4232 -2005)" fill="#a92a28"/>
      <path id="多边形_1" data-name="多边形 1" d="M19,0,38,227H0Z" transform="matrix(0.819, -0.574, 0.574, 0.819, 4102.67, -2172.087)" fill="#b2302d"/>
    </g>
  </g>
</svg>
